if (_typeface_js && _typeface_js.loadFace) _typeface_js.loadFace({"glyphs":{"ҷ":{"x_min":68.0625,"x_max":676.4375,"ha":707,"o":"m 462 292 q 396 261 440 278 q 276 245 352 245 q 186 256 225 245 q 120 295 147 267 q 81 368 94 322 q 68 483 68 414 l 68 695 l 179 695 l 179 505 q 183 438 179 468 q 200 386 187 408 q 236 353 212 364 q 298 342 259 342 q 401 355 361 342 q 462 386 441 369 l 462 695 l 573 695 l 573 97 l 676 97 l 676 -176 l 601 -176 l 580 0 l 462 0 l 462 292 "},"Ѣ":{"x_min":0,"x_max":812.5625,"ha":860,"o":"m 0 861 l 206 861 l 206 1001 l 322 1001 l 322 861 l 609 861 l 609 764 l 322 764 l 322 592 q 345 596 329 594 q 381 599 362 598 q 422 602 401 601 q 459 604 443 604 q 589 590 526 604 q 702 545 652 577 q 782 456 751 512 q 812 313 812 399 q 783 169 812 230 q 702 68 754 108 q 582 8 651 27 q 433 -11 513 -11 q 386 -10 413 -11 q 327 -7 358 -9 q 264 -1 295 -5 q 206 9 233 2 l 206 764 l 0 764 l 0 861 m 448 89 q 542 102 498 89 q 619 142 586 115 q 671 210 652 169 q 690 305 690 251 q 669 402 690 363 q 614 463 648 441 q 536 494 580 485 q 444 504 491 504 q 413 502 431 504 q 377 499 395 501 q 344 495 359 498 q 322 491 329 492 l 322 97 q 377 91 341 93 q 448 89 413 89 "},"Ӈ":{"x_min":118.0625,"x_max":815.34375,"ha":933,"o":"m 815 -37 q 771 -230 815 -166 q 630 -294 727 -294 q 609 -294 619 -294 q 587 -291 598 -294 l 587 -194 q 649 -182 626 -194 q 683 -147 672 -170 q 697 -87 694 -124 q 700 0 700 -49 l 700 445 l 233 445 l 233 0 l 118 0 l 118 972 l 233 972 l 233 548 l 700 548 l 700 972 l 815 972 l 815 -37 "},"Ҿ":{"x_min":1.390625,"x_max":997.296875,"ha":1075,"o":"m 380 442 q 470 173 391 260 q 701 88 550 86 q 817 106 763 88 q 905 145 870 124 l 936 52 q 840 7 895 26 q 709 -15 784 -12 l 690 -249 l 618 -249 l 591 -9 q 359 121 445 12 q 263 442 272 230 l 212 442 q 48 489 95 442 q 1 612 1 537 q 11 677 1 653 q 40 720 22 701 l 148 720 q 118 674 126 701 q 109 625 109 646 q 113 592 109 608 q 130 564 118 576 q 166 543 143 551 q 229 536 190 536 q 245 536 237 536 q 263 537 254 536 q 370 871 273 754 q 645 989 468 989 q 908 884 819 989 q 997 590 997 780 q 984 442 997 521 l 380 442 m 876 539 q 880 576 879 558 q 882 612 882 594 q 868 718 882 668 q 825 807 854 768 q 752 869 797 846 q 647 892 708 892 q 452 798 518 892 q 379 539 386 705 l 876 539 "},"ӱ":{"x_min":16.671875,"x_max":634.765625,"ha":647,"o":"m 311 244 l 350 111 l 356 111 l 387 246 l 522 695 l 634 695 l 429 70 q 382 -61 405 2 q 331 -175 359 -125 q 269 -255 304 -225 q 188 -285 234 -285 q 106 -271 138 -285 l 126 -175 q 161 -182 144 -182 q 236 -141 200 -182 q 295 0 272 -100 l 16 695 l 144 695 l 311 244 m 137 881 q 156 932 137 913 q 205 952 174 952 q 254 932 235 952 q 273 881 273 913 q 254 832 273 851 q 205 813 235 813 q 156 832 174 813 q 137 881 137 851 m 404 881 q 422 932 404 913 q 472 952 441 952 q 522 932 504 952 q 541 881 541 913 q 522 832 541 851 q 472 813 504 813 q 422 832 441 813 q 404 881 404 851 "},"Ҧ":{"x_min":118.0625,"x_max":1288.984375,"ha":1365,"o":"m 797 0 l 682 0 l 682 869 l 233 869 l 233 0 l 118 0 l 118 972 l 797 972 l 797 492 q 862 510 812 498 q 988 522 912 522 q 1098 506 1044 522 q 1195 453 1152 491 q 1263 351 1237 416 q 1288 188 1288 287 q 1204 -89 1288 -1 q 963 -178 1119 -178 q 897 -177 918 -178 q 866 -173 877 -176 l 866 -70 q 906 -74 884 -73 q 968 -75 927 -75 q 1116 -11 1065 -75 q 1166 179 1166 51 q 1150 296 1166 249 q 1104 371 1133 342 q 1037 410 1076 399 q 955 422 998 422 q 905 418 930 422 q 859 410 880 415 q 820 399 837 405 q 797 391 804 394 l 797 0 "},"е":{"x_min":68.0625,"x_max":637.546875,"ha":706,"o":"m 613 55 q 509 2 572 21 q 375 -17 445 -17 q 237 8 295 -17 q 141 82 179 34 q 86 196 104 130 q 68 347 68 263 q 147 617 68 524 q 373 711 226 711 q 468 700 420 711 q 552 660 515 690 q 613 578 590 631 q 637 436 637 524 q 629 335 637 390 l 183 335 q 195 226 183 274 q 234 147 208 179 q 303 97 261 114 q 406 80 345 80 q 501 96 454 80 q 572 136 548 113 l 613 55 m 375 614 q 243 570 293 614 q 184 423 194 527 l 529 423 q 488 571 529 528 q 375 614 448 614 "},"e":{"x_min":68.0625,"x_max":637.546875,"ha":706,"o":"m 613 55 q 509 2 572 21 q 375 -17 445 -17 q 237 8 295 -17 q 141 82 179 34 q 86 196 104 130 q 68 347 68 263 q 147 617 68 524 q 373 711 226 711 q 468 700 420 711 q 552 660 515 690 q 613 578 590 631 q 637 436 637 524 q 629 335 637 390 l 183 335 q 195 226 183 274 q 234 147 208 179 q 303 97 261 114 q 406 80 345 80 q 501 96 454 80 q 572 136 548 113 l 613 55 m 375 614 q 243 570 293 614 q 184 423 194 527 l 529 423 q 488 571 529 528 q 375 614 448 614 "},"Ѓ":{"x_min":118.0625,"x_max":638.9375,"ha":614,"o":"m 638 869 l 233 869 l 233 0 l 118 0 l 118 972 l 638 972 l 638 869 m 437 1209 l 595 1209 l 595 1179 l 369 1045 l 273 1045 l 437 1209 "},"ў":{"x_min":16.671875,"x_max":634.765625,"ha":647,"o":"m 311 244 l 350 111 l 356 111 l 387 246 l 522 695 l 634 695 l 429 70 q 382 -61 405 2 q 331 -175 359 -125 q 269 -255 304 -225 q 188 -285 234 -285 q 106 -271 138 -285 l 126 -175 q 161 -182 144 -182 q 236 -141 200 -182 q 295 0 272 -100 l 16 695 l 144 695 l 311 244 m 217 975 q 265 886 231 911 q 344 862 299 862 q 423 888 388 862 q 470 974 458 914 l 553 947 q 482 824 541 867 q 341 781 423 781 q 267 790 303 781 q 201 819 230 800 q 151 869 171 839 q 123 941 130 900 l 217 975 "},"^":{"x_min":66.671875,"x_max":600.046875,"ha":695,"o":"m 325 988 l 365 988 l 600 605 l 486 605 l 375 792 l 343 888 l 300 790 l 172 605 l 66 605 l 325 988 "},"Ӑ":{"x_min":11.109375,"x_max":801.453125,"ha":813,"o":"m 580 270 l 222 270 l 125 0 l 11 0 l 379 988 l 431 988 l 801 0 l 680 0 l 580 270 m 259 370 l 545 370 l 437 665 l 402 812 l 401 812 l 366 662 l 259 370 m 279 1209 q 317 1129 284 1157 q 406 1102 351 1102 q 495 1129 462 1102 q 534 1207 527 1157 l 633 1183 q 563 1064 617 1108 q 405 1021 508 1021 q 243 1059 306 1021 q 169 1181 180 1097 l 279 1209 "},"к":{"x_min":106.953125,"x_max":651.4375,"ha":664,"o":"m 281 313 l 218 313 l 218 0 l 106 0 l 106 695 l 218 695 l 218 381 l 277 400 l 500 695 l 620 695 l 405 415 l 347 369 l 419 314 l 651 0 l 513 0 l 281 313 "},"ˆ":{"x_min":83.34375,"x_max":452.8125,"ha":536,"o":"m 254 1017 l 298 1017 l 452 764 l 352 764 l 298 855 l 269 936 l 238 855 l 176 764 l 83 764 l 254 1017 "},"ң":{"x_min":106.953125,"x_max":744.5,"ha":758,"o":"m 531 307 l 218 307 l 218 0 l 106 0 l 106 695 l 218 695 l 218 404 l 531 404 l 531 695 l 643 695 l 643 97 l 744 97 l 744 -176 l 669 -176 l 648 0 l 531 0 l 531 307 "},"Ҫ":{"x_min":77.78125,"x_max":740.34375,"ha":793,"o":"m 740 41 q 652 0 704 13 q 541 -15 601 -12 l 522 -249 l 450 -249 l 423 -9 q 286 36 350 1 q 177 132 223 71 q 104 281 130 193 q 77 486 77 369 q 114 717 77 622 q 211 873 151 812 q 347 961 272 933 q 500 989 422 989 q 636 980 583 989 q 726 956 688 971 l 698 853 q 508 886 632 886 q 395 865 451 886 q 296 797 340 844 q 226 673 252 750 q 200 486 200 597 q 225 311 200 386 q 293 186 250 236 q 396 112 337 136 q 525 88 455 88 q 634 99 587 88 q 712 131 680 111 l 740 41 "},"қ":{"x_min":106.953125,"x_max":688.9375,"ha":703,"o":"m 281 313 l 218 313 l 218 0 l 106 0 l 106 695 l 218 695 l 218 381 l 277 400 l 500 695 l 620 695 l 405 415 l 347 369 l 419 314 l 579 97 l 688 97 l 688 -176 l 613 -176 l 593 0 l 513 0 l 281 313 "},"’":{"x_min":55.5625,"x_max":215.296875,"ha":269,"o":"m 55 915 q 75 964 55 946 q 127 983 95 983 q 190 958 166 983 q 215 885 215 934 q 202 806 215 839 q 170 750 188 773 q 130 713 151 727 q 94 694 109 699 l 59 741 q 109 783 91 757 q 127 848 127 808 q 112 847 122 847 q 70 865 86 847 q 55 915 55 884 "},"-":{"x_min":81.953125,"x_max":418.09375,"ha":500,"o":"m 81 452 l 418 452 l 418 349 l 81 349 l 81 452 "},"ѕ":{"x_min":54.171875,"x_max":523.65625,"ha":585,"o":"m 412 188 q 387 253 412 230 q 325 293 362 277 q 245 323 288 309 q 164 361 201 338 q 102 420 127 384 q 77 517 77 456 q 134 664 77 617 q 293 711 191 711 q 418 697 368 711 q 506 667 469 684 l 480 575 q 403 602 448 590 q 306 614 358 614 q 217 593 245 614 q 188 520 188 572 q 213 464 188 484 q 275 428 238 444 q 356 397 312 412 q 436 356 400 381 q 498 293 473 331 q 523 192 523 255 q 509 109 523 148 q 463 42 494 70 q 388 -1 433 14 q 281 -17 343 -17 q 147 -1 202 -17 q 54 34 91 13 l 87 128 q 170 95 119 110 q 275 80 222 80 q 373 103 334 80 q 412 188 412 127 "},"Q":{"x_min":77.78125,"x_max":977.859375,"ha":950,"o":"m 977 -238 q 912 -251 944 -248 q 848 -255 880 -255 q 713 -240 779 -255 q 585 -208 647 -225 q 466 -176 523 -191 q 358 -162 409 -162 q 294 -170 325 -162 l 294 -68 q 331 -61 313 -64 q 369 -59 350 -59 q 485 -73 427 -59 q 602 -105 543 -88 q 725 -137 662 -122 q 857 -152 787 -152 q 977 -138 918 -152 l 977 -238 m 77 486 q 180 859 77 729 q 473 989 283 989 q 651 952 576 989 q 775 850 726 916 q 848 692 825 784 q 872 486 872 599 q 768 112 872 242 q 473 -17 665 -17 q 297 19 372 -17 q 174 121 223 55 q 101 279 125 187 q 77 486 77 372 m 200 486 q 215 333 200 405 q 265 206 231 261 q 350 118 298 151 q 473 86 402 86 q 676 183 602 86 q 750 486 750 281 q 734 638 750 565 q 684 765 718 711 q 597 853 650 820 q 473 886 545 886 q 272 788 345 886 q 200 486 200 690 "},"Ш":{"x_min":118.0625,"x_max":1100.09375,"ha":1218,"o":"m 118 0 l 118 972 l 233 972 l 233 103 l 551 103 l 551 972 l 666 972 l 666 103 l 984 103 l 984 972 l 1100 972 l 1100 0 l 118 0 "},"M":{"x_min":118.0625,"x_max":980.640625,"ha":1099,"o":"m 865 652 l 879 798 l 872 798 l 819 665 l 566 226 l 531 226 l 263 666 l 213 798 l 206 798 l 226 654 l 226 0 l 118 0 l 118 972 l 204 972 l 508 474 l 554 366 l 556 366 l 600 477 l 890 972 l 980 972 l 980 0 l 865 0 l 865 652 "},"ј":{"x_min":12.5,"x_max":262.515625,"ha":371,"o":"m 129 695 l 240 695 l 240 -37 q 195 -230 240 -166 q 54 -294 151 -294 q 33 -293 43 -294 q 12 -291 23 -292 l 12 -197 q 74 -185 51 -197 q 109 -148 97 -173 q 125 -85 122 -123 q 129 4 129 -46 l 129 695 m 105 905 q 127 960 105 937 q 181 983 148 983 q 238 960 215 983 q 262 905 262 937 q 238 852 262 873 q 181 832 215 832 q 127 852 148 832 q 105 905 105 873 "},"Ҋ":{"x_min":118.0625,"x_max":972.296875,"ha":958,"o":"m 712 658 l 720 769 l 715 769 l 655 655 l 186 0 l 118 0 l 118 972 l 233 972 l 233 305 l 223 195 l 229 195 l 290 309 l 759 972 l 827 972 l 827 97 l 972 97 l 972 66 l 845 -181 l 770 -181 l 833 0 l 712 0 l 712 658 m 355 1209 q 394 1129 361 1157 q 483 1102 427 1102 q 571 1129 538 1102 q 611 1208 604 1157 l 709 1184 q 639 1064 694 1108 q 481 1021 584 1021 q 320 1059 383 1021 q 245 1181 256 1097 l 355 1209 "},"ӊ":{"x_min":106.953125,"x_max":782,"ha":772,"o":"m 531 307 l 218 307 l 218 0 l 106 0 l 106 695 l 218 695 l 218 404 l 531 404 l 531 695 l 643 695 l 643 97 l 782 97 l 782 66 l 655 -180 l 580 -176 l 643 0 l 531 0 l 531 307 "},"ҏ":{"x_min":106.953125,"x_max":683.390625,"ha":751,"o":"m 106 695 l 183 695 l 204 611 l 209 611 q 292 685 241 659 q 408 711 343 711 q 615 629 547 711 q 683 360 683 547 q 652 178 683 256 q 565 52 622 101 l 638 -33 l 580 -85 l 498 10 q 363 -17 438 -17 q 282 -10 312 -17 q 218 10 252 -4 l 218 -278 l 106 -278 l 106 695 m 412 226 l 493 130 q 548 223 529 166 q 568 362 568 281 q 558 465 568 419 q 527 545 548 512 q 471 596 505 579 q 387 614 437 614 q 275 577 316 614 q 218 465 234 540 l 218 118 q 275 89 243 99 q 359 80 306 80 q 434 92 402 78 l 358 182 l 412 226 "},"ӗ":{"x_min":68.0625,"x_max":637.546875,"ha":706,"o":"m 613 55 q 509 2 572 21 q 375 -17 445 -17 q 237 8 295 -17 q 141 82 179 34 q 86 196 104 130 q 68 347 68 263 q 147 617 68 524 q 373 711 226 711 q 468 700 420 711 q 552 660 515 690 q 613 578 590 631 q 637 436 637 524 q 629 335 637 390 l 183 335 q 195 226 183 274 q 234 147 208 179 q 303 97 261 114 q 406 80 345 80 q 501 96 454 80 q 572 136 548 113 l 613 55 m 375 614 q 243 570 293 614 q 184 423 194 527 l 529 423 q 488 571 529 528 q 375 614 448 614 m 244 975 q 292 886 258 911 q 371 862 326 862 q 450 888 415 862 q 497 974 485 914 l 580 947 q 509 824 568 867 q 368 781 450 781 q 294 790 330 781 q 228 819 257 800 q 178 869 198 839 q 150 941 157 900 l 244 975 "},"ҩ":{"x_min":68.0625,"x_max":876.453125,"ha":917,"o":"m 373 614 q 183 348 183 612 q 196 245 183 294 q 237 159 209 196 q 306 100 265 121 q 404 80 347 80 q 439 82 419 80 q 473 94 459 85 q 388 194 423 124 q 354 351 354 263 q 366 473 354 412 q 406 584 377 535 q 483 664 434 633 q 605 695 531 695 q 714 671 669 695 q 788 607 759 647 q 829 512 816 567 q 843 396 843 458 q 829 290 843 340 q 792 199 815 240 q 739 128 769 158 q 679 84 709 98 q 732 75 700 75 q 788 85 759 75 q 841 120 818 95 l 876 37 q 809 -1 851 13 q 716 -17 766 -17 q 638 -4 677 -17 q 573 33 598 8 q 481 -6 531 3 q 387 -17 431 -17 q 251 8 311 -17 q 151 82 191 34 q 89 197 111 130 q 68 347 68 265 q 145 615 68 520 q 373 711 222 709 l 373 614 m 469 355 q 500 210 469 276 q 584 108 531 144 q 639 149 613 122 q 684 214 665 176 q 716 297 704 251 q 727 396 727 343 q 720 470 727 433 q 697 534 712 506 q 659 580 682 563 q 604 598 636 598 q 536 577 562 598 q 495 522 509 556 q 475 444 480 488 q 469 355 469 400 "},"{":{"x_min":79.171875,"x_max":440.3125,"ha":481,"o":"m 190 155 q 161 252 190 226 q 79 278 131 278 l 79 375 q 161 402 131 375 q 190 491 190 430 l 190 828 q 222 933 190 893 q 322 974 255 974 l 440 974 l 440 877 l 370 877 q 316 858 333 877 q 298 794 298 839 l 298 465 q 269 372 298 404 q 201 333 240 340 l 201 325 q 268 282 238 319 q 298 187 298 245 l 298 -140 q 315 -202 298 -183 q 372 -222 331 -222 l 440 -222 l 440 -319 l 322 -319 q 225 -282 259 -319 q 190 -174 190 -245 l 190 155 "},"ҿ":{"x_min":11.109375,"x_max":788.953125,"ha":857,"o":"m 765 55 q 683 10 730 27 q 580 -13 636 -6 l 561 -249 l 488 -249 l 462 -11 q 280 98 338 7 q 219 333 222 189 l 202 333 q 116 346 152 333 q 56 382 80 360 q 22 435 33 404 q 11 500 11 465 q 25 572 11 545 q 68 630 38 600 l 176 630 q 129 581 148 610 q 111 507 111 552 q 115 477 111 492 q 131 451 120 463 q 161 432 143 439 q 208 424 180 424 q 223 425 218 424 q 317 637 240 564 q 525 711 394 711 q 619 700 572 711 q 704 660 666 690 q 765 578 741 631 q 788 436 788 524 q 780 335 788 390 l 334 335 q 347 227 334 274 q 386 146 359 180 q 454 96 412 113 q 558 79 497 79 q 652 95 605 79 q 723 134 700 112 l 765 55 m 526 614 q 395 570 444 614 q 336 423 345 527 l 680 423 q 640 571 680 528 q 526 614 600 614 "},"#":{"x_min":38.890625,"x_max":676.4375,"ha":757,"o":"m 388 313 l 243 313 l 188 81 l 93 81 l 147 313 l 38 313 l 58 402 l 168 402 l 211 584 l 108 584 l 127 673 l 231 673 l 284 892 l 380 892 l 327 673 l 473 673 l 526 892 l 622 892 l 569 673 l 676 673 l 654 584 l 548 584 l 505 402 l 607 402 l 584 313 l 484 313 l 430 81 l 334 81 l 388 313 m 263 402 l 409 402 l 452 584 l 306 584 l 263 402 "},"Ӄ":{"x_min":118.0625,"x_max":755.609375,"ha":833,"o":"m 612 98 q 593 259 612 193 q 536 368 575 326 q 438 430 497 411 q 298 450 379 450 l 233 450 l 233 0 l 118 0 l 118 972 l 233 972 l 233 519 l 295 539 l 622 972 l 755 972 l 444 575 l 365 522 l 452 522 q 578 475 526 505 q 663 395 630 444 q 712 274 697 345 q 727 102 727 202 l 727 77 q 709 -92 727 -22 q 654 -208 690 -163 q 569 -272 619 -252 q 456 -293 519 -293 q 438 -293 447 -293 q 418 -291 429 -293 l 418 -190 q 510 -174 473 -190 q 570 -125 547 -159 q 602 -36 593 -91 q 612 98 612 18 "},"Џ":{"x_min":118.0625,"x_max":797.28125,"ha":915,"o":"m 118 0 l 118 972 l 233 972 l 233 103 l 682 103 l 682 972 l 797 972 l 797 0 l 516 0 l 495 -249 l 423 -249 l 395 0 l 118 0 "},")":{"x_min":2.78125,"x_max":305.578125,"ha":389,"o":"m 73 989 q 181 842 137 922 q 253 678 226 762 q 293 508 280 594 q 305 345 305 423 q 293 184 305 269 q 252 14 280 99 q 179 -153 225 -71 q 69 -306 134 -235 l 2 -257 q 95 -110 58 -186 q 154 44 133 -33 q 185 198 176 121 q 194 345 194 274 q 183 490 194 412 q 149 647 172 567 q 90 801 126 726 q 2 937 54 876 l 73 989 "},"э":{"x_min":54.171875,"x_max":577.828125,"ha":646,"o":"m 168 396 l 462 396 q 404 554 455 494 q 261 614 354 614 q 161 598 204 614 q 93 565 119 583 l 54 650 q 152 695 97 679 q 281 711 208 711 q 506 615 436 711 q 577 347 577 519 q 495 76 577 169 q 268 -17 413 -17 q 147 -6 202 -17 q 55 25 93 4 l 87 119 q 165 90 119 100 q 256 80 212 80 q 463 304 451 78 l 168 304 l 168 396 "},"Ӷ":{"x_min":118.0625,"x_max":638.9375,"ha":614,"o":"m 638 869 l 233 869 l 233 103 l 361 103 l 361 -179 l 280 -179 l 259 0 l 118 0 l 118 972 l 638 972 l 638 869 "},"Ѵ":{"x_min":-2.78125,"x_max":912.578125,"ha":831,"o":"m 422 -15 l 370 -15 l -2 972 l 122 972 l 369 304 l 402 157 l 405 157 l 427 307 q 482 491 454 398 q 540 683 511 583 q 600 852 572 791 q 658 941 629 912 q 718 975 687 969 q 784 982 748 982 q 861 974 833 982 q 912 951 888 966 l 879 854 q 827 874 851 869 q 783 879 802 879 q 718 842 744 879 q 663 722 691 806 l 422 -15 "},"ӫ":{"x_min":68.0625,"x_max":676.4375,"ha":745,"o":"m 68 347 q 146 617 68 523 q 372 711 225 711 q 507 685 450 711 q 602 611 565 659 q 658 496 640 563 q 676 347 676 428 q 597 76 676 170 q 372 -17 519 -17 q 236 8 294 -17 q 141 82 179 34 q 86 197 104 130 q 68 347 68 265 m 561 390 q 500 561 550 508 q 372 614 451 614 q 303 602 336 614 q 245 565 270 591 q 202 495 219 538 q 183 390 186 452 l 561 390 m 183 301 q 243 136 190 192 q 372 80 295 80 q 439 91 406 80 q 497 127 472 102 q 540 194 523 152 q 561 301 556 237 l 183 301 m 166 881 q 185 932 166 913 q 234 952 203 952 q 283 932 264 952 q 302 881 302 913 q 283 832 302 851 q 234 813 264 813 q 185 832 203 813 q 166 881 166 851 m 433 881 q 451 932 433 913 q 501 952 470 952 q 551 932 533 952 q 570 881 570 913 q 551 832 570 851 q 501 813 533 813 q 451 832 470 813 q 433 881 433 851 "},"Ә":{"x_min":73.609375,"x_max":809.78125,"ha":888,"o":"m 201 447 q 197 410 198 427 q 195 373 195 392 q 209 263 195 316 q 250 170 222 210 q 321 105 277 130 q 426 80 365 80 q 624 172 555 80 q 694 447 693 264 l 201 447 m 694 544 q 610 803 682 721 q 395 886 538 886 q 331 880 363 886 q 271 866 300 874 q 219 848 243 858 q 180 829 195 838 l 151 922 q 262 968 193 947 q 418 989 331 989 q 584 960 511 989 q 707 871 657 932 q 783 715 757 811 q 809 486 809 619 q 713 114 809 245 q 425 -17 618 -17 q 272 11 338 -17 q 162 92 206 39 q 95 219 118 144 q 73 387 73 294 q 77 462 73 423 q 87 544 80 502 l 694 544 "},"ш":{"x_min":106.953125,"x_max":915.34375,"ha":1022,"o":"m 106 0 l 106 695 l 218 695 l 218 97 l 455 97 l 455 695 l 566 695 l 566 97 l 804 97 l 804 695 l 915 695 l 915 0 l 106 0 "},"Я":{"x_min":36.109375,"x_max":672.28125,"ha":790,"o":"m 672 0 l 556 0 l 556 423 l 413 393 l 172 0 l 36 0 l 252 345 l 337 405 q 245 439 287 416 q 171 497 202 462 q 122 580 140 533 q 105 688 105 627 q 134 829 105 773 q 211 919 162 885 q 327 968 261 953 q 466 983 393 983 q 567 978 513 983 q 672 962 620 974 l 672 0 m 461 883 q 373 873 415 883 q 299 842 331 864 q 247 783 266 820 q 227 688 227 745 q 246 598 227 635 q 297 536 265 560 q 371 501 329 512 q 462 490 413 490 l 556 490 l 556 874 q 516 880 537 878 q 461 883 495 883 "},"a":{"x_min":54.171875,"x_max":597.265625,"ha":689,"o":"m 95 644 q 218 690 148 675 q 365 706 288 706 q 481 686 437 706 q 547 635 525 667 q 578 566 570 604 q 586 491 586 529 q 581 329 586 408 q 577 179 577 250 q 581 81 577 127 q 597 -3 586 35 l 515 -3 l 486 94 l 479 94 q 447 56 466 75 q 402 23 429 37 q 341 -1 376 8 q 262 -11 306 -11 q 179 2 218 -11 q 113 42 141 16 q 70 104 86 68 q 54 186 54 140 q 79 288 54 247 q 149 353 104 329 q 257 388 194 378 q 397 399 320 399 q 435 399 416 399 q 473 396 454 399 q 477 471 477 437 q 447 578 477 547 q 336 609 416 609 q 285 605 312 609 q 229 595 258 602 q 175 580 201 589 q 130 561 150 571 l 95 644 m 293 86 q 362 96 331 86 q 415 122 393 106 q 452 158 437 138 q 473 195 466 177 l 473 311 q 434 313 454 312 q 394 314 413 314 q 310 309 351 314 q 238 291 269 304 q 188 254 206 277 q 169 197 169 231 q 204 117 169 148 q 293 86 238 86 "},"=":{"x_min":55.5625,"x_max":644.5,"ha":701,"o":"m 55 635 l 644 635 l 644 535 l 55 535 l 55 635 m 55 404 l 644 404 l 644 304 l 55 304 l 55 404 "},"Ћ":{"x_min":25,"x_max":947.296875,"ha":1042,"o":"m 443 0 l 327 0 l 327 869 l 25 869 l 25 972 l 745 972 l 745 869 l 443 869 l 443 548 q 542 590 480 569 q 682 611 604 611 q 789 597 740 611 q 873 553 838 584 q 927 469 908 522 q 947 338 947 416 l 947 0 l 832 0 l 832 317 q 659 508 832 508 q 536 490 593 508 q 443 444 479 473 l 443 0 "},"˚":{"x_min":83.34375,"x_max":354.1875,"ha":438,"o":"m 83 892 q 120 985 83 951 q 218 1019 156 1019 q 315 988 276 1019 q 354 892 354 957 q 315 803 354 838 q 218 768 276 768 q 121 800 159 768 q 83 892 83 833 m 158 892 q 176 850 158 865 q 218 835 194 835 q 261 848 244 835 q 279 892 279 862 q 260 937 279 923 q 218 952 241 952 q 176 938 194 952 q 158 892 158 924 "},"д":{"x_min":6.9375,"x_max":720.890625,"ha":751,"o":"m 720 -176 l 645 -176 l 625 0 l 102 0 l 81 -176 l 6 -176 l 6 97 l 88 97 q 118 151 100 112 q 153 263 136 191 q 184 441 170 334 q 200 695 197 547 l 619 695 l 619 97 l 720 97 l 720 -176 m 508 97 l 508 598 l 300 598 q 290 470 297 539 q 271 332 283 401 q 241 202 259 264 q 200 97 223 141 l 508 97 "},"ӥ":{"x_min":106.953125,"x_max":651.4375,"ha":758,"o":"m 540 411 l 544 497 l 540 497 l 483 408 l 170 0 l 106 0 l 106 695 l 218 695 l 218 271 l 213 189 l 219 189 l 273 275 l 586 695 l 651 695 l 651 0 l 540 0 l 540 411 m 189 881 q 208 932 189 913 q 257 952 226 952 q 306 932 287 952 q 325 881 325 913 q 306 832 325 851 q 257 813 287 813 q 208 832 226 813 q 189 881 189 851 m 456 881 q 474 932 456 913 q 524 952 493 952 q 574 932 556 952 q 593 881 593 913 q 574 832 593 851 q 524 813 556 813 q 474 832 493 813 q 456 881 456 851 "},"Ӣ":{"x_min":118.0625,"x_max":827.84375,"ha":946,"o":"m 712 658 l 720 769 l 715 769 l 655 655 l 186 0 l 118 0 l 118 972 l 233 972 l 233 305 l 223 195 l 229 195 l 290 309 l 759 972 l 827 972 l 827 0 l 712 0 l 712 658 m 262 1170 l 701 1170 l 701 1085 l 262 1085 l 262 1170 "},"Z":{"x_min":52.78125,"x_max":705.609375,"ha":757,"o":"m 52 104 l 543 813 l 601 869 l 52 869 l 52 972 l 705 972 l 705 867 l 212 154 l 154 103 l 705 103 l 705 0 l 52 0 l 52 104 "},"u":{"x_min":95.84375,"x_max":657,"ha":749,"o":"m 206 695 l 206 298 q 213 203 206 244 q 234 134 219 162 q 276 93 250 107 q 343 80 302 80 q 409 91 380 80 q 461 124 438 103 q 502 172 484 145 q 530 230 519 199 l 530 695 l 641 695 l 641 197 q 645 93 641 147 q 657 0 648 40 l 580 0 l 552 109 l 545 109 q 459 19 513 55 q 322 -17 405 -17 q 224 -3 266 -17 q 153 42 181 9 q 110 132 125 76 q 95 275 95 188 l 95 695 l 206 695 "},"k":{"x_min":106.953125,"x_max":651.4375,"ha":665,"o":"m 281 313 l 218 313 l 218 0 l 106 0 l 106 972 l 218 972 l 218 381 l 275 400 l 490 695 l 619 695 l 406 415 l 350 369 l 419 314 l 651 0 l 513 0 l 281 313 "},"З":{"x_min":61.109375,"x_max":673.671875,"ha":751,"o":"m 193 460 l 193 557 l 215 557 q 245 557 227 557 q 282 558 263 557 q 318 560 301 559 q 347 563 336 561 q 415 582 383 569 q 470 616 447 595 q 508 665 494 637 q 522 726 522 693 q 506 802 522 772 q 464 851 491 833 q 402 878 437 870 q 326 886 366 886 q 198 875 251 886 q 113 850 145 865 l 83 942 q 183 973 111 957 q 345 989 255 989 q 454 977 401 989 q 550 938 508 965 q 618 864 593 911 q 644 750 644 818 q 598 617 644 680 q 461 526 552 554 l 461 520 q 616 447 559 507 q 673 287 673 387 q 642 150 673 208 q 560 55 611 92 q 443 0 509 17 q 309 -17 377 -17 q 159 -6 218 -17 q 61 19 100 3 l 90 122 q 179 96 122 107 q 319 86 237 86 q 404 97 362 86 q 478 133 445 109 q 531 194 511 158 q 551 280 551 230 q 490 409 551 368 q 330 457 429 450 q 299 459 313 458 q 269 460 284 460 l 193 460 "},"Ҷ":{"x_min":104.171875,"x_max":850.0625,"ha":888,"o":"m 607 419 q 508 377 569 398 q 368 357 447 357 q 261 370 309 357 q 177 414 212 383 q 123 498 143 445 q 104 629 104 551 l 104 972 l 219 972 l 219 650 q 391 460 219 460 q 513 477 456 460 q 607 523 570 494 l 607 972 l 722 972 l 722 103 l 850 103 l 850 -179 l 769 -179 l 748 0 l 607 0 l 607 419 "},"B":{"x_min":118.0625,"x_max":733.390625,"ha":811,"o":"m 704 749 q 693 678 704 714 q 659 611 682 642 q 602 556 637 580 q 520 520 568 532 l 520 514 q 600 491 562 507 q 668 445 638 474 q 715 374 697 416 q 733 276 733 333 q 702 146 733 201 q 620 56 670 91 q 504 5 569 22 q 370 -11 438 -11 q 315 -11 347 -11 q 248 -8 283 -11 q 179 -3 213 -6 q 118 7 144 0 l 118 963 q 237 977 169 971 q 386 983 305 983 q 496 973 440 983 q 598 939 552 964 q 674 867 644 913 q 704 749 704 821 m 381 89 q 468 99 426 89 q 541 132 509 109 q 592 188 573 155 q 611 268 611 222 q 588 359 611 324 q 528 413 565 394 q 445 440 491 433 q 354 447 400 447 l 233 447 l 233 98 q 261 94 243 95 q 300 91 279 93 q 343 89 320 90 q 381 89 365 89 m 305 544 q 362 545 329 544 q 418 549 395 546 q 480 576 451 560 q 532 614 509 592 q 568 664 555 635 q 581 726 581 692 q 564 801 581 771 q 518 849 547 831 q 451 875 488 867 q 375 883 413 883 q 290 880 329 883 q 233 874 252 878 l 233 544 l 305 544 "},"…":{"x_min":98.625,"x_max":965.359375,"ha":1054,"o":"m 804 63 q 825 122 804 100 q 883 144 847 144 q 943 122 920 144 q 965 63 965 100 q 943 5 965 27 q 883 -17 920 -17 q 825 5 847 -17 q 804 63 804 27 m 451 63 q 472 122 451 100 q 530 144 494 144 q 590 122 568 144 q 612 63 612 100 q 590 5 612 27 q 530 -17 568 -17 q 472 5 494 -17 q 451 63 451 27 m 98 63 q 120 122 98 100 q 177 144 141 144 q 237 122 215 144 q 259 63 259 100 q 237 5 259 27 q 177 -17 215 -17 q 120 5 141 -17 q 98 63 98 27 "},"В":{"x_min":118.0625,"x_max":733.390625,"ha":811,"o":"m 704 749 q 693 678 704 714 q 659 611 682 642 q 602 556 637 580 q 520 520 568 532 l 520 514 q 600 491 562 507 q 668 445 638 474 q 715 374 697 416 q 733 276 733 333 q 702 146 733 201 q 620 56 670 91 q 504 5 569 22 q 370 -11 438 -11 q 315 -11 347 -11 q 248 -8 283 -11 q 179 -3 213 -6 q 118 7 144 0 l 118 963 q 237 977 169 971 q 386 983 305 983 q 496 973 440 983 q 598 939 552 964 q 674 867 644 913 q 704 749 704 821 m 381 89 q 468 99 426 89 q 541 132 509 109 q 592 188 573 155 q 611 268 611 222 q 588 359 611 324 q 528 413 565 394 q 445 440 491 433 q 354 447 400 447 l 233 447 l 233 98 q 261 94 243 95 q 300 91 279 93 q 343 89 320 90 q 381 89 365 89 m 305 544 q 362 545 329 544 q 418 549 395 546 q 480 576 451 560 q 532 614 509 592 q 568 664 555 635 q 581 726 581 692 q 564 801 581 771 q 518 849 547 831 q 451 875 488 867 q 375 883 413 883 q 290 880 329 883 q 233 874 252 878 l 233 544 l 305 544 "},"І":{"x_min":144.453125,"x_max":259.75,"ha":404,"o":"m 144 972 l 259 972 l 259 0 l 144 0 l 144 972 "},"H":{"x_min":118.0625,"x_max":815.34375,"ha":933,"o":"m 700 445 l 233 445 l 233 0 l 118 0 l 118 972 l 233 972 l 233 548 l 700 548 l 700 972 l 815 972 l 815 0 l 700 0 l 700 445 "},"ӎ":{"x_min":106.953125,"x_max":927.859375,"ha":918,"o":"m 680 412 l 688 544 l 682 544 l 632 437 l 463 165 l 425 165 l 250 437 l 204 544 l 198 544 l 209 413 l 209 0 l 106 0 l 106 695 l 216 695 l 411 383 l 451 302 l 454 302 l 495 386 l 677 695 l 788 695 l 788 97 l 927 97 l 927 66 l 801 -176 l 726 -176 l 788 0 l 680 0 l 680 412 "},"Ғ":{"x_min":13.890625,"x_max":668.109375,"ha":670,"o":"m 668 869 l 262 869 l 262 535 l 561 535 l 561 443 l 262 443 l 262 0 l 147 0 l 147 443 l 13 443 l 13 535 l 147 535 l 147 972 l 668 972 l 668 869 "},"U":{"x_min":118.0625,"x_max":787.5625,"ha":906,"o":"m 676 972 l 787 972 l 787 323 q 764 171 787 235 q 699 66 741 107 q 597 6 657 25 q 465 -13 537 -13 q 205 64 293 -13 q 118 300 118 142 l 118 972 l 233 972 l 233 355 q 247 230 233 281 q 291 149 262 180 q 364 103 320 117 q 466 90 408 90 q 627 151 579 90 q 676 355 676 213 l 676 972 "},"F":{"x_min":118.0625,"x_max":647.28125,"ha":718,"o":"m 118 972 l 647 972 l 647 869 l 233 869 l 233 537 l 619 537 l 619 434 l 233 434 l 233 0 l 118 0 l 118 972 "},"ҵ":{"x_min":2.78125,"x_max":844.515625,"ha":876,"o":"m 844 -176 l 769 -176 l 748 0 l 220 0 l 220 598 l 2 598 l 2 695 l 540 695 l 540 598 l 331 598 l 331 97 l 633 97 l 633 695 l 744 695 l 744 97 l 844 97 l 844 -176 "},"Ӹ":{"x_min":118.0625,"x_max":950.078125,"ha":1068,"o":"m 834 972 l 950 972 l 950 0 l 834 0 l 834 972 m 118 972 l 233 972 l 233 593 q 254 597 240 595 q 284 600 268 599 q 318 603 301 602 q 352 605 336 605 q 479 591 418 605 q 588 545 541 578 q 664 455 636 512 q 693 313 693 399 q 666 168 693 230 q 592 67 640 106 q 477 8 544 27 q 330 -11 411 -11 q 285 -10 311 -11 q 231 -7 259 -9 q 173 -1 202 -5 q 118 9 144 2 l 118 972 m 340 89 q 505 143 440 89 q 570 305 570 197 q 551 402 570 363 q 499 464 531 441 q 424 495 466 486 q 334 505 381 505 q 279 500 309 505 q 233 492 248 496 l 233 97 q 340 89 270 89 m 318 1102 q 339 1149 318 1131 q 393 1168 360 1168 q 445 1149 425 1168 q 465 1102 465 1131 q 445 1057 465 1075 q 393 1039 425 1039 q 339 1057 360 1039 q 318 1102 318 1075 m 585 1102 q 605 1149 585 1131 q 657 1168 625 1168 q 711 1149 690 1168 q 732 1102 732 1131 q 711 1057 732 1075 q 657 1039 690 1039 q 605 1057 625 1039 q 585 1102 585 1075 "},"ӭ":{"x_min":54.171875,"x_max":577.828125,"ha":646,"o":"m 168 396 l 462 396 q 404 554 455 494 q 261 614 354 614 q 161 598 204 614 q 93 565 119 583 l 54 650 q 152 695 97 679 q 281 711 208 711 q 506 615 436 711 q 577 347 577 519 q 495 76 577 169 q 268 -17 413 -17 q 147 -6 202 -17 q 55 25 93 4 l 87 119 q 165 90 119 100 q 256 80 212 80 q 463 304 451 78 l 168 304 l 168 396 m 79 881 q 98 932 79 913 q 147 952 116 952 q 196 932 177 952 q 215 881 215 913 q 196 832 215 851 q 147 813 177 813 q 98 832 116 813 q 79 881 79 851 m 346 881 q 364 932 346 913 q 414 952 383 952 q 464 932 446 952 q 483 881 483 913 q 464 832 483 851 q 414 813 446 813 q 364 832 383 813 q 346 881 346 851 "},"*":{"x_min":55.5625,"x_max":430.59375,"ha":488,"o":"m 180 993 l 215 934 l 240 856 l 269 936 l 302 991 l 369 955 l 333 895 l 269 829 l 363 846 l 430 846 l 430 768 l 366 768 l 277 784 l 341 718 l 373 663 l 308 625 l 272 683 l 240 767 l 213 687 l 179 629 l 109 667 l 147 726 l 205 784 l 125 768 l 55 768 l 55 846 l 125 846 l 211 829 l 148 890 l 112 954 l 180 993 "},"†":{"x_min":55.5625,"x_max":619.5,"ha":675,"o":"m 55 697 l 237 697 l 297 681 l 281 747 l 281 972 l 393 972 l 393 747 l 377 681 l 437 697 l 619 697 l 619 597 l 434 597 l 377 612 l 393 553 l 393 0 l 372 -278 l 302 -278 l 281 1 l 281 553 l 297 612 l 237 597 l 55 597 l 55 697 "},"Ќ":{"x_min":118.0625,"x_max":798.671875,"ha":847,"o":"m 298 450 l 233 450 l 233 0 l 118 0 l 118 972 l 233 972 l 233 519 l 295 538 l 622 972 l 755 972 l 430 553 l 372 507 l 443 452 l 798 0 l 652 0 l 298 450 m 473 1209 l 631 1209 l 631 1179 l 405 1045 l 309 1045 l 473 1209 "},"0":{"x_min":59.734375,"x_max":697.28125,"ha":757,"o":"m 59 486 q 140 862 59 736 q 377 989 222 989 q 621 864 545 989 q 697 486 697 740 q 616 109 697 235 q 377 -17 534 -17 q 136 115 212 -17 q 59 486 59 247 m 175 486 q 186 321 175 395 q 223 193 198 246 q 286 109 248 139 q 377 80 325 80 q 532 178 483 80 q 581 486 581 276 q 571 650 581 574 q 536 779 561 725 q 473 862 512 833 q 377 892 434 892 q 224 793 273 892 q 175 486 175 694 "},"”":{"x_min":55.5625,"x_max":418.296875,"ha":472,"o":"m 258 915 q 278 964 258 946 q 330 983 298 983 q 393 958 369 983 q 418 885 418 934 q 405 806 418 839 q 373 750 391 773 q 333 713 354 727 q 297 694 312 699 l 262 741 q 312 783 294 757 q 330 848 330 808 q 315 847 325 847 q 273 865 289 847 q 258 915 258 884 m 55 915 q 75 964 55 946 q 127 983 95 983 q 190 958 166 983 q 215 885 215 934 q 202 806 215 839 q 170 750 188 773 q 130 713 151 727 q 94 694 109 699 l 59 741 q 109 783 91 757 q 127 848 127 808 q 112 847 122 847 q 70 865 86 847 q 55 915 55 884 "},"Ӕ":{"x_min":-30.5625,"x_max":1084.8125,"ha":1175,"o":"m 543 832 l 495 689 l 311 372 l 548 372 l 548 832 l 543 832 m 548 275 l 251 275 l 95 0 l -30 0 l 545 972 l 1077 972 l 1077 869 l 663 869 l 663 551 l 1043 551 l 1043 448 l 663 448 l 663 103 l 1084 103 l 1084 0 l 548 0 l 548 275 "},"]":{"x_min":52.78125,"x_max":305.578125,"ha":422,"o":"m 305 -319 l 52 -319 l 52 -222 l 197 -222 l 197 875 l 52 875 l 52 972 l 305 972 l 305 -319 "},"А":{"x_min":11.109375,"x_max":801.453125,"ha":813,"o":"m 580 270 l 222 270 l 125 0 l 11 0 l 379 988 l 431 988 l 801 0 l 680 0 l 580 270 m 259 370 l 545 370 l 437 665 l 402 812 l 401 812 l 366 662 l 259 370 "},"Ы":{"x_min":118.0625,"x_max":950.078125,"ha":1068,"o":"m 834 972 l 950 972 l 950 0 l 834 0 l 834 972 m 118 972 l 233 972 l 233 593 q 254 597 240 595 q 284 600 268 599 q 318 603 301 602 q 352 605 336 605 q 479 591 418 605 q 588 545 541 578 q 664 455 636 512 q 693 313 693 399 q 666 168 693 230 q 592 67 640 106 q 477 8 544 27 q 330 -11 411 -11 q 285 -10 311 -11 q 231 -7 259 -9 q 173 -1 202 -5 q 118 9 144 2 l 118 972 m 340 89 q 505 143 440 89 q 570 305 570 197 q 551 402 570 363 q 499 464 531 441 q 424 495 466 486 q 334 505 381 505 q 279 500 309 505 q 233 492 248 496 l 233 97 q 340 89 270 89 "},"Ҙ":{"x_min":61.109375,"x_max":673.671875,"ha":751,"o":"m 193 460 l 193 557 l 215 557 q 245 557 227 557 q 282 558 263 557 q 318 560 301 559 q 347 563 336 561 q 415 582 383 569 q 470 616 447 595 q 508 665 494 637 q 522 726 522 693 q 506 802 522 772 q 464 851 491 833 q 402 878 437 870 q 326 886 366 886 q 198 875 251 886 q 113 850 145 865 l 83 942 q 183 973 111 957 q 345 989 255 989 q 454 977 401 989 q 550 938 508 965 q 618 864 593 911 q 644 750 644 818 q 598 617 644 680 q 461 526 552 554 l 461 520 q 616 447 559 507 q 673 287 673 387 q 647 162 673 215 q 579 71 622 108 q 481 13 537 34 q 363 -13 425 -8 l 344 -249 l 272 -249 l 245 -15 q 137 -2 181 -12 q 61 20 93 7 l 90 123 q 179 98 122 108 q 319 88 237 88 q 404 99 362 88 q 478 135 445 111 q 531 194 511 158 q 551 280 551 230 q 490 409 551 368 q 330 457 429 450 q 299 459 313 458 q 269 460 284 460 l 193 460 "},"8":{"x_min":94.453125,"x_max":662.546875,"ha":757,"o":"m 94 231 q 140 383 94 319 q 283 501 186 448 q 218 545 248 522 q 165 597 188 567 q 129 662 143 626 q 116 745 116 698 q 135 844 116 800 q 189 920 154 888 q 274 970 225 952 q 386 989 323 989 q 491 972 444 989 q 571 926 538 955 q 622 857 604 897 q 640 768 640 816 q 604 628 640 688 q 484 509 568 567 q 553 463 520 488 q 610 408 586 438 q 648 339 634 377 q 662 252 662 301 q 643 143 662 192 q 586 58 623 94 q 494 3 548 23 q 370 -17 440 -17 q 252 2 304 -17 q 165 55 201 21 q 112 133 130 88 q 94 231 94 178 m 554 245 q 537 318 554 287 q 493 375 520 349 q 431 422 466 401 q 359 462 397 442 q 238 356 275 415 q 202 245 202 298 q 213 181 202 212 q 247 128 225 150 q 302 93 269 106 q 377 80 334 80 q 444 90 412 80 q 500 121 476 100 q 539 172 525 141 q 554 245 554 203 m 225 748 q 240 679 225 709 q 281 626 255 650 q 340 582 306 602 q 409 544 373 562 q 502 640 472 593 q 531 744 531 687 q 488 853 531 815 q 383 892 444 892 q 316 879 345 892 q 266 847 287 866 q 235 802 245 828 q 225 748 225 776 "},"Ӝ":{"x_min":-1.390625,"x_max":1120.921875,"ha":1120,"o":"m 497 972 l 608 972 l 608 519 l 668 539 l 950 972 l 1077 972 l 797 550 l 741 505 l 811 448 l 1120 0 l 979 0 l 672 450 l 608 450 l 608 0 l 497 0 l 497 466 l 438 447 l 131 0 l -1 0 l 305 434 l 372 487 l 308 535 l 18 972 l 152 972 l 434 536 l 497 536 l 497 972 m 347 1102 q 368 1149 347 1131 q 422 1168 389 1168 q 474 1149 454 1168 q 494 1102 494 1131 q 474 1057 494 1075 q 422 1039 454 1039 q 368 1057 389 1039 q 347 1102 347 1075 m 614 1102 q 634 1149 614 1131 q 686 1168 654 1168 q 740 1149 719 1168 q 761 1102 761 1131 q 740 1057 761 1075 q 686 1039 719 1039 q 634 1057 654 1039 q 614 1102 614 1075 "},"R":{"x_min":118.0625,"x_max":772.28125,"ha":826,"o":"m 118 962 q 239 977 170 971 q 365 983 308 983 q 486 969 429 983 q 588 923 544 955 q 658 839 632 891 q 684 714 684 788 q 622 530 684 600 q 463 435 559 459 l 530 384 l 772 0 l 637 0 l 369 419 l 233 439 l 233 0 l 118 0 l 118 962 m 368 883 q 330 883 350 883 q 293 881 311 883 q 259 878 275 880 q 233 874 243 877 l 233 516 l 341 516 q 500 563 437 516 q 562 710 562 610 q 511 834 562 785 q 368 883 459 883 "},"o":{"x_min":68.0625,"x_max":676.4375,"ha":745,"o":"m 68 347 q 146 617 68 523 q 372 711 225 711 q 507 685 450 711 q 602 611 565 659 q 658 496 640 563 q 676 347 676 428 q 597 76 676 170 q 372 -17 519 -17 q 236 8 294 -17 q 141 82 179 34 q 86 197 104 130 q 68 347 68 265 m 183 347 q 193 245 183 294 q 226 160 204 196 q 284 102 248 124 q 372 80 320 80 q 561 347 561 78 q 550 449 561 401 q 518 534 540 498 q 459 592 495 570 q 372 614 423 614 q 183 347 183 615 "},"5":{"x_min":106.953125,"x_max":627.828125,"ha":757,"o":"m 295 80 q 454 135 391 80 q 516 297 516 191 q 454 448 516 398 q 284 499 393 499 l 168 492 l 168 972 l 601 972 l 601 869 l 272 869 l 272 593 l 331 596 q 548 519 469 594 q 627 304 627 444 q 601 165 627 226 q 529 65 575 105 q 423 3 484 24 q 293 -17 362 -17 q 187 -10 230 -17 q 106 10 144 -3 l 136 105 q 204 86 168 92 q 295 80 241 80 "},"Ӊ":{"x_min":118.0625,"x_max":959.796875,"ha":946,"o":"m 700 445 l 233 445 l 233 0 l 118 0 l 118 972 l 233 972 l 233 548 l 700 548 l 700 972 l 815 972 l 815 97 l 959 97 l 959 66 l 833 -181 l 758 -181 l 820 0 l 700 0 l 700 445 "},"Ң":{"x_min":118.0625,"x_max":943.125,"ha":982,"o":"m 700 445 l 233 445 l 233 0 l 118 0 l 118 972 l 233 972 l 233 548 l 700 548 l 700 972 l 815 972 l 815 103 l 943 103 l 943 -179 l 862 -179 l 841 0 l 700 0 l 700 445 "},"Ѕ":{"x_min":63.890625,"x_max":672.28125,"ha":738,"o":"m 556 247 q 522 342 556 305 q 435 407 487 379 q 322 460 383 435 q 209 521 261 486 q 122 608 156 556 q 87 741 87 661 q 166 922 87 855 q 391 989 245 989 q 545 976 476 989 q 654 945 615 964 l 619 842 q 525 871 587 857 q 386 886 463 886 q 248 845 294 886 q 202 748 202 804 q 237 658 202 694 q 324 593 272 622 q 437 537 376 565 q 550 472 498 509 q 637 384 602 435 q 672 256 672 333 q 650 144 672 194 q 584 58 627 94 q 480 2 541 21 q 341 -17 419 -17 q 169 -1 237 -17 q 63 34 101 14 l 102 137 q 197 102 134 119 q 337 86 259 86 q 423 95 383 86 q 493 124 463 104 q 539 174 522 144 q 556 247 556 205 "},"ҭ":{"x_min":2.78125,"x_max":550.046875,"ha":553,"o":"m 220 598 l 2 598 l 2 695 l 550 695 l 550 598 l 331 598 l 331 97 l 434 97 l 434 -176 l 359 -176 l 338 0 l 220 0 l 220 598 "},",":{"x_min":58.34375,"x_max":244.46875,"ha":313,"o":"m 68 59 q 90 114 68 93 q 147 135 112 135 q 217 104 190 135 q 244 15 244 73 q 230 -72 244 -34 q 194 -136 216 -109 q 145 -181 172 -163 q 93 -207 119 -198 l 58 -152 q 132 -92 108 -133 q 156 -9 156 -51 q 133 -14 144 -14 q 86 4 105 -14 q 68 59 68 23 "},"d":{"x_min":68.0625,"x_max":654.21875,"ha":747,"o":"m 640 238 q 641 110 640 167 q 654 -3 643 52 l 579 -3 l 551 95 l 545 95 q 465 14 518 46 q 341 -17 412 -17 q 135 70 202 -17 q 68 344 68 158 q 152 614 68 522 q 383 707 236 707 q 464 701 434 707 q 529 683 494 695 l 529 972 l 640 972 l 640 238 m 359 80 q 472 116 430 80 q 529 228 513 153 l 529 573 q 472 601 504 593 q 387 610 440 610 q 237 546 291 610 q 183 344 183 483 q 192 238 183 287 q 222 155 201 189 q 277 100 243 120 q 359 80 311 80 "},"ғ":{"x_min":0,"x_max":530.59375,"ha":535,"o":"m 530 598 l 236 598 l 236 388 l 470 388 l 470 305 l 236 305 l 236 0 l 125 0 l 125 305 l 0 305 l 0 388 l 125 388 l 125 695 l 530 695 l 530 598 "},"ѣ":{"x_min":1.390625,"x_max":648.65625,"ha":690,"o":"m 1 695 l 152 695 l 152 972 l 263 972 l 263 695 l 486 695 l 486 603 l 263 603 l 263 429 q 327 436 297 434 q 386 439 358 439 q 508 423 458 439 q 589 379 558 407 q 634 313 620 351 q 648 232 648 275 q 572 48 648 105 q 337 -8 497 -8 q 152 0 248 -8 l 152 603 l 1 603 l 1 695 m 263 97 q 362 89 318 89 q 491 122 450 89 q 533 219 533 156 q 493 310 533 274 q 366 347 452 347 q 315 345 343 347 q 263 337 288 344 l 263 97 "},"\"":{"x_min":125.015625,"x_max":396.359375,"ha":465,"o":"m 288 972 l 396 972 l 353 704 l 288 704 l 288 972 m 125 972 l 233 972 l 190 704 l 125 704 l 125 972 "},"Ӎ":{"x_min":118.0625,"x_max":1125.09375,"ha":1113,"o":"m 865 652 l 879 798 l 872 798 l 819 665 l 566 226 l 531 226 l 263 666 l 213 798 l 206 798 l 226 654 l 226 0 l 118 0 l 118 972 l 204 972 l 508 474 l 554 366 l 556 366 l 600 477 l 890 972 l 980 972 l 980 97 l 1125 97 l 1125 66 l 998 -181 l 923 -181 l 986 0 l 865 0 l 865 652 "},"˙":{"x_min":83.34375,"x_max":240.296875,"ha":324,"o":"m 83 905 q 104 960 83 937 q 159 983 126 983 q 216 960 193 983 q 240 905 240 937 q 216 852 240 873 q 159 832 193 832 q 104 852 126 832 q 83 905 83 873 "},"„":{"x_min":55.5625,"x_max":418.296875,"ha":472,"o":"m 258 69 q 278 118 258 100 q 330 137 298 137 q 393 112 369 137 q 418 39 418 88 q 405 -39 418 -6 q 373 -95 391 -72 q 333 -132 354 -118 q 297 -152 312 -146 l 262 -104 q 312 -62 294 -88 q 330 2 330 -37 q 315 1 325 1 q 273 19 289 1 q 258 69 258 38 m 55 69 q 75 118 55 100 q 127 137 95 137 q 190 112 166 137 q 215 39 215 88 q 202 -39 215 -6 q 170 -95 188 -72 q 130 -132 151 -118 q 94 -152 109 -146 l 59 -104 q 109 -62 91 -88 q 127 2 127 -37 q 112 1 122 1 q 70 19 86 1 q 55 69 55 38 "},"ӷ":{"x_min":106.953125,"x_max":512.546875,"ha":513,"o":"m 106 695 l 512 695 l 512 598 l 218 598 l 218 97 l 320 97 l 320 -176 l 245 -176 l 225 0 l 106 0 l 106 695 "},"ч":{"x_min":68.0625,"x_max":573.65625,"ha":681,"o":"m 179 695 l 179 505 q 183 438 179 468 q 200 387 187 408 q 236 353 212 365 q 298 342 259 342 q 401 355 361 342 q 462 386 441 369 l 462 695 l 573 695 l 573 0 l 462 0 l 462 292 q 396 261 440 278 q 276 245 352 245 q 186 256 225 245 q 120 295 147 267 q 81 368 94 322 q 68 483 68 414 l 68 695 l 179 695 "},"Ӳ":{"x_min":9.71875,"x_max":766.734375,"ha":768,"o":"m 391 459 l 427 336 l 434 336 l 462 463 l 648 972 l 766 972 l 520 340 q 454 175 483 241 q 397 68 426 109 q 334 10 368 27 q 252 -7 301 -7 q 179 0 206 -7 q 129 23 152 8 l 163 120 q 215 100 191 104 q 258 96 238 96 q 323 135 297 96 q 369 252 350 175 l 9 972 l 143 972 l 391 459 m 335 1180 l 464 1180 l 464 1157 l 325 1029 l 246 1029 l 335 1180 m 560 1180 l 697 1180 l 697 1157 l 499 1029 l 418 1029 l 560 1180 "},"ҫ":{"x_min":68.0625,"x_max":580.609375,"ha":626,"o":"m 580 46 q 429 -11 519 1 l 409 -249 l 337 -249 l 311 -14 q 198 23 244 -5 q 123 99 152 52 q 81 208 94 145 q 68 347 68 272 q 145 617 68 523 q 369 711 223 711 q 482 700 436 711 q 566 671 529 690 l 534 574 q 463 603 502 592 q 380 614 425 614 q 183 347 183 614 q 193 246 183 294 q 228 161 204 198 q 292 102 252 124 q 390 80 331 80 q 479 95 440 80 q 544 131 519 111 l 580 46 "},"ҙ":{"x_min":52.78125,"x_max":544.484375,"ha":613,"o":"m 173 310 l 173 400 l 270 400 q 320 408 295 400 q 363 431 344 416 q 395 465 383 445 q 406 508 406 486 q 369 584 406 562 q 256 607 331 607 q 157 590 202 607 q 87 559 112 574 l 55 644 q 153 685 97 667 q 287 704 209 704 q 518 533 518 704 q 486 438 518 484 q 397 372 455 391 l 397 366 q 511 308 479 351 q 544 194 544 265 q 492 64 544 119 q 334 -6 440 9 l 315 -249 l 243 -249 l 216 -11 q 122 3 161 -8 q 52 31 84 15 l 84 123 q 161 95 116 105 q 259 86 206 86 q 388 115 344 86 q 433 203 433 144 q 391 281 433 253 q 254 310 350 310 l 173 310 "},"₄":{"x_min":34.71875,"x_max":526.4375,"ha":547,"o":"m 526 -5 l 411 -5 l 411 -139 l 318 -139 l 318 -5 l 34 -5 l 34 45 l 348 465 l 411 465 l 411 76 l 526 76 l 526 -5 m 318 253 l 326 321 l 323 321 l 293 258 l 184 112 l 138 69 l 208 76 l 318 76 l 318 253 "},"И":{"x_min":118.0625,"x_max":827.84375,"ha":946,"o":"m 712 658 l 720 769 l 715 769 l 655 655 l 186 0 l 118 0 l 118 972 l 233 972 l 233 305 l 223 195 l 229 195 l 290 309 l 759 972 l 827 972 l 827 0 l 712 0 l 712 658 "},"₁":{"x_min":73.609375,"x_max":476.421875,"ha":547,"o":"m 100 -54 l 247 -54 l 247 298 l 256 348 l 219 309 l 111 244 l 73 312 l 287 454 l 344 454 l 344 -54 l 476 -54 l 476 -139 l 100 -139 l 100 -54 "},"ѵ":{"x_min":13.890625,"x_max":736.171875,"ha":704,"o":"m 362 -15 l 315 -15 l 13 695 l 141 695 l 308 287 l 347 155 l 348 155 l 383 290 q 414 369 402 340 q 432 415 426 398 q 441 438 438 431 q 447 451 444 445 q 488 557 469 511 q 531 636 508 604 q 584 686 554 669 q 655 704 613 704 q 700 701 680 704 q 736 691 719 698 l 719 588 q 695 597 707 594 q 672 601 683 601 q 625 580 648 601 q 573 494 601 559 l 362 -15 "},"Љ":{"x_min":-2.78125,"x_max":1238.984375,"ha":1286,"o":"m 633 869 l 343 869 q 306 407 329 591 q 237 120 283 223 q 165 23 206 54 q 75 -7 123 -7 q 31 -3 50 -7 q -2 6 13 0 l 12 107 q 41 103 26 103 q 88 118 65 103 q 133 175 111 133 q 170 275 152 212 q 200 433 187 337 q 222 661 213 529 q 234 972 230 794 l 748 972 l 748 593 q 772 597 755 595 q 808 600 788 599 q 848 603 827 602 q 886 605 869 605 q 1016 591 952 605 q 1128 545 1079 578 q 1208 455 1177 512 q 1238 313 1238 399 q 1209 169 1238 230 q 1129 68 1180 108 q 1009 8 1077 27 q 859 -11 940 -11 q 812 -10 840 -11 q 753 -7 784 -9 q 691 -1 722 -5 q 633 9 659 2 l 633 869 m 875 89 q 968 102 925 89 q 1045 142 1012 115 q 1098 210 1079 169 q 1116 305 1116 251 q 1095 402 1116 363 q 1041 464 1075 441 q 962 495 1007 486 q 870 505 918 505 q 840 503 858 505 q 804 500 822 502 q 770 496 786 499 q 748 492 755 493 l 748 97 q 804 91 768 93 q 875 89 840 89 "},"р":{"x_min":106.953125,"x_max":683.390625,"ha":751,"o":"m 106 694 l 183 694 l 204 610 l 209 610 q 292 685 241 659 q 408 711 343 711 q 615 629 547 711 q 683 360 683 547 q 660 203 683 273 q 595 84 637 133 q 495 9 554 35 q 363 -17 436 -17 q 282 -10 312 -17 q 218 10 252 -4 l 218 -278 l 106 -278 l 106 694 m 387 614 q 275 577 316 614 q 218 465 234 540 l 218 120 q 275 90 243 100 q 359 80 306 80 q 511 151 455 80 q 568 362 568 223 q 558 465 568 419 q 527 545 548 512 q 471 595 505 577 q 387 614 437 614 "},"ӟ":{"x_min":52.78125,"x_max":544.484375,"ha":613,"o":"m 173 310 l 173 400 l 270 400 q 320 408 295 400 q 363 431 344 416 q 395 465 383 445 q 406 508 406 486 q 369 584 406 562 q 256 607 331 607 q 157 590 202 607 q 87 559 112 574 l 55 644 q 153 685 97 667 q 287 704 209 704 q 518 533 518 704 q 486 438 518 484 q 397 372 455 391 l 397 366 q 511 308 479 351 q 544 194 544 265 q 526 112 544 149 q 472 46 508 74 q 381 3 436 19 q 254 -13 326 -13 q 136 0 183 -13 q 52 30 90 11 l 84 122 q 161 93 116 103 q 259 84 206 84 q 388 113 344 84 q 433 202 433 142 q 391 281 433 252 q 254 310 350 310 l 173 310 m 82 881 q 101 932 82 913 q 150 952 119 952 q 199 932 180 952 q 218 881 218 913 q 199 832 218 851 q 150 813 180 813 q 101 832 119 813 q 82 881 82 851 m 349 881 q 367 932 349 913 q 417 952 386 952 q 467 932 449 952 q 486 881 486 913 q 467 832 486 851 q 417 813 449 813 q 367 832 386 813 q 349 881 349 851 "},"т":{"x_min":2.78125,"x_max":550.046875,"ha":553,"o":"m 550 598 l 331 598 l 331 0 l 220 0 l 220 598 l 2 598 l 2 695 l 550 695 l 550 598 "},"П":{"x_min":118.0625,"x_max":797.28125,"ha":915,"o":"m 682 869 l 233 869 l 233 0 l 118 0 l 118 972 l 797 972 l 797 0 l 682 0 l 682 869 "},"z":{"x_min":58.34375,"x_max":552.828125,"ha":621,"o":"m 58 97 l 379 539 l 437 598 l 58 598 l 58 695 l 552 695 l 552 598 l 229 151 l 172 97 l 552 97 l 552 0 l 58 0 l 58 97 "},"Ҵ":{"x_min":25,"x_max":1123.703125,"ha":1164,"o":"m 1123 -179 l 1044 -179 l 1023 0 l 327 0 l 327 869 l 25 869 l 25 972 l 695 972 l 695 869 l 443 869 l 443 103 l 880 103 l 880 972 l 995 972 l 995 103 l 1123 103 l 1123 -179 "},"ұ":{"x_min":13.890625,"x_max":658.390625,"ha":672,"o":"m 116 0 l 287 0 l 13 695 l 141 695 l 311 244 l 350 97 l 351 97 l 386 247 l 538 695 l 658 695 l 398 0 l 561 0 l 561 -83 l 398 -83 l 398 -278 l 287 -278 l 287 -83 l 116 -83 l 116 0 "},"и":{"x_min":106.953125,"x_max":651.4375,"ha":758,"o":"m 540 411 l 544 497 l 540 497 l 483 408 l 170 0 l 106 0 l 106 695 l 218 695 l 218 271 l 213 189 l 219 189 l 273 275 l 586 695 l 651 695 l 651 0 l 540 0 l 540 411 "},"~":{"x_min":43.0625,"x_max":658.390625,"ha":701,"o":"m 43 501 q 151 564 102 546 q 240 583 200 583 q 312 571 279 583 q 376 545 345 559 q 436 518 406 530 q 497 507 465 507 q 551 518 523 507 q 611 557 579 529 l 658 472 q 563 421 605 436 q 486 407 520 407 q 417 418 448 407 q 357 445 386 430 q 300 471 329 459 q 238 483 272 483 q 170 468 206 483 q 90 418 134 453 l 43 501 "},"Ӥ":{"x_min":118.0625,"x_max":827.84375,"ha":946,"o":"m 712 658 l 720 769 l 715 769 l 655 655 l 186 0 l 118 0 l 118 972 l 233 972 l 233 305 l 223 195 l 229 195 l 290 309 l 759 972 l 827 972 l 827 0 l 712 0 l 712 658 m 264 1102 q 285 1149 264 1131 q 339 1168 306 1168 q 391 1149 371 1168 q 411 1102 411 1131 q 391 1057 411 1075 q 339 1039 371 1039 q 285 1057 306 1039 q 264 1102 264 1075 m 531 1102 q 551 1149 531 1131 q 603 1168 571 1168 q 657 1149 636 1168 q 678 1102 678 1131 q 657 1057 678 1075 q 603 1039 636 1039 q 551 1057 571 1039 q 531 1102 531 1075 "},"Ӫ":{"x_min":77.78125,"x_max":872.296875,"ha":950,"o":"m 77 486 q 180 859 77 729 q 473 989 283 989 q 651 952 576 989 q 775 850 726 916 q 848 692 825 784 q 872 486 872 599 q 768 112 872 242 q 473 -17 665 -17 q 297 19 372 -17 q 174 121 223 55 q 101 279 125 187 q 77 486 77 372 m 750 544 q 663 797 738 709 q 473 886 587 886 q 376 868 423 886 q 291 810 329 851 q 229 705 254 770 q 200 544 205 639 l 750 544 m 200 441 q 286 174 211 262 q 473 86 362 86 q 573 102 525 86 q 659 160 622 119 q 721 269 697 201 q 750 441 745 337 l 200 441 m 268 1102 q 289 1149 268 1131 q 343 1168 310 1168 q 395 1149 375 1168 q 415 1102 415 1131 q 395 1057 415 1075 q 343 1039 375 1039 q 289 1057 310 1039 q 268 1102 268 1075 m 535 1102 q 555 1149 535 1131 q 607 1168 575 1168 q 661 1149 640 1168 q 682 1102 682 1131 q 661 1057 682 1075 q 607 1039 640 1039 q 555 1057 575 1039 q 535 1102 535 1075 "},"[":{"x_min":118.0625,"x_max":369.46875,"ha":422,"o":"m 118 972 l 369 972 l 369 875 l 226 875 l 226 -222 l 369 -222 l 369 -319 l 118 -319 l 118 972 "},"Ҝ":{"x_min":118.0625,"x_max":902.84375,"ha":951,"o":"m 308 450 l 233 450 l 233 0 l 118 0 l 118 972 l 233 972 l 233 519 l 308 525 l 308 701 l 400 701 l 400 535 l 431 538 l 729 972 l 861 972 l 561 554 l 504 508 l 573 452 l 902 0 l 758 0 l 436 450 l 400 450 l 400 271 l 308 271 l 308 450 "},"К":{"x_min":118.0625,"x_max":798.671875,"ha":847,"o":"m 298 450 l 233 450 l 233 0 l 118 0 l 118 972 l 233 972 l 233 519 l 295 538 l 622 972 l 755 972 l 430 553 l 372 507 l 443 452 l 798 0 l 652 0 l 298 450 "},"ѳ":{"x_min":68.0625,"x_max":676.4375,"ha":745,"o":"m 68 347 q 146 617 68 523 q 372 711 225 711 q 507 685 450 711 q 602 611 565 659 q 658 496 640 563 q 676 347 676 428 q 597 76 676 170 q 372 -17 519 -17 q 236 8 294 -17 q 141 82 179 34 q 86 197 104 130 q 68 347 68 265 m 561 390 q 500 561 550 508 q 372 614 451 614 q 303 602 336 614 q 245 565 270 591 q 202 495 219 538 q 183 390 186 452 l 561 390 m 183 301 q 243 136 190 192 q 372 80 295 80 q 439 91 406 80 q 497 127 472 102 q 540 194 523 152 q 561 301 556 237 l 183 301 "},"%":{"x_min":97.109375,"x_max":1023.703125,"ha":1074,"o":"m 97 753 q 113 859 97 815 q 158 933 130 904 q 226 975 187 962 q 312 989 266 989 q 397 976 358 989 q 465 936 437 964 q 511 863 494 908 q 527 753 527 818 q 511 642 527 687 q 465 569 494 597 q 397 529 437 541 q 312 517 358 517 q 226 529 266 517 q 158 569 187 541 q 113 642 130 597 q 97 753 97 687 m 199 753 q 229 633 199 669 q 312 598 259 598 q 359 605 338 598 q 395 630 380 613 q 417 677 409 647 q 424 753 424 707 q 417 828 424 798 q 395 875 409 858 q 359 900 380 892 q 312 908 338 908 q 229 875 259 908 q 199 753 199 842 m 593 238 q 609 344 593 300 q 654 418 626 389 q 722 460 683 447 q 808 474 762 474 q 893 461 854 474 q 961 421 933 449 q 1007 348 990 393 q 1023 238 1023 303 q 1007 127 1023 172 q 961 54 990 82 q 893 14 933 26 q 808 2 854 2 q 722 14 762 2 q 654 54 683 26 q 609 127 626 82 q 593 238 593 172 m 695 238 q 725 118 695 154 q 808 83 755 83 q 855 90 834 83 q 891 115 876 98 q 913 162 905 132 q 920 238 920 192 q 913 313 920 283 q 891 360 905 343 q 855 385 876 377 q 808 393 834 393 q 725 360 755 393 q 695 238 695 327 m 885 990 l 953 937 l 240 -17 l 171 37 l 885 990 "},"P":{"x_min":118.0625,"x_max":725.0625,"ha":776,"o":"m 118 962 q 231 978 170 974 q 352 983 293 983 q 482 970 416 983 q 602 924 548 958 q 691 833 657 891 q 725 684 725 774 q 693 534 725 595 q 608 435 661 473 q 487 380 555 397 q 347 364 419 364 q 324 364 340 364 q 291 364 308 364 q 256 366 273 365 q 233 369 240 368 l 233 0 l 118 0 l 118 962 m 355 883 q 286 881 319 883 q 233 874 252 880 l 233 472 q 255 469 240 469 q 287 467 270 468 q 319 467 304 467 q 341 467 334 467 q 435 476 388 467 q 519 508 481 485 q 579 575 556 532 q 602 684 602 618 q 581 779 602 741 q 524 840 559 817 q 444 873 488 863 q 355 883 400 883 "},"_":{"x_min":0,"x_max":566.71875,"ha":567,"o":"m 0 -188 l 566 -188 l 566 -285 l 0 -285 l 0 -188 "},"‚":{"x_min":55.5625,"x_max":215.296875,"ha":269,"o":"m 55 69 q 75 118 55 100 q 127 137 95 137 q 190 112 166 137 q 215 39 215 88 q 202 -39 215 -6 q 170 -95 188 -72 q 130 -132 151 -118 q 94 -152 109 -146 l 59 -104 q 109 -62 91 -88 q 127 2 127 -37 q 112 1 122 1 q 70 19 86 1 q 55 69 55 38 "},"ѓ":{"x_min":106.953125,"x_max":512.546875,"ha":513,"o":"m 512 598 l 218 598 l 218 0 l 106 0 l 106 695 l 512 695 l 512 598 m 333 1000 l 456 1000 l 456 970 l 316 793 l 251 793 l 333 1000 "},"ы":{"x_min":106.953125,"x_max":809.78125,"ha":917,"o":"m 218 97 q 316 89 269 89 q 438 122 404 89 q 473 219 473 156 q 439 310 473 274 q 320 347 405 347 q 269 345 297 347 q 218 337 241 344 l 218 97 m 218 429 q 281 436 251 434 q 340 439 312 439 q 459 423 411 439 q 536 379 506 407 q 577 313 565 351 q 588 232 588 275 q 518 48 588 105 q 291 -8 448 -8 q 106 0 202 -8 l 106 695 l 218 695 l 218 429 m 698 695 l 809 695 l 809 0 l 698 0 l 698 695 "},"Ӏ":{"x_min":144.453125,"x_max":259.75,"ha":404,"o":"m 144 972 l 259 972 l 259 0 l 144 0 l 144 972 "},"ї":{"x_min":40.28125,"x_max":347.25,"ha":386,"o":"m 40 906 q 57 957 40 938 q 106 976 75 976 q 155 957 137 976 q 173 906 173 938 q 155 857 173 877 q 106 838 137 838 q 57 857 75 838 q 40 906 40 877 m 213 906 q 231 957 213 938 q 279 976 248 976 q 329 957 311 976 q 347 906 347 938 q 329 857 347 877 q 279 838 311 838 q 231 857 248 838 q 213 906 213 877 m 136 695 l 247 695 l 247 0 l 136 0 l 136 695 "},"T":{"x_min":25,"x_max":745.890625,"ha":771,"o":"m 745 869 l 443 869 l 443 0 l 327 0 l 327 869 l 25 869 l 25 972 l 745 972 l 745 869 "},"Њ":{"x_min":118.0625,"x_max":1305.65625,"ha":1353,"o":"m 700 466 l 233 466 l 233 0 l 118 0 l 118 972 l 233 972 l 233 569 l 700 569 l 700 972 l 815 972 l 815 567 q 838 571 822 569 q 875 574 855 573 q 916 577 895 576 q 954 579 937 579 q 1082 567 1019 579 q 1195 526 1145 556 q 1275 441 1244 495 q 1305 301 1305 387 q 1276 158 1305 218 q 1195 61 1247 98 q 1075 6 1144 23 q 926 -11 1007 -11 q 879 -10 907 -11 q 820 -7 851 -9 q 757 -1 788 -5 q 700 8 726 2 l 700 466 m 941 89 q 1036 100 991 89 q 1113 136 1080 111 q 1164 199 1145 161 q 1183 291 1183 237 q 1163 386 1183 349 q 1109 444 1143 423 q 1030 472 1075 465 q 937 479 986 479 q 907 477 925 479 q 870 474 888 476 q 837 470 852 473 q 815 466 822 467 l 815 97 q 870 91 834 93 q 941 89 907 89 "},"є":{"x_min":68.0625,"x_max":608.375,"ha":656,"o":"m 608 46 q 506 0 566 15 q 384 -17 447 -17 q 245 8 304 -17 q 146 82 186 34 q 87 197 106 130 q 68 347 68 265 q 91 502 68 434 q 157 616 115 570 q 259 686 200 662 q 391 711 319 711 q 508 700 458 711 q 595 671 558 690 l 563 574 q 489 603 531 592 q 402 614 447 614 q 249 560 306 615 q 180 397 191 505 l 508 397 l 508 305 l 179 305 q 199 217 183 259 q 243 145 215 175 q 313 97 272 114 q 413 80 355 80 q 504 95 462 80 q 572 131 547 111 l 608 46 "},"j":{"x_min":12.5,"x_max":262.515625,"ha":371,"o":"m 129 695 l 240 695 l 240 -37 q 195 -230 240 -166 q 54 -294 151 -294 q 33 -293 43 -294 q 12 -291 23 -292 l 12 -197 q 74 -185 51 -197 q 109 -148 97 -173 q 125 -85 122 -123 q 129 4 129 -46 l 129 695 m 105 905 q 127 960 105 937 q 181 983 148 983 q 238 960 215 983 q 262 905 262 937 q 238 852 262 873 q 181 832 215 832 q 127 852 148 832 q 105 905 105 873 "},"1":{"x_min":97.234375,"x_max":643.109375,"ha":757,"o":"m 150 103 l 344 103 l 344 775 l 358 857 l 302 791 l 150 682 l 97 752 l 402 989 l 452 989 l 452 103 l 643 103 l 643 0 l 150 0 l 150 103 "},"›":{"x_min":54.171875,"x_max":358.359375,"ha":413,"o":"m 358 372 l 136 53 l 62 112 l 197 314 l 263 371 l 197 421 l 54 617 l 127 679 l 358 372 "},"ћ":{"x_min":-2.78125,"x_max":665.328125,"ha":761,"o":"m -2 833 l 108 833 l 108 972 l 219 972 l 219 833 l 441 833 l 441 750 l 219 750 l 219 544 l 225 544 q 311 613 261 587 q 437 639 362 639 q 538 625 495 639 q 610 579 581 612 q 652 489 638 545 q 665 347 665 433 l 665 0 l 554 0 l 554 322 q 547 418 554 376 q 525 487 541 460 q 479 528 508 514 q 405 542 451 542 q 287 499 340 542 q 219 390 234 457 l 219 0 l 108 0 l 108 750 l -2 750 l -2 833 "},"ҍ":{"x_min":1.390625,"x_max":648.65625,"ha":690,"o":"m 1 695 l 152 695 l 152 972 l 263 972 l 263 695 l 486 695 l 486 603 l 263 603 l 263 429 q 327 436 297 434 q 386 439 358 439 q 508 423 458 439 q 589 379 558 407 q 634 313 620 351 q 648 232 648 275 q 572 48 648 105 q 337 -8 497 -8 q 152 0 248 -8 l 152 603 l 1 603 l 1 695 m 263 97 q 362 89 318 89 q 491 122 450 89 q 533 219 533 156 q 493 310 533 274 q 366 347 452 347 q 315 345 343 347 q 263 337 288 344 l 263 97 "},"<":{"x_min":58.34375,"x_max":643.109375,"ha":701,"o":"m 58 423 l 58 464 l 583 785 l 636 700 l 306 498 l 180 444 l 305 400 l 643 200 l 590 117 l 58 423 "},"ӽ":{"x_min":38.890625,"x_max":662.546875,"ha":714,"o":"m 561 175 q 625 60 601 117 q 650 -49 650 3 q 597 -232 650 -170 q 445 -294 545 -294 q 423 -293 434 -294 q 402 -291 412 -292 l 402 -197 q 510 -166 481 -197 q 538 -73 538 -135 q 514 33 538 -16 q 462 123 490 83 l 397 211 l 352 289 l 312 211 l 162 0 l 38 0 l 288 355 l 55 695 l 191 695 l 323 503 l 362 423 l 402 503 l 537 695 l 662 695 l 427 361 l 561 175 "},"Ц":{"x_min":118.0625,"x_max":915.34375,"ha":954,"o":"m 915 -179 l 836 -179 l 815 0 l 118 0 l 118 972 l 233 972 l 233 103 l 670 103 l 670 972 l 786 972 l 786 103 l 915 103 l 915 -179 "},"t":{"x_min":15.28125,"x_max":455.59375,"ha":471,"o":"m 15 695 l 123 695 l 123 832 l 234 864 l 234 695 l 423 695 l 423 598 l 234 598 l 234 212 q 252 109 234 139 q 313 80 270 80 q 375 87 350 80 q 430 108 400 95 l 455 23 q 373 -5 418 5 q 277 -17 329 -17 q 158 31 193 -17 q 123 191 123 79 l 123 598 l 15 598 l 15 695 "},"ӡ":{"x_min":54.171875,"x_max":591.71875,"ha":660,"o":"m 261 -197 q 349 -182 308 -197 q 420 -142 390 -167 q 466 -78 450 -116 q 483 4 483 -41 q 423 148 483 101 q 261 196 363 196 l 159 196 l 159 232 l 359 543 l 422 603 l 333 592 l 58 592 l 58 695 l 556 695 l 556 654 l 336 323 l 288 283 l 288 277 l 333 289 q 436 270 388 289 q 518 216 483 251 q 572 130 552 180 q 591 19 591 80 q 566 -113 591 -55 q 494 -212 540 -171 q 387 -273 448 -252 q 255 -294 326 -294 q 143 -284 193 -294 q 54 -257 94 -274 l 86 -157 q 162 -185 119 -174 q 261 -197 205 -197 "},"Ү":{"x_min":11.109375,"x_max":765.34375,"ha":775,"o":"m 331 386 l 11 972 l 145 972 l 373 547 l 397 462 l 398 462 l 423 549 l 641 972 l 765 972 l 447 387 l 447 0 l 331 0 l 331 386 "},"Ф":{"x_min":56.953125,"x_max":1026.46875,"ha":1083,"o":"m 484 107 q 429 102 461 103 q 370 101 398 101 q 247 123 305 101 q 147 192 190 145 q 81 312 105 239 q 56 485 56 385 q 81 654 56 580 q 150 780 105 729 q 258 858 195 831 q 397 886 320 886 q 442 884 415 886 q 484 880 469 883 l 484 1000 l 598 1000 l 598 876 q 657 884 623 883 q 713 886 691 886 q 837 861 780 886 q 936 789 894 837 q 1002 668 979 741 q 1026 499 1026 595 q 999 326 1026 401 q 926 201 972 251 q 819 126 880 151 q 688 101 758 101 q 643 103 673 101 q 598 110 613 105 l 598 -28 l 484 -28 l 484 107 m 697 789 q 647 787 677 789 q 597 779 616 786 l 597 202 q 634 198 611 199 q 679 198 657 198 q 767 216 726 198 q 839 271 808 234 q 888 366 870 309 q 907 499 907 423 q 892 617 907 563 q 850 709 877 670 q 784 768 823 748 q 697 789 745 789 m 391 198 q 410 198 398 198 q 436 198 422 198 q 463 201 450 199 q 486 206 476 203 l 486 783 q 445 787 469 786 q 401 789 420 789 q 313 770 354 789 q 241 713 272 751 q 193 617 211 674 q 176 485 176 560 q 191 365 176 419 q 235 274 206 312 q 303 217 263 236 q 391 198 343 198 "},"ӹ":{"x_min":106.953125,"x_max":809.78125,"ha":917,"o":"m 218 97 q 316 89 269 89 q 438 122 404 89 q 473 219 473 156 q 439 310 473 274 q 320 347 405 347 q 269 345 297 347 q 218 337 241 344 l 218 97 m 218 429 q 281 436 251 434 q 340 439 312 439 q 459 423 411 439 q 536 379 506 407 q 577 313 565 351 q 588 232 588 275 q 518 48 588 105 q 291 -8 448 -8 q 106 0 202 -8 l 106 695 l 218 695 l 218 429 m 698 695 l 809 695 l 809 0 l 698 0 l 698 695 m 250 881 q 269 932 250 913 q 318 952 287 952 q 367 932 348 952 q 386 881 386 913 q 367 832 386 851 q 318 813 348 813 q 269 832 287 813 q 250 881 250 851 m 517 881 q 535 932 517 913 q 585 952 554 952 q 635 932 617 952 q 654 881 654 913 q 635 832 654 851 q 585 813 617 813 q 535 832 554 813 q 517 881 517 851 "},"О":{"x_min":77.78125,"x_max":872.296875,"ha":950,"o":"m 77 486 q 180 859 77 729 q 473 989 283 989 q 651 952 576 989 q 775 850 726 916 q 848 692 825 784 q 872 486 872 599 q 768 112 872 242 q 473 -17 665 -17 q 297 19 372 -17 q 174 121 223 55 q 101 279 125 187 q 77 486 77 372 m 200 486 q 215 333 200 405 q 265 206 231 261 q 350 118 298 151 q 473 86 402 86 q 676 183 602 86 q 750 486 750 281 q 734 638 750 565 q 684 765 718 711 q 597 853 650 820 q 473 886 545 886 q 272 788 345 886 q 200 486 200 690 "},"&":{"x_min":163.90625,"x_max":1023.6875,"ha":1131,"o":"m 163 259 q 183 365 163 315 q 236 459 202 416 q 311 538 269 502 q 400 602 354 574 q 342 702 366 652 q 318 811 318 752 q 329 876 318 844 q 364 933 340 908 q 427 973 388 958 q 519 989 465 989 q 615 974 576 989 q 677 936 654 959 q 711 883 701 912 q 722 823 722 854 q 677 703 722 765 q 534 584 632 641 q 586 501 556 544 q 650 417 616 459 q 718 335 683 376 q 787 259 752 294 q 818 301 802 276 q 847 355 833 327 q 874 414 862 384 q 895 473 886 445 l 982 432 q 958 376 973 409 q 924 310 943 344 q 886 244 905 276 q 850 192 866 213 q 902 144 879 165 q 946 110 926 124 q 985 83 966 95 q 1023 60 1004 71 l 954 -17 q 786 112 880 19 q 731 64 761 87 q 663 23 701 41 q 581 -5 626 5 q 481 -17 536 -17 q 359 1 416 -17 q 258 54 301 19 q 189 141 215 89 q 163 259 163 192 m 720 181 q 641 269 680 222 q 567 363 602 316 q 502 454 531 410 q 451 531 472 498 q 381 474 413 504 q 325 412 350 445 q 288 342 301 380 q 275 262 275 305 q 293 184 275 219 q 342 127 311 150 q 413 92 373 105 q 498 80 454 80 q 566 89 533 80 q 627 112 598 98 q 681 144 657 125 q 720 181 705 162 m 426 810 q 443 728 426 769 q 488 647 461 687 q 591 733 562 694 q 619 801 619 772 q 597 873 619 845 q 523 901 576 901 q 450 876 473 901 q 426 810 426 851 "},"Ҩ":{"x_min":77.78125,"x_max":1036.1875,"ha":1126,"o":"m 490 886 q 372 861 425 886 q 280 788 319 837 q 220 663 241 738 q 200 487 200 588 q 223 331 200 405 q 289 202 247 257 q 390 113 331 146 q 519 80 448 80 q 553 81 534 80 q 586 88 572 82 q 506 159 541 114 q 447 258 472 203 q 410 376 423 313 q 397 502 397 438 q 422 693 397 611 q 490 831 447 775 q 591 916 533 888 q 718 945 650 945 q 951 841 872 945 q 1030 553 1030 738 q 1013 393 1030 467 q 966 259 995 320 q 896 155 936 199 q 812 84 857 110 q 827 83 819 83 q 841 83 834 83 q 934 93 894 83 q 1001 123 975 104 l 1036 33 q 970 -2 1009 12 q 858 -17 932 -17 q 769 -5 813 -17 q 694 24 725 5 q 613 -6 658 3 q 519 -17 568 -17 q 334 19 416 -17 q 195 120 252 55 q 108 278 138 185 q 77 486 77 372 q 106 700 77 606 q 187 858 134 794 q 317 955 240 922 q 490 989 394 989 l 490 886 m 519 492 q 531 390 519 443 q 566 286 543 336 q 623 192 588 235 q 705 123 658 149 q 779 182 743 144 q 843 274 815 220 q 890 396 872 328 q 908 545 908 464 q 897 661 908 607 q 866 755 887 715 q 809 819 844 796 q 723 842 773 842 q 646 821 683 842 q 581 759 609 801 q 536 650 554 717 q 519 492 519 583 "},"I":{"x_min":144.453125,"x_max":259.75,"ha":404,"o":"m 144 972 l 259 972 l 259 0 l 144 0 l 144 972 "},"˝":{"x_min":83.34375,"x_max":454.203125,"ha":538,"o":"m 131 972 l 240 972 l 240 949 l 141 793 l 83 793 l 131 972 m 334 972 l 454 972 l 454 949 l 295 793 l 233 793 l 334 972 "},"G":{"x_min":77.78125,"x_max":772.28125,"ha":850,"o":"m 445 485 l 772 485 l 772 56 q 718 26 750 40 q 652 2 687 12 q 578 -12 616 -7 q 504 -17 540 -17 q 333 12 411 -17 q 198 104 255 42 q 109 261 141 166 q 77 486 77 356 q 116 716 77 620 q 218 872 155 812 q 358 961 280 933 q 513 989 436 989 q 651 980 597 989 q 743 956 705 971 l 713 853 q 523 886 647 886 q 407 865 465 886 q 304 798 350 845 q 229 674 258 751 q 200 486 200 598 q 223 308 200 383 q 289 183 247 233 q 391 110 331 134 q 522 86 451 86 q 673 120 611 86 l 673 392 l 445 420 l 445 485 "},"`":{"x_min":83.34375,"x_max":305.578125,"ha":389,"o":"m 305 793 l 243 793 l 83 970 l 83 1000 l 215 1000 l 305 793 "},"Һ":{"x_min":118.0625,"x_max":737.5625,"ha":840,"o":"m 622 0 l 622 321 q 450 512 622 512 q 326 494 383 512 q 233 448 269 477 l 233 0 l 118 0 l 118 972 l 233 972 l 233 552 q 332 594 270 573 q 472 615 394 615 q 579 601 530 615 q 663 557 629 588 q 718 473 698 526 q 737 342 737 420 l 737 0 l 622 0 "},"ҡ":{"x_min":1.390625,"x_max":698.671875,"ha":711,"o":"m 265 381 l 323 400 l 547 695 l 666 695 l 451 415 l 394 369 l 466 314 l 698 0 l 561 0 l 329 313 l 265 313 l 265 0 l 154 0 l 154 598 l 1 598 l 1 695 l 265 695 l 265 381 "},"Ђ":{"x_min":25,"x_max":933.40625,"ha":1011,"o":"m 443 0 l 327 0 l 327 869 l 25 869 l 25 972 l 745 972 l 745 869 l 443 869 l 443 575 q 509 593 459 581 q 636 605 558 605 q 745 591 691 605 q 840 545 798 578 q 907 455 882 512 q 933 313 933 399 q 848 68 933 147 q 609 -11 763 -11 q 543 -10 563 -11 q 512 -6 523 -9 l 512 93 q 552 89 530 90 q 613 89 573 89 q 811 305 811 89 q 794 402 811 363 q 749 464 777 441 q 682 495 720 486 q 600 505 644 505 q 550 501 575 505 q 504 493 526 498 q 467 482 483 488 q 443 474 451 477 l 443 0 "},"я":{"x_min":27.78125,"x_max":563.9375,"ha":660,"o":"m 452 288 l 345 271 l 162 0 l 27 0 l 194 237 l 250 289 q 127 347 177 300 q 76 475 76 394 q 97 582 76 537 q 159 655 119 626 q 255 697 200 684 q 380 711 311 711 q 476 704 431 711 q 563 688 520 697 l 563 0 l 452 0 l 452 288 m 452 600 q 412 610 434 607 q 373 614 390 614 q 238 582 284 614 q 191 480 191 550 q 240 384 191 418 q 370 350 290 350 q 375 350 372 350 q 386 350 377 350 q 409 350 394 350 q 452 353 425 351 l 452 600 "},"ӛ":{"x_min":68.0625,"x_max":636.15625,"ha":704,"o":"m 90 639 q 195 691 131 672 q 329 711 258 711 q 466 685 408 711 q 562 611 525 659 q 618 496 600 563 q 636 347 636 428 q 558 76 636 170 q 341 -17 480 -17 q 247 -3 295 -17 q 159 45 198 10 q 93 139 119 80 q 68 288 68 198 q 70 333 68 310 q 75 383 72 356 l 527 383 q 470 557 520 501 q 297 614 419 614 q 203 597 250 614 q 131 558 156 580 l 90 639 m 344 80 q 472 134 420 80 q 525 295 525 188 l 176 295 l 176 274 q 224 128 176 177 q 344 80 272 80 m 140 881 q 159 932 140 913 q 208 952 177 952 q 257 932 238 952 q 276 881 276 913 q 257 832 276 851 q 208 813 238 813 q 159 832 177 813 q 140 881 140 851 m 407 881 q 425 932 407 913 q 475 952 444 952 q 525 932 507 952 q 544 881 544 913 q 525 832 544 851 q 475 813 507 813 q 425 832 444 813 q 407 881 407 851 "},"Ё":{"x_min":118.0625,"x_max":654.21875,"ha":745,"o":"m 118 972 l 647 972 l 647 869 l 233 869 l 233 551 l 612 551 l 612 448 l 233 448 l 233 103 l 654 103 l 654 0 l 118 0 l 118 972 m 166 1102 q 187 1149 166 1131 q 241 1168 208 1168 q 293 1149 273 1168 q 313 1102 313 1131 q 293 1057 313 1075 q 241 1039 273 1039 q 187 1057 208 1039 q 166 1102 166 1075 m 433 1102 q 453 1149 433 1131 q 505 1168 473 1168 q 559 1149 538 1168 q 580 1102 580 1131 q 559 1057 580 1075 q 505 1039 538 1039 q 453 1057 473 1039 q 433 1102 433 1075 "},"₃":{"x_min":93.0625,"x_max":469.484375,"ha":547,"o":"m 234 -66 q 336 -39 301 -66 q 372 38 372 -13 q 340 111 372 83 q 237 139 308 139 l 161 139 l 161 170 l 295 331 l 343 369 l 275 361 l 94 361 l 94 444 l 450 444 l 450 398 l 306 227 l 272 202 l 272 199 l 304 204 q 425 158 380 202 q 469 38 469 113 q 407 -97 469 -46 q 243 -149 345 -149 q 156 -140 193 -149 q 93 -123 120 -132 l 113 -40 q 168 -58 137 -50 q 234 -66 198 -66 "},";":{"x_min":113.890625,"x_max":300.03125,"ha":356,"o":"m 123 59 q 145 114 123 93 q 202 135 168 135 q 272 104 245 135 q 300 15 300 73 q 286 -72 300 -34 q 250 -136 272 -109 q 201 -181 227 -163 q 148 -207 175 -198 l 113 -153 q 188 -92 163 -133 q 212 -9 212 -51 q 188 -14 200 -14 q 142 4 161 -14 q 123 59 123 23 m 133 623 q 154 682 133 660 q 212 704 176 704 q 272 682 250 704 q 294 623 294 660 q 272 565 294 587 q 212 543 250 543 q 154 565 176 543 q 133 623 133 587 "},"Г":{"x_min":118.0625,"x_max":638.9375,"ha":614,"o":"m 638 869 l 233 869 l 233 0 l 118 0 l 118 972 l 638 972 l 638 869 "},"6":{"x_min":83.34375,"x_max":683.390625,"ha":757,"o":"m 683 293 q 663 172 683 229 q 606 74 644 116 q 513 7 569 31 q 387 -17 458 -17 q 262 5 318 -17 q 166 71 206 27 q 104 178 126 115 q 83 326 83 242 q 118 579 83 463 q 216 781 154 695 q 364 921 279 868 q 550 989 450 975 l 573 900 q 431 847 495 886 q 320 751 368 808 q 241 623 272 694 q 200 477 211 552 q 275 546 222 515 q 404 578 327 578 q 609 502 534 578 q 683 293 683 427 m 568 281 q 522 430 568 380 q 380 481 476 481 q 263 447 312 481 q 194 372 213 414 q 191 340 191 352 q 191 312 191 327 q 203 227 191 269 q 240 153 215 185 q 302 100 265 120 q 388 80 338 80 q 461 95 429 80 q 518 137 494 110 q 554 201 541 163 q 568 281 568 238 "},"Ь":{"x_min":118.0625,"x_max":723.671875,"ha":771,"o":"m 118 972 l 233 972 l 233 593 q 256 597 240 595 q 293 600 273 599 q 333 603 312 602 q 370 605 354 605 q 500 591 437 605 q 613 545 563 578 q 693 455 662 512 q 723 313 723 399 q 694 169 723 230 q 613 68 665 108 q 493 8 562 27 q 344 -11 425 -11 q 297 -10 325 -11 q 238 -7 269 -9 q 175 -1 206 -5 q 118 9 144 2 l 118 972 m 359 89 q 453 102 409 89 q 530 142 497 115 q 582 210 563 169 q 601 305 601 251 q 580 402 601 363 q 525 464 559 441 q 447 495 491 486 q 355 505 402 505 q 325 503 343 505 q 288 500 306 502 q 255 496 270 499 q 233 492 240 493 l 233 97 q 288 91 252 93 q 359 89 325 89 "},"n":{"x_min":106.953125,"x_max":663.9375,"ha":760,"o":"m 552 0 l 552 395 q 521 559 552 504 q 406 614 490 614 q 285 574 333 614 q 218 475 237 534 l 218 0 l 106 0 l 106 695 l 184 695 l 205 609 l 211 609 q 300 682 244 654 q 434 711 356 711 q 534 697 491 711 q 606 651 577 684 q 649 561 634 617 q 663 419 663 505 l 663 0 l 552 0 "},"p":{"x_min":106.953125,"x_max":683.390625,"ha":751,"o":"m 106 694 l 183 694 l 204 610 l 209 610 q 292 685 241 659 q 408 711 343 711 q 615 629 547 711 q 683 360 683 547 q 660 203 683 273 q 595 84 637 133 q 495 9 554 35 q 363 -17 436 -17 q 282 -10 312 -17 q 218 10 252 -4 l 218 -278 l 106 -278 l 106 694 m 387 614 q 275 577 316 614 q 218 465 234 540 l 218 120 q 275 90 243 100 q 359 80 306 80 q 511 151 455 80 q 568 362 568 223 q 558 465 568 419 q 527 545 548 512 q 471 595 505 577 q 387 614 437 614 "},"‡":{"x_min":55.5625,"x_max":619.5,"ha":675,"o":"m 281 555 l 297 612 l 237 597 l 55 597 l 55 697 l 237 697 l 297 681 l 281 745 l 281 972 l 393 972 l 393 745 l 377 681 l 437 697 l 619 697 l 619 597 l 434 597 l 377 612 l 393 555 l 393 382 l 377 325 l 434 341 l 619 341 l 619 241 l 437 241 l 377 256 l 393 192 l 393 0 l 370 -278 l 304 -278 l 281 0 l 281 192 l 297 256 l 237 241 l 55 241 l 55 341 l 237 341 l 297 325 l 281 382 l 281 555 "},"ӓ":{"x_min":54.171875,"x_max":597.265625,"ha":689,"o":"m 95 644 q 218 690 148 675 q 365 706 288 706 q 481 686 437 706 q 547 635 525 667 q 578 566 570 604 q 586 491 586 529 q 581 329 586 408 q 577 179 577 250 q 581 81 577 127 q 597 -3 586 35 l 515 -3 l 486 94 l 479 94 q 447 56 466 75 q 402 23 429 37 q 341 -1 376 8 q 262 -11 306 -11 q 179 2 218 -11 q 113 42 141 16 q 70 104 86 68 q 54 186 54 140 q 79 288 54 247 q 149 353 104 329 q 257 388 194 378 q 397 399 320 399 q 435 399 416 399 q 473 396 454 399 q 477 471 477 437 q 447 578 477 547 q 336 609 416 609 q 285 605 312 609 q 229 595 258 602 q 175 580 201 589 q 130 561 150 571 l 95 644 m 293 86 q 362 96 331 86 q 415 122 393 106 q 452 158 437 138 q 473 195 466 177 l 473 311 q 434 313 454 312 q 394 314 413 314 q 310 309 351 314 q 238 291 269 304 q 188 254 206 277 q 169 197 169 231 q 204 117 169 148 q 293 86 238 86 m 136 881 q 155 932 136 913 q 204 952 173 952 q 253 932 234 952 q 272 881 272 913 q 253 832 272 851 q 204 813 234 813 q 155 832 173 813 q 136 881 136 851 m 403 881 q 421 932 403 913 q 471 952 440 952 q 521 932 503 952 q 540 881 540 913 q 521 832 540 851 q 471 813 503 813 q 421 832 440 813 q 403 881 403 851 "},"Ӯ":{"x_min":9.71875,"x_max":766.734375,"ha":768,"o":"m 391 459 l 427 336 l 434 336 l 462 463 l 648 972 l 766 972 l 520 340 q 454 175 483 241 q 397 68 426 109 q 334 10 368 27 q 252 -7 301 -7 q 179 0 206 -7 q 129 23 152 8 l 163 120 q 215 100 191 104 q 258 96 238 96 q 323 135 297 96 q 369 252 350 175 l 9 972 l 143 972 l 391 459 m 191 1170 l 630 1170 l 630 1085 l 191 1085 l 191 1170 "},"Ю":{"x_min":118.0625,"x_max":1162.59375,"ha":1240,"o":"m 233 548 l 405 548 q 512 874 416 760 q 786 989 608 989 q 959 952 887 989 q 1076 850 1032 916 q 1141 692 1120 784 q 1162 486 1162 599 q 1069 112 1162 242 q 786 -17 976 -17 q 619 15 690 -17 q 502 108 548 48 q 431 254 455 168 q 404 445 408 339 l 233 445 l 233 0 l 118 0 l 118 972 l 233 972 l 233 548 m 526 486 q 540 333 526 405 q 584 206 554 261 q 664 118 615 151 q 786 86 713 86 q 977 183 915 86 q 1040 486 1040 280 q 1027 638 1040 565 q 985 765 1015 711 q 907 853 955 820 q 786 886 858 886 q 591 788 657 886 q 526 486 526 690 "},"S":{"x_min":63.890625,"x_max":672.28125,"ha":738,"o":"m 556 247 q 522 342 556 305 q 435 407 487 379 q 322 460 383 435 q 209 521 261 486 q 122 608 156 556 q 87 741 87 661 q 166 922 87 855 q 391 989 245 989 q 545 976 476 989 q 654 945 615 964 l 619 842 q 525 871 587 857 q 386 886 463 886 q 248 845 294 886 q 202 748 202 804 q 237 658 202 694 q 324 593 272 622 q 437 537 376 565 q 550 472 498 509 q 637 384 602 435 q 672 256 672 333 q 650 144 672 194 q 584 58 627 94 q 480 2 541 21 q 341 -17 419 -17 q 169 -1 237 -17 q 63 34 101 14 l 102 137 q 197 102 134 119 q 337 86 259 86 q 423 95 383 86 q 493 124 463 104 q 539 174 522 144 q 556 247 556 205 "},"/":{"x_min":-51.390625,"x_max":543.09375,"ha":492,"o":"m 455 989 l 543 950 l 36 -194 l -51 -155 l 455 989 "},"ӈ":{"x_min":106.953125,"x_max":643.109375,"ha":750,"o":"m 531 307 l 218 307 l 218 0 l 106 0 l 106 695 l 218 695 l 218 404 l 531 404 l 531 695 l 643 695 l 643 -37 q 598 -230 643 -166 q 456 -294 554 -294 q 436 -293 445 -294 q 415 -291 426 -292 l 415 -197 q 477 -185 454 -197 q 512 -149 500 -173 q 528 -87 525 -124 q 531 0 531 -49 l 531 307 "},"Ӭ":{"x_min":62.5,"x_max":723.671875,"ha":801,"o":"m 208 549 l 608 549 q 575 698 601 633 q 506 804 548 762 q 410 866 465 847 q 291 886 355 886 q 175 875 226 886 q 93 845 125 864 l 62 935 q 169 974 105 959 q 305 989 233 989 q 470 961 394 989 q 603 872 547 933 q 691 716 659 812 q 723 486 723 620 q 687 253 723 349 q 589 97 651 158 q 446 10 527 37 q 276 -17 365 -17 q 153 -7 206 -17 q 62 18 100 2 l 93 121 q 176 95 125 104 q 283 86 227 86 q 395 103 338 86 q 497 163 451 120 q 573 276 543 206 q 609 446 604 345 l 208 446 l 208 549 m 108 1102 q 129 1149 108 1131 q 183 1168 150 1168 q 235 1149 215 1168 q 255 1102 255 1131 q 235 1057 255 1075 q 183 1039 215 1039 q 129 1057 150 1039 q 108 1102 108 1075 m 375 1102 q 395 1149 375 1131 q 447 1168 415 1168 q 501 1149 480 1168 q 522 1102 522 1131 q 501 1057 522 1075 q 447 1039 480 1039 q 395 1057 415 1039 q 375 1102 375 1075 "},"y":{"x_min":16.671875,"x_max":634.765625,"ha":647,"o":"m 311 244 l 350 111 l 356 111 l 387 246 l 522 695 l 634 695 l 429 70 q 382 -61 405 2 q 331 -175 359 -125 q 269 -255 304 -225 q 188 -285 234 -285 q 106 -271 138 -285 l 126 -175 q 161 -182 144 -182 q 236 -141 200 -182 q 295 0 272 -100 l 16 695 l 144 695 l 311 244 "},"ђ":{"x_min":-2.78125,"x_max":665.328125,"ha":761,"o":"m -2 833 l 108 833 l 108 972 l 219 972 l 219 833 l 441 833 l 441 750 l 219 750 l 219 544 l 225 544 q 311 613 261 587 q 437 639 362 639 q 538 625 495 639 q 610 579 581 612 q 652 489 638 545 q 665 347 665 433 l 665 -37 q 620 -230 665 -166 q 479 -294 576 -294 q 458 -293 468 -294 q 437 -291 448 -292 l 437 -197 q 499 -185 476 -197 q 534 -149 522 -173 q 550 -87 547 -124 q 554 0 554 -49 l 554 322 q 547 418 554 376 q 525 487 541 460 q 479 528 508 514 q 405 542 451 542 q 287 499 340 542 q 219 390 234 457 l 219 0 l 108 0 l 108 750 l -2 750 l -2 833 "},"g":{"x_min":68.0625,"x_max":638.9375,"ha":746,"o":"m 638 -31 q 567 -230 638 -166 q 355 -294 495 -294 q 221 -283 272 -294 q 134 -257 170 -273 l 163 -163 q 234 -186 195 -175 q 336 -197 273 -197 q 431 -186 394 -197 q 490 -151 468 -176 q 520 -89 512 -127 q 529 1 529 -51 l 529 68 l 523 68 q 452 6 495 28 q 340 -15 409 -15 q 134 72 200 -15 q 68 344 68 159 q 152 614 68 522 q 402 707 237 707 q 538 694 481 707 q 638 665 594 682 l 638 -31 m 359 82 q 470 117 430 82 q 527 227 511 152 l 527 583 q 386 610 472 610 q 237 546 291 610 q 183 346 183 482 q 193 239 183 287 q 223 155 202 190 q 277 101 244 120 q 359 82 311 82 "},"́":{"x_min":-402.65625,"x_max":-197.09375,"ha":3,"o":"m -320 1000 l -197 1000 l -197 970 l -337 793 l -402 793 l -320 1000 "},"–":{"x_min":163.90625,"x_max":752.84375,"ha":917,"o":"m 163 452 l 752 452 l 752 349 l 163 349 l 163 452 "},"б":{"x_min":68.0625,"x_max":676.4375,"ha":745,"o":"m 170 571 q 272 664 216 637 q 411 692 327 692 q 607 608 538 692 q 676 362 676 525 q 596 78 676 174 q 373 -17 516 -17 q 144 88 220 -17 q 68 420 68 194 q 79 624 68 539 q 114 767 91 709 q 170 860 137 826 q 243 915 202 895 q 333 944 284 935 q 437 958 381 952 q 550 974 509 965 q 616 1007 591 983 l 629 906 q 598 885 615 893 q 558 871 581 877 q 502 861 534 866 q 426 855 469 857 q 321 840 366 850 q 243 800 276 830 q 192 715 211 770 q 166 571 173 661 l 170 571 m 183 345 q 194 244 183 292 q 228 158 205 195 q 287 100 251 121 q 372 80 323 80 q 514 148 468 80 q 561 352 561 217 q 551 450 561 405 q 520 527 541 494 q 468 577 500 560 q 391 595 436 595 q 233 531 283 596 q 183 345 183 466 "},"J":{"x_min":-47.21875,"x_max":270.859375,"ha":404,"o":"m 155 972 l 270 972 l 270 213 q 221 44 270 102 q 72 -14 172 -14 q 44 -12 61 -14 q 11 -8 27 -11 q -21 -1 -5 -5 q -47 8 -37 2 l -25 107 q 59 89 13 89 q 136 129 118 89 q 155 241 155 170 l 155 972 "},"у":{"x_min":16.671875,"x_max":634.765625,"ha":647,"o":"m 311 244 l 350 111 l 356 111 l 387 246 l 522 695 l 634 695 l 429 70 q 382 -61 405 2 q 331 -175 359 -125 q 269 -255 304 -225 q 188 -285 234 -285 q 106 -271 138 -285 l 126 -175 q 161 -182 144 -182 q 236 -141 200 -182 q 295 0 272 -100 l 16 695 l 144 695 l 311 244 "},"Ј":{"x_min":-47.21875,"x_max":270.859375,"ha":404,"o":"m 155 972 l 270 972 l 270 213 q 221 44 270 102 q 72 -14 172 -14 q 44 -12 61 -14 q 11 -8 27 -11 q -21 -1 -5 -5 q -47 8 -37 2 l -25 107 q 59 89 13 89 q 136 129 118 89 q 155 241 155 170 l 155 972 "},"ӌ":{"x_min":68.0625,"x_max":573.65625,"ha":681,"o":"m 462 294 q 396 264 440 280 q 276 249 352 249 q 186 260 225 249 q 120 299 147 272 q 81 372 94 326 q 68 486 68 418 l 68 695 l 179 695 l 179 508 q 183 442 179 472 q 200 390 187 412 q 236 357 212 368 q 298 346 259 346 q 401 359 361 346 q 462 390 441 373 l 462 695 l 573 695 l 573 0 l 451 0 l 430 -176 l 355 -176 l 355 93 l 462 93 l 462 294 "},"Ұ":{"x_min":11.109375,"x_max":765.34375,"ha":775,"o":"m 123 396 l 326 396 l 11 972 l 145 972 l 373 547 l 397 462 l 398 462 l 423 549 l 641 972 l 765 972 l 452 396 l 655 396 l 655 311 l 447 311 l 447 0 l 331 0 l 331 311 l 123 311 l 123 396 "},"Ӵ":{"x_min":104.171875,"x_max":722.28125,"ha":840,"o":"m 219 972 l 219 650 q 391 460 219 460 q 513 477 456 460 q 607 523 570 494 l 607 972 l 722 972 l 722 0 l 607 0 l 607 419 q 508 377 569 398 q 368 357 447 357 q 261 370 309 357 q 177 414 212 383 q 123 498 143 445 q 104 629 104 551 l 104 972 l 219 972 m 218 1102 q 239 1149 218 1131 q 293 1168 260 1168 q 345 1149 325 1168 q 365 1102 365 1131 q 345 1057 365 1075 q 293 1039 325 1039 q 239 1057 260 1039 q 218 1102 218 1075 m 485 1102 q 505 1149 485 1131 q 557 1168 525 1168 q 611 1149 590 1168 q 632 1102 632 1131 q 611 1057 632 1075 q 557 1039 590 1039 q 505 1057 525 1039 q 485 1102 485 1075 "},"˘":{"x_min":83.34375,"x_max":506.984375,"ha":590,"o":"m 145 1000 q 212 921 170 949 q 301 893 254 893 q 386 920 348 893 q 448 1000 425 948 l 506 975 q 485 909 502 941 q 441 851 468 876 q 377 811 413 826 q 300 796 341 796 q 226 807 261 796 q 163 842 191 819 q 113 896 134 865 q 83 968 93 927 l 145 1000 "},"ҧ":{"x_min":106.953125,"x_max":1083.421875,"ha":1161,"o":"m 636 0 l 525 0 l 525 598 l 218 598 l 218 0 l 106 0 l 106 695 l 636 695 l 636 349 q 693 367 651 356 q 809 379 734 379 q 913 363 863 379 q 1000 310 962 347 q 1061 213 1038 273 q 1083 62 1083 152 q 1011 -204 1083 -119 q 783 -290 938 -290 q 717 -289 737 -290 q 686 -285 697 -288 l 686 -188 q 725 -192 704 -191 q 787 -193 747 -193 q 928 -129 884 -193 q 972 48 972 -66 q 918 227 972 172 q 779 282 865 282 q 690 270 729 282 q 636 252 651 259 l 636 0 "},"D":{"x_min":118.0625,"x_max":830.625,"ha":908,"o":"m 118 971 q 177 978 144 976 q 245 980 209 980 q 314 982 280 981 q 377 983 348 983 q 579 946 494 983 q 720 846 665 910 q 803 691 776 781 q 830 492 830 600 q 804 303 830 394 q 723 141 779 212 q 579 29 668 71 q 363 -13 490 -13 q 306 -12 341 -13 q 233 -9 270 -11 q 163 -6 195 -7 q 118 -1 131 -4 l 118 971 m 380 880 q 341 880 362 880 q 298 878 319 880 q 260 875 277 877 q 233 873 243 874 l 233 95 q 259 93 240 94 q 300 92 279 92 q 340 90 320 91 q 366 90 359 90 q 529 123 463 90 q 635 212 595 156 q 691 342 675 269 q 708 492 708 414 q 693 629 708 560 q 640 753 677 698 q 539 844 602 809 q 380 880 476 880 "},"ґ":{"x_min":106.953125,"x_max":512.546875,"ha":513,"o":"m 218 598 l 218 0 l 106 0 l 106 695 l 412 695 l 434 881 l 512 881 l 512 598 l 218 598 "},"Ӆ":{"x_min":-2.78125,"x_max":877.84375,"ha":864,"o":"m 633 869 l 343 869 q 306 407 329 591 q 237 120 283 223 q 165 23 206 54 q 75 -7 123 -7 q 31 -3 50 -7 q -2 6 13 0 l 12 107 q 41 103 26 103 q 88 118 65 103 q 133 175 111 133 q 170 275 152 212 q 200 433 187 337 q 222 661 213 529 q 234 972 230 794 l 748 972 l 748 97 l 877 97 l 877 66 l 751 -181 l 676 -181 l 738 0 l 633 0 l 633 869 "},"ӳ":{"x_min":16.671875,"x_max":634.765625,"ha":647,"o":"m 311 244 l 350 111 l 356 111 l 387 246 l 522 695 l 634 695 l 429 70 q 382 -61 405 2 q 331 -175 359 -125 q 269 -255 304 -225 q 188 -285 234 -285 q 106 -271 138 -285 l 126 -175 q 161 -182 144 -182 q 236 -141 200 -182 q 295 0 272 -100 l 16 695 l 144 695 l 311 244 m 270 972 l 379 972 l 379 949 l 280 793 l 222 793 l 270 972 m 473 972 l 593 972 l 593 949 l 434 793 l 372 793 l 473 972 "},"ц":{"x_min":106.953125,"x_max":730.609375,"ha":761,"o":"m 730 -176 l 655 -176 l 634 0 l 106 0 l 106 695 l 218 695 l 218 97 l 519 97 l 519 695 l 630 695 l 630 97 l 730 97 l 730 -176 "},"Л":{"x_min":-2.78125,"x_max":748.671875,"ha":867,"o":"m 633 869 l 343 869 q 306 407 329 591 q 237 120 283 223 q 165 23 206 54 q 75 -7 123 -7 q 31 -3 50 -7 q -2 6 13 0 l 12 107 q 41 103 26 103 q 88 118 65 103 q 133 175 111 133 q 170 275 152 212 q 200 433 187 337 q 222 661 213 529 q 234 972 230 794 l 748 972 l 748 0 l 633 0 l 633 869 "},"$":{"x_min":105.5625,"x_max":669.5,"ha":757,"o":"m 336 -17 q 200 -3 259 -15 q 105 27 141 7 l 143 129 q 218 98 170 112 q 336 83 266 84 l 336 458 q 253 502 294 479 q 180 558 212 526 q 129 636 148 591 q 109 741 109 680 q 165 905 109 841 q 336 984 222 969 l 336 1111 l 430 1111 l 430 989 q 546 975 501 986 q 627 949 591 965 l 594 850 q 527 874 566 863 q 430 887 488 884 l 430 545 q 516 497 473 523 q 593 438 559 472 q 648 360 627 405 q 669 256 669 316 q 609 78 669 148 q 430 -11 548 8 l 430 -139 l 336 -139 l 336 -17 m 554 247 q 542 306 554 280 q 511 354 530 333 q 465 391 491 374 q 408 423 438 408 l 408 86 q 513 135 472 95 q 554 247 554 174 m 225 747 q 263 651 225 688 q 358 583 301 613 l 358 886 q 254 837 284 877 q 225 747 225 797 "},"w":{"x_min":11.109375,"x_max":1009.796875,"ha":1021,"o":"m 556 695 l 716 289 l 751 155 l 754 155 l 780 292 l 904 695 l 1009 695 l 776 -15 l 722 -15 l 540 443 l 513 557 l 509 557 l 481 442 l 306 -15 l 252 -15 l 11 695 l 131 695 l 269 290 l 293 155 l 294 155 l 327 293 l 476 695 l 556 695 "},"\\":{"x_min":-51.390625,"x_max":554.21875,"ha":528,"o":"m 554 -153 l 462 -194 l -51 950 l 41 989 l 554 -153 "},"о":{"x_min":68.0625,"x_max":676.4375,"ha":745,"o":"m 68 347 q 146 617 68 523 q 372 711 225 711 q 507 685 450 711 q 602 611 565 659 q 658 496 640 563 q 676 347 676 428 q 597 76 676 170 q 372 -17 519 -17 q 236 8 294 -17 q 141 82 179 34 q 86 197 104 130 q 68 347 68 265 m 183 347 q 193 245 183 294 q 226 160 204 196 q 284 102 248 124 q 372 80 320 80 q 561 347 561 78 q 550 449 561 401 q 518 534 540 498 q 459 592 495 570 q 372 614 423 614 q 183 347 183 615 "},"Д":{"x_min":6.9375,"x_max":890.34375,"ha":929,"o":"m 890 -179 l 811 -179 l 790 0 l 108 0 l 87 -179 l 6 -179 l 6 103 l 105 103 q 139 174 116 118 q 185 335 162 230 q 226 597 208 440 q 244 972 244 755 l 763 972 l 763 103 l 890 103 l 890 -179 m 648 103 l 648 869 l 352 869 q 336 594 348 716 q 308 378 325 472 q 270 216 291 284 q 227 103 250 148 l 648 103 "},"ъ":{"x_min":1.390625,"x_max":648.65625,"ha":690,"o":"m 265 97 q 362 89 319 89 q 491 122 450 89 q 533 219 533 156 q 493 310 533 274 q 366 347 452 347 q 316 345 343 347 q 265 337 290 344 l 265 97 m 265 429 q 328 436 298 434 q 386 439 358 439 q 508 423 458 439 q 589 379 558 407 q 634 313 620 351 q 648 232 648 275 q 572 48 648 105 q 337 -8 497 -8 q 247 -5 291 -8 q 154 0 202 -3 l 154 598 l 1 598 l 1 695 l 265 695 l 265 429 "},"Ӛ":{"x_min":73.609375,"x_max":809.78125,"ha":888,"o":"m 201 447 q 197 410 198 427 q 195 373 195 392 q 209 263 195 316 q 250 170 222 210 q 321 105 277 130 q 426 80 365 80 q 624 172 555 80 q 694 447 693 264 l 201 447 m 694 544 q 610 803 682 721 q 395 886 538 886 q 331 880 363 886 q 271 866 300 874 q 219 848 243 858 q 180 829 195 838 l 151 922 q 262 968 193 947 q 418 989 331 989 q 584 960 511 989 q 707 871 657 932 q 783 715 757 811 q 809 486 809 619 q 713 114 809 245 q 425 -17 618 -17 q 272 11 338 -17 q 162 92 206 39 q 95 219 118 144 q 73 387 73 294 q 77 462 73 423 q 87 544 80 502 l 694 544 m 223 1102 q 244 1149 223 1131 q 298 1168 265 1168 q 350 1149 330 1168 q 370 1102 370 1131 q 350 1057 370 1075 q 298 1039 330 1039 q 244 1057 265 1039 q 223 1102 223 1075 m 490 1102 q 510 1149 490 1131 q 562 1168 530 1168 q 616 1149 595 1168 q 637 1102 637 1131 q 616 1057 637 1075 q 562 1039 595 1039 q 510 1057 530 1039 q 490 1102 490 1075 "},"Ҭ":{"x_min":25,"x_max":745.890625,"ha":771,"o":"m 327 869 l 25 869 l 25 972 l 745 972 l 745 869 l 443 869 l 443 103 l 570 103 l 570 -179 l 490 -179 l 469 0 l 327 0 l 327 869 "},"ӣ":{"x_min":106.953125,"x_max":651.4375,"ha":758,"o":"m 540 411 l 544 497 l 540 497 l 483 408 l 170 0 l 106 0 l 106 695 l 218 695 l 218 271 l 213 189 l 219 189 l 273 275 l 586 695 l 651 695 l 651 0 l 540 0 l 540 411 m 180 892 l 591 892 l 591 807 l 180 807 l 180 892 "},"C":{"x_min":77.78125,"x_max":740.34375,"ha":793,"o":"m 740 40 q 634 -4 698 8 q 498 -17 570 -17 q 334 12 411 -17 q 201 103 258 42 q 111 260 144 165 q 77 486 77 355 q 114 717 77 622 q 211 872 151 812 q 347 961 272 933 q 500 989 422 989 q 636 980 583 989 q 726 956 688 971 l 698 853 q 508 886 632 886 q 395 865 451 886 q 296 797 340 844 q 226 673 252 749 q 200 486 200 597 q 225 311 200 386 q 293 186 250 236 q 396 111 337 136 q 525 86 455 86 q 634 98 587 86 q 712 130 680 110 l 740 40 "},"!":{"x_min":152.796875,"x_max":313.90625,"ha":424,"o":"m 176 972 l 291 972 l 291 489 l 268 245 l 200 245 l 176 489 l 176 972 m 152 63 q 174 122 152 100 q 231 144 195 144 q 291 122 269 144 q 313 63 313 100 q 291 5 313 27 q 231 -17 269 -17 q 174 5 195 -17 q 152 63 152 27 "},"Й":{"x_min":118.0625,"x_max":827.84375,"ha":946,"o":"m 712 658 l 720 769 l 715 769 l 655 655 l 186 0 l 118 0 l 118 972 l 233 972 l 233 305 l 223 195 l 229 195 l 290 309 l 759 972 l 827 972 l 827 0 l 712 0 l 712 658 m 358 1209 q 396 1129 363 1157 q 485 1102 430 1102 q 574 1129 541 1102 q 613 1207 606 1157 l 712 1183 q 642 1064 696 1108 q 484 1021 587 1021 q 322 1059 385 1021 q 248 1181 259 1097 l 358 1209 "},"Ҕ":{"x_min":118.0625,"x_max":723.671875,"ha":801,"o":"m 233 0 l 118 0 l 118 972 l 638 972 l 638 869 l 233 869 l 233 492 q 299 510 250 498 q 425 522 348 522 q 534 506 480 522 q 629 453 587 491 q 697 351 672 416 q 723 188 723 287 q 639 -89 723 -1 q 400 -178 555 -178 q 334 -177 354 -178 q 302 -173 313 -176 l 302 -70 q 342 -74 320 -73 q 404 -75 363 -75 q 601 179 601 -75 q 584 296 601 249 q 539 371 568 342 q 472 410 511 399 q 390 422 434 422 q 341 418 365 422 q 295 410 316 415 q 257 399 273 405 q 233 391 241 394 l 233 0 "},"ﬁ":{"x_min":30.5625,"x_max":641.71875,"ha":750,"o":"m 641 695 l 641 0 l 530 0 l 530 598 l 250 598 l 250 0 l 138 0 l 138 598 l 30 598 l 30 695 l 138 695 l 138 733 q 203 923 138 864 q 393 982 268 982 q 538 966 475 982 q 638 928 602 950 l 601 839 q 512 873 563 862 q 402 885 461 885 q 321 873 351 885 q 275 837 291 861 q 254 776 259 812 q 250 695 250 740 l 641 695 "},"X":{"x_min":36.109375,"x_max":818.125,"ha":858,"o":"m 359 494 l 63 972 l 202 972 l 400 642 l 434 563 l 468 642 l 676 972 l 804 972 l 498 504 l 818 0 l 683 0 l 463 348 l 426 431 l 390 348 l 165 0 l 36 0 l 359 494 "},"Б":{"x_min":118.0625,"x_max":711.171875,"ha":764,"o":"m 118 972 l 645 972 l 645 869 l 233 869 l 233 577 q 291 585 256 581 q 358 590 326 590 q 493 576 429 590 q 605 531 556 563 q 682 444 654 499 q 711 306 711 390 q 682 163 711 223 q 604 64 652 102 q 491 7 555 26 q 355 -11 426 -11 q 302 -10 331 -11 q 239 -6 272 -9 q 175 0 206 -4 q 118 9 144 2 l 118 972 m 369 89 q 454 101 413 89 q 524 138 494 113 q 571 200 554 162 q 588 287 588 237 q 568 390 588 351 q 515 452 548 430 q 438 482 481 474 q 347 490 394 490 q 318 488 334 490 q 284 485 301 487 q 254 482 268 484 q 233 478 240 480 l 233 97 q 259 93 243 94 q 293 90 275 91 q 331 89 312 89 q 369 89 351 89 "},"ҝ":{"x_min":106.953125,"x_max":734.78125,"ha":747,"o":"m 284 313 l 218 313 l 218 0 l 106 0 l 106 695 l 218 695 l 218 381 l 284 387 l 284 559 l 372 559 l 372 396 l 408 400 l 590 695 l 707 695 l 531 415 l 470 369 l 543 314 l 734 0 l 604 0 l 412 313 l 372 313 l 372 137 l 284 137 l 284 313 "},"ҳ":{"x_min":38.890625,"x_max":715.328125,"ha":729,"o":"m 288 355 l 55 695 l 191 695 l 323 503 l 362 423 l 402 503 l 537 695 l 662 695 l 427 361 l 609 97 l 715 97 l 715 -176 l 640 -176 l 619 0 l 544 0 l 397 211 l 355 294 l 312 211 l 162 0 l 38 0 l 288 355 "},"г":{"x_min":106.953125,"x_max":512.546875,"ha":513,"o":"m 512 598 l 218 598 l 218 0 l 106 0 l 106 695 l 512 695 l 512 598 "},"х":{"x_min":38.890625,"x_max":676.4375,"ha":715,"o":"m 288 355 l 55 695 l 191 695 l 323 503 l 362 423 l 402 503 l 537 695 l 662 695 l 427 361 l 676 0 l 544 0 l 397 211 l 355 294 l 312 211 l 162 0 l 38 0 l 288 355 "},"}":{"x_min":76.390625,"x_max":437.53125,"ha":481,"o":"m 326 499 q 355 402 326 428 q 437 377 384 377 l 437 280 q 355 252 384 280 q 326 163 326 224 l 326 -173 q 293 -278 326 -238 q 194 -319 261 -319 l 76 -319 l 76 -222 l 145 -222 q 200 -203 183 -222 q 218 -139 218 -184 l 218 189 q 246 282 218 250 q 313 321 275 314 l 313 329 q 247 372 276 335 q 218 467 218 409 l 218 795 q 201 857 218 838 q 145 877 184 877 l 76 877 l 76 974 l 195 974 q 291 937 256 974 q 326 829 326 900 l 326 499 "},"‰":{"x_min":97.109375,"x_max":1517.703125,"ha":1593,"o":"m 97 753 q 113 859 97 815 q 158 933 130 904 q 226 975 187 962 q 312 989 266 989 q 397 976 358 989 q 465 936 437 964 q 511 863 494 908 q 527 753 527 818 q 511 642 527 687 q 465 569 494 597 q 397 529 437 541 q 312 517 358 517 q 226 529 266 517 q 158 569 187 541 q 113 642 130 597 q 97 753 97 687 m 199 753 q 229 633 199 669 q 312 598 259 598 q 359 605 338 598 q 395 630 380 613 q 417 677 409 647 q 424 753 424 707 q 417 828 424 798 q 395 875 409 858 q 359 900 380 892 q 312 908 338 908 q 229 875 259 908 q 199 753 199 842 m 592 238 q 608 344 592 300 q 653 418 625 389 q 721 460 682 447 q 807 474 761 474 q 892 461 853 474 q 960 421 932 449 q 1006 348 989 393 q 1022 238 1022 303 q 1006 127 1022 172 q 960 54 989 82 q 892 14 932 26 q 807 2 853 2 q 721 14 761 2 q 653 54 682 26 q 608 127 625 82 q 592 238 592 172 m 694 238 q 724 118 694 154 q 807 83 754 83 q 854 90 833 83 q 890 115 875 98 q 912 162 904 132 q 919 238 919 192 q 912 313 919 283 q 890 360 904 343 q 854 385 875 377 q 807 393 833 393 q 724 360 754 393 q 694 238 694 327 m 1087 238 q 1103 344 1087 300 q 1148 418 1120 389 q 1216 460 1177 447 q 1302 474 1256 474 q 1387 461 1348 474 q 1455 421 1427 449 q 1501 348 1484 393 q 1517 238 1517 303 q 1501 127 1517 172 q 1455 54 1484 82 q 1387 14 1427 26 q 1302 2 1348 2 q 1216 14 1256 2 q 1148 54 1177 26 q 1103 127 1120 82 q 1087 238 1087 172 m 1189 238 q 1219 118 1189 154 q 1302 83 1249 83 q 1349 90 1328 83 q 1385 115 1370 98 q 1407 162 1399 132 q 1414 238 1414 192 q 1407 313 1414 283 q 1385 360 1399 343 q 1349 385 1370 377 q 1302 393 1328 393 q 1219 360 1249 393 q 1189 238 1189 327 m 885 990 l 953 937 l 240 -17 l 171 37 l 885 990 "},"Ч":{"x_min":104.171875,"x_max":722.28125,"ha":840,"o":"m 219 972 l 219 650 q 391 460 219 460 q 513 477 456 460 q 607 523 570 494 l 607 972 l 722 972 l 722 0 l 607 0 l 607 419 q 508 377 569 398 q 368 357 447 357 q 261 370 309 357 q 177 414 212 383 q 123 498 143 445 q 104 629 104 551 l 104 972 l 219 972 "},"—":{"x_min":163.90625,"x_max":975.078125,"ha":1139,"o":"m 163 452 l 975 452 l 975 349 l 163 349 l 163 452 "},"N":{"x_min":118.0625,"x_max":816.734375,"ha":935,"o":"m 293 636 l 218 776 l 212 776 l 226 635 l 226 0 l 118 0 l 118 988 l 179 988 l 644 338 l 716 205 l 723 205 l 708 338 l 708 972 l 816 972 l 816 -15 l 755 -15 l 293 636 "},"Ӗ":{"x_min":118.0625,"x_max":654.21875,"ha":745,"o":"m 118 972 l 647 972 l 647 869 l 233 869 l 233 551 l 612 551 l 612 448 l 233 448 l 233 103 l 654 103 l 654 0 l 118 0 l 118 972 m 257 1209 q 295 1129 262 1157 q 384 1102 329 1102 q 473 1129 440 1102 q 512 1207 505 1157 l 611 1183 q 541 1064 595 1108 q 383 1021 486 1021 q 221 1059 284 1021 q 147 1181 158 1097 l 257 1209 "},"⁄":{"x_min":-245.859375,"x_max":502.8125,"ha":256,"o":"m 430 990 l 502 941 l -173 -17 l -245 33 l 430 990 "},"2":{"x_min":86.125,"x_max":638.9375,"ha":757,"o":"m 619 751 q 592 600 619 677 q 521 446 565 523 q 423 293 477 368 q 315 153 369 219 l 247 93 l 247 87 l 336 103 l 638 103 l 638 0 l 86 0 l 86 40 q 159 119 116 72 q 249 224 202 166 q 341 346 295 282 q 422 478 386 411 q 481 610 459 544 q 504 733 504 675 q 465 846 504 801 q 347 892 426 892 q 244 870 294 892 q 158 821 194 848 l 112 900 q 227 965 161 941 q 370 989 294 989 q 476 971 430 989 q 554 922 522 954 q 602 846 586 890 q 619 751 619 802 "},"М":{"x_min":118.0625,"x_max":980.640625,"ha":1099,"o":"m 865 652 l 879 798 l 872 798 l 819 665 l 566 226 l 531 226 l 263 666 l 213 798 l 206 798 l 226 654 l 226 0 l 118 0 l 118 972 l 204 972 l 508 474 l 554 366 l 556 366 l 600 477 l 890 972 l 980 972 l 980 0 l 865 0 l 865 652 "},"ь":{"x_min":106.953125,"x_max":602.828125,"ha":645,"o":"m 218 97 q 316 89 269 89 q 445 122 404 89 q 487 219 487 156 q 447 310 487 274 q 320 347 406 347 q 269 345 297 347 q 218 337 241 344 l 218 97 m 218 429 q 281 436 251 434 q 340 439 312 439 q 462 423 412 439 q 543 379 512 407 q 588 313 575 351 q 602 232 602 275 q 527 48 602 105 q 291 -8 451 -8 q 106 0 202 -8 l 106 695 l 218 695 l 218 429 "},"˜":{"x_min":83.34375,"x_max":470.875,"ha":554,"o":"m 83 911 q 156 975 123 958 q 218 993 190 993 q 261 983 241 993 q 300 964 281 974 q 336 945 319 953 q 373 937 354 937 q 437 971 404 937 l 470 910 q 404 854 434 869 q 350 840 375 840 q 308 848 327 840 q 270 867 288 856 q 232 886 251 877 q 194 896 213 896 q 157 886 176 896 q 115 853 138 876 l 83 911 "},"ˇ":{"x_min":83.34375,"x_max":465.3125,"ha":549,"o":"m 294 764 l 243 764 l 83 1017 l 191 1017 l 245 925 l 275 844 l 305 925 l 368 1017 l 465 1017 l 294 764 "},"Ҍ":{"x_min":0,"x_max":812.5625,"ha":860,"o":"m 0 861 l 206 861 l 206 1001 l 322 1001 l 322 861 l 609 861 l 609 764 l 322 764 l 322 592 q 345 596 329 594 q 381 599 362 598 q 422 602 401 601 q 459 604 443 604 q 589 590 526 604 q 702 545 652 577 q 782 456 751 512 q 812 313 812 399 q 783 169 812 230 q 702 68 754 108 q 582 8 651 27 q 433 -11 513 -11 q 386 -10 413 -11 q 327 -7 358 -9 q 264 -1 295 -5 q 206 9 233 2 l 206 764 l 0 764 l 0 861 m 448 89 q 542 102 498 89 q 619 142 586 115 q 671 210 652 169 q 690 305 690 251 q 669 402 690 363 q 614 463 648 441 q 536 494 580 485 q 444 504 491 504 q 413 502 431 504 q 377 499 395 501 q 344 495 359 498 q 322 491 329 492 l 322 97 q 377 91 341 93 q 448 89 413 89 "},"Җ":{"x_min":-1.390625,"x_max":1130.640625,"ha":1138,"o":"m 497 972 l 608 972 l 608 519 l 668 538 l 950 972 l 1077 972 l 797 550 l 741 505 l 811 448 l 1050 103 l 1130 103 l 1130 -179 l 1050 -179 l 1029 0 l 979 0 l 672 451 l 608 451 l 608 0 l 497 0 l 497 467 l 438 448 l 131 0 l -1 0 l 305 435 l 372 488 l 308 536 l 18 972 l 152 972 l 434 536 l 497 536 l 497 972 "},"Ў":{"x_min":9.71875,"x_max":766.734375,"ha":768,"o":"m 391 459 l 427 336 l 434 336 l 462 463 l 648 972 l 766 972 l 520 340 q 454 175 483 241 q 397 68 426 109 q 334 10 368 27 q 252 -7 301 -7 q 179 0 206 -7 q 129 23 152 8 l 163 120 q 215 100 191 104 q 258 96 238 96 q 323 135 297 96 q 369 252 350 175 l 9 972 l 143 972 l 391 459 m 279 1209 q 317 1129 284 1157 q 406 1102 351 1102 q 495 1129 462 1102 q 534 1207 527 1157 l 633 1183 q 563 1064 617 1108 q 405 1021 508 1021 q 243 1059 306 1021 q 169 1181 180 1097 l 279 1209 "},"в":{"x_min":106.953125,"x_max":625.046875,"ha":693,"o":"m 106 692 q 209 699 155 695 q 341 704 262 704 q 538 661 479 704 q 598 533 598 619 q 570 437 598 484 q 476 368 541 391 l 476 363 q 591 306 558 348 q 625 195 625 264 q 547 38 625 87 q 313 -10 469 -10 q 205 -6 255 -10 q 106 1 155 -3 l 106 692 m 218 92 q 270 88 244 89 q 330 87 295 87 q 468 113 423 87 q 513 203 513 139 q 475 284 513 253 q 340 316 437 316 l 218 316 l 218 92 m 354 401 q 402 409 379 401 q 445 432 426 417 q 475 466 463 446 q 487 508 487 485 q 454 585 487 563 q 337 607 420 607 q 267 605 293 607 q 218 602 241 604 l 218 401 l 354 401 "},"ҽ":{"x_min":11.109375,"x_max":788.953125,"ha":857,"o":"m 765 55 q 660 2 723 21 q 526 -17 597 -17 q 391 7 448 -17 q 295 78 333 32 q 239 188 258 124 q 219 333 220 253 l 202 333 q 116 346 152 333 q 56 382 80 360 q 22 435 33 404 q 11 500 11 465 q 25 571 11 542 q 68 630 38 600 l 176 630 q 129 581 148 610 q 111 507 111 552 q 115 477 111 492 q 131 451 120 463 q 161 432 143 439 q 208 424 180 424 q 223 425 218 424 q 317 637 240 564 q 525 711 394 711 q 619 700 572 711 q 704 660 666 690 q 765 578 741 631 q 788 436 788 524 q 780 335 788 390 l 334 335 q 347 226 334 274 q 386 146 359 179 q 454 96 412 113 q 558 80 497 80 q 652 96 605 80 q 723 136 700 113 l 765 55 m 526 614 q 395 570 444 614 q 336 423 345 527 l 680 423 q 640 571 680 528 q 526 614 600 614 "},"С":{"x_min":77.78125,"x_max":740.34375,"ha":793,"o":"m 740 40 q 634 -4 698 8 q 498 -17 570 -17 q 334 12 411 -17 q 201 103 258 42 q 111 260 144 165 q 77 486 77 355 q 114 717 77 622 q 211 872 151 812 q 347 961 272 933 q 500 989 422 989 q 636 980 583 989 q 726 956 688 971 l 698 853 q 508 886 632 886 q 395 865 451 886 q 296 797 340 844 q 226 673 252 749 q 200 486 200 597 q 225 311 200 386 q 293 186 250 236 q 396 111 337 136 q 525 86 455 86 q 634 98 587 86 q 712 130 680 110 l 740 40 "},"њ":{"x_min":106.953125,"x_max":1027.859375,"ha":1070,"o":"m 643 97 q 741 89 694 89 q 870 122 829 89 q 912 219 912 156 q 872 310 912 274 q 745 347 832 347 q 695 344 722 347 q 643 337 668 342 l 643 97 m 643 429 q 707 436 676 434 q 765 439 737 439 q 887 423 837 439 q 968 379 937 407 q 1013 313 1000 351 q 1027 232 1027 275 q 952 48 1027 105 q 716 -8 876 -8 q 531 0 627 -8 l 531 310 l 218 310 l 218 0 l 106 0 l 106 695 l 218 695 l 218 407 l 531 407 l 531 695 l 643 695 l 643 429 "},"Ӓ":{"x_min":11.109375,"x_max":801.453125,"ha":813,"o":"m 580 270 l 222 270 l 125 0 l 11 0 l 379 988 l 431 988 l 801 0 l 680 0 l 580 270 m 259 370 l 545 370 l 437 665 l 402 812 l 401 812 l 366 662 l 259 370 m 197 1102 q 218 1149 197 1131 q 272 1168 239 1168 q 324 1149 304 1168 q 344 1102 344 1131 q 324 1057 344 1075 q 272 1039 304 1039 q 218 1057 239 1039 q 197 1102 197 1075 m 464 1102 q 484 1149 464 1131 q 536 1168 504 1168 q 590 1149 569 1168 q 611 1102 611 1131 q 590 1057 611 1075 q 536 1039 569 1039 q 484 1057 504 1039 q 464 1102 464 1075 "},"s":{"x_min":54.171875,"x_max":523.65625,"ha":585,"o":"m 412 188 q 387 253 412 230 q 325 293 362 277 q 245 323 288 309 q 164 361 201 338 q 102 420 127 384 q 77 517 77 456 q 134 664 77 617 q 293 711 191 711 q 418 697 368 711 q 506 667 469 684 l 480 575 q 403 602 448 590 q 306 614 358 614 q 217 593 245 614 q 188 520 188 572 q 213 464 188 484 q 275 428 238 444 q 356 397 312 412 q 436 356 400 381 q 498 293 473 331 q 523 192 523 255 q 509 109 523 148 q 463 42 494 70 q 388 -1 433 14 q 281 -17 343 -17 q 147 -1 202 -17 q 54 34 91 13 l 87 128 q 170 95 119 110 q 275 80 222 80 q 373 103 334 80 q 412 188 412 127 "},"?":{"x_min":51.390625,"x_max":554.21875,"ha":606,"o":"m 208 245 q 206 260 206 251 q 206 275 206 268 q 224 378 206 334 q 267 459 241 423 q 322 528 293 496 q 378 593 352 560 q 421 663 404 626 q 438 747 438 699 q 402 851 438 811 q 279 892 365 892 q 177 874 229 892 q 88 834 126 857 l 51 919 q 162 970 104 951 q 306 989 220 989 q 414 971 368 989 q 492 923 461 954 q 538 851 523 893 q 554 762 554 809 q 535 653 554 699 q 488 568 516 606 q 427 496 459 530 q 366 426 394 463 q 318 346 337 389 q 300 245 300 303 l 208 245 m 180 63 q 202 122 180 100 q 259 144 223 144 q 319 122 297 144 q 341 63 341 100 q 319 5 341 27 q 259 -17 297 -17 q 202 5 223 -17 q 180 63 180 27 "},"c":{"x_min":68.0625,"x_max":580.609375,"ha":626,"o":"m 580 46 q 481 0 538 15 q 362 -17 425 -17 q 226 8 281 -17 q 135 82 170 34 q 84 197 100 130 q 68 347 68 265 q 145 617 68 523 q 369 711 223 711 q 482 700 436 711 q 566 671 529 690 l 534 575 q 463 603 502 593 q 380 614 425 614 q 183 347 183 614 q 193 246 183 294 q 228 161 204 198 q 292 102 252 124 q 390 80 331 80 q 479 95 440 80 q 544 130 519 110 l 580 46 "},"ҹ":{"x_min":68.0625,"x_max":583.375,"ha":690,"o":"m 284 245 q 189 256 230 245 q 121 295 148 267 q 81 368 94 322 q 68 483 68 414 l 68 695 l 179 695 l 179 505 q 182 442 179 471 q 197 391 186 412 q 229 357 208 369 q 284 342 250 344 l 284 518 l 372 518 l 372 347 q 433 364 408 354 q 472 386 458 375 l 472 695 l 583 695 l 583 0 l 472 0 l 472 292 q 433 271 458 282 q 372 253 408 260 l 372 95 l 284 95 l 284 245 "},"•":{"x_min":120.84375,"x_max":506.984375,"ha":628,"o":"m 120 432 q 136 510 120 475 q 177 571 151 545 q 238 611 202 597 q 313 625 273 625 q 389 611 354 625 q 450 573 425 598 q 491 513 476 548 q 506 432 506 477 q 491 350 506 386 q 450 290 476 315 q 389 252 425 265 q 313 239 354 239 q 238 252 273 239 q 177 290 202 265 q 136 350 151 315 q 120 432 120 386 "},"н":{"x_min":106.953125,"x_max":643.109375,"ha":750,"o":"m 531 307 l 218 307 l 218 0 l 106 0 l 106 695 l 218 695 l 218 404 l 531 404 l 531 695 l 643 695 l 643 0 l 531 0 l 531 307 "},"(":{"x_min":83.34375,"x_max":386.140625,"ha":389,"o":"m 315 -306 q 206 -159 251 -239 q 135 4 162 -79 q 95 174 108 88 q 83 337 83 259 q 95 498 83 413 q 136 668 108 583 q 209 836 163 754 q 319 989 254 918 l 386 940 q 293 793 330 869 q 234 640 256 718 q 203 485 212 562 q 194 337 194 408 q 204 192 194 270 q 238 35 215 113 q 297 -118 261 -43 q 386 -254 334 -193 l 315 -306 "},"◊":{"x_min":47.21875,"x_max":652.828125,"ha":701,"o":"m 370 -15 l 325 -15 l 47 475 l 325 988 l 370 988 l 652 482 l 370 -15 m 395 223 l 537 468 l 386 737 l 347 860 l 344 860 l 305 735 l 163 490 l 315 221 l 355 98 l 356 98 l 395 223 "},"м":{"x_min":106.953125,"x_max":788.953125,"ha":896,"o":"m 680 412 l 688 544 l 682 544 l 632 437 l 463 165 l 425 165 l 250 437 l 204 544 l 198 544 l 209 414 l 209 0 l 106 0 l 106 695 l 216 695 l 411 383 l 451 302 l 454 302 l 495 386 l 677 695 l 788 695 l 788 0 l 680 0 l 680 412 "},"Қ":{"x_min":118.0625,"x_max":841.734375,"ha":854,"o":"m 298 450 l 233 450 l 233 0 l 118 0 l 118 972 l 233 972 l 233 519 l 295 538 l 622 972 l 755 972 l 430 553 l 372 507 l 443 452 l 718 103 l 841 103 l 841 -179 l 761 -179 l 740 0 l 652 0 l 298 450 "},":":{"x_min":126.40625,"x_max":287.515625,"ha":304,"o":"m 126 623 q 147 682 126 660 q 205 704 169 704 q 265 682 243 704 q 287 623 287 660 q 265 565 287 587 q 205 543 243 543 q 147 565 169 543 q 126 623 126 587 m 126 63 q 147 122 126 100 q 205 144 169 144 q 265 122 243 144 q 287 63 287 100 q 265 5 287 27 q 205 -17 243 -17 q 147 5 169 -17 q 126 63 126 27 "},"з":{"x_min":52.78125,"x_max":544.484375,"ha":613,"o":"m 173 310 l 173 400 l 270 400 q 320 408 295 400 q 363 431 344 416 q 395 465 383 445 q 406 508 406 486 q 369 584 406 562 q 256 607 331 607 q 157 590 202 607 q 87 559 112 574 l 55 644 q 153 685 97 667 q 287 704 209 704 q 518 533 518 704 q 486 438 518 484 q 397 372 455 391 l 397 366 q 511 308 479 351 q 544 194 544 265 q 526 112 544 149 q 472 46 508 74 q 381 3 436 19 q 254 -13 326 -13 q 136 0 183 -13 q 52 30 90 11 l 84 122 q 161 93 116 103 q 259 84 206 84 q 388 113 344 84 q 433 202 433 142 q 391 281 433 252 q 254 310 350 310 l 173 310 "},"Ґ":{"x_min":118.0625,"x_max":638.9375,"ha":614,"o":"m 638 869 l 233 869 l 233 0 l 118 0 l 118 972 l 538 972 l 561 1158 l 638 1158 l 638 869 "},"і":{"x_min":106.953125,"x_max":263.90625,"ha":372,"o":"m 130 695 l 241 695 l 241 0 l 130 0 l 130 695 m 106 905 q 128 960 106 937 q 183 983 150 983 q 240 960 216 983 q 263 905 263 937 q 240 852 263 873 q 183 832 216 832 q 128 852 150 832 q 106 905 106 873 "},"V":{"x_min":-2.78125,"x_max":791.734375,"ha":789,"o":"m 370 304 l 404 157 l 405 157 l 441 307 l 676 972 l 791 972 l 423 -15 l 372 -15 l -2 972 l 123 972 l 370 304 "},"ӄ":{"x_min":106.953125,"x_max":620.890625,"ha":668,"o":"m 501 22 q 443 234 501 168 q 281 300 384 300 l 218 300 l 218 0 l 106 0 l 106 695 l 218 695 l 218 368 l 277 387 l 500 695 l 620 695 l 404 403 l 354 367 l 415 358 q 516 311 477 344 q 575 232 554 278 q 604 132 597 187 q 612 22 612 78 q 593 -122 612 -62 q 542 -221 575 -183 q 464 -278 509 -260 q 366 -297 419 -297 q 343 -297 355 -297 q 319 -294 331 -297 l 319 -198 q 331 -200 326 -200 q 344 -200 337 -200 q 460 -143 419 -200 q 501 22 501 -86 "},"ӯ":{"x_min":16.671875,"x_max":634.765625,"ha":647,"o":"m 311 244 l 350 111 l 356 111 l 387 246 l 522 695 l 634 695 l 429 70 q 382 -61 405 2 q 331 -175 359 -125 q 269 -255 304 -225 q 188 -285 234 -285 q 106 -271 138 -285 l 126 -175 q 161 -182 144 -182 q 236 -141 200 -182 q 295 0 272 -100 l 16 695 l 144 695 l 311 244 m 136 892 l 547 892 l 547 807 l 136 807 l 136 892 "},"У":{"x_min":9.71875,"x_max":766.734375,"ha":768,"o":"m 391 459 l 427 336 l 434 336 l 462 463 l 648 972 l 766 972 l 520 340 q 454 175 483 241 q 397 68 426 109 q 334 10 368 27 q 252 -7 301 -7 q 179 0 206 -7 q 129 23 152 8 l 163 120 q 215 100 191 104 q 258 96 238 96 q 323 135 297 96 q 369 252 350 175 l 9 972 l 143 972 l 391 459 "},"ҥ":{"x_min":106.953125,"x_max":937.578125,"ha":938,"o":"m 937 598 l 643 598 l 643 0 l 531 0 l 531 307 l 218 307 l 218 0 l 106 0 l 106 695 l 218 695 l 218 404 l 531 404 l 531 695 l 937 695 l 937 598 "},"@":{"x_min":120.84375,"x_max":1357.046875,"ha":1478,"o":"m 982 682 l 1029 682 l 958 284 q 947 220 951 248 q 944 169 944 191 q 956 118 944 134 q 997 103 968 103 q 1091 127 1044 103 q 1173 198 1137 152 q 1232 308 1209 244 q 1255 453 1255 373 q 1219 642 1255 560 q 1118 780 1183 724 q 962 865 1052 836 q 763 895 872 895 q 552 853 651 895 q 379 737 452 811 q 264 561 306 664 q 222 337 222 458 q 260 116 222 213 q 369 -47 298 19 q 538 -149 440 -114 q 758 -184 637 -184 q 850 -174 798 -184 q 943 -145 901 -165 l 970 -234 q 855 -269 908 -260 q 741 -278 802 -278 q 499 -239 612 -278 q 302 -123 386 -200 q 169 65 218 -47 q 120 327 120 179 q 172 601 120 479 q 313 809 225 723 q 520 942 402 895 q 770 989 638 989 q 1002 952 895 989 q 1188 846 1109 915 q 1311 678 1266 777 q 1357 453 1357 579 q 1326 282 1357 364 q 1243 140 1295 201 q 1122 42 1191 79 q 975 6 1052 6 q 882 30 916 6 q 847 124 847 55 q 848 151 847 136 q 852 182 850 165 l 847 182 q 801 119 827 150 q 742 62 775 87 q 672 21 709 37 q 595 6 636 6 q 531 20 562 6 q 479 62 501 35 q 443 128 456 90 q 430 215 430 167 q 459 390 430 304 q 538 543 488 476 q 653 651 587 610 q 793 692 719 692 q 875 676 844 692 q 934 639 905 661 l 982 682 m 902 546 q 855 584 879 574 q 795 595 832 595 q 694 562 741 595 q 613 477 647 529 q 559 360 579 425 q 538 233 538 296 q 561 141 538 179 q 641 103 583 103 q 699 121 669 103 q 758 170 729 139 q 813 240 787 201 q 861 319 840 279 l 902 546 "},"ʼ":{"x_min":55.5625,"x_max":215.296875,"ha":269,"o":"m 55 915 q 75 964 55 946 q 127 983 95 983 q 190 958 166 983 q 215 885 215 934 q 202 806 215 839 q 170 750 188 773 q 130 713 151 727 q 94 694 109 699 l 59 741 q 109 783 91 757 q 127 848 127 808 q 112 847 122 847 q 70 865 86 847 q 55 915 55 884 "},"ү":{"x_min":13.890625,"x_max":658.390625,"ha":672,"o":"m 13 695 l 141 695 l 311 244 l 350 97 l 351 97 l 386 247 l 538 695 l 658 695 l 398 0 l 398 -278 l 287 -278 l 287 0 l 13 695 "},"i":{"x_min":106.953125,"x_max":263.90625,"ha":372,"o":"m 130 695 l 241 695 l 241 0 l 130 0 l 130 695 m 106 905 q 128 960 106 937 q 183 983 150 983 q 240 960 216 983 q 263 905 263 937 q 240 852 263 873 q 183 832 216 832 q 128 852 150 832 q 106 905 106 873 "},"ќ":{"x_min":106.953125,"x_max":651.4375,"ha":664,"o":"m 281 313 l 218 313 l 218 0 l 106 0 l 106 695 l 218 695 l 218 381 l 277 400 l 500 695 l 620 695 l 405 415 l 347 369 l 419 314 l 651 0 l 513 0 l 281 313 m 355 1000 l 478 1000 l 478 970 l 338 793 l 273 793 l 355 1000 "},"ё":{"x_min":68.0625,"x_max":637.546875,"ha":706,"o":"m 613 55 q 509 2 572 21 q 375 -17 445 -17 q 237 8 295 -17 q 141 82 179 34 q 86 196 104 130 q 68 347 68 263 q 147 617 68 524 q 373 711 226 711 q 468 700 420 711 q 552 660 515 690 q 613 578 590 631 q 637 436 637 524 q 629 335 637 390 l 183 335 q 195 226 183 274 q 234 147 208 179 q 303 97 261 114 q 406 80 345 80 q 501 96 454 80 q 572 136 548 113 l 613 55 m 375 614 q 243 570 293 614 q 184 423 194 527 l 529 423 q 488 571 529 528 q 375 614 448 614 m 165 881 q 184 932 165 913 q 233 952 202 952 q 282 932 263 952 q 301 881 301 913 q 282 832 301 851 q 233 813 263 813 q 184 832 202 813 q 165 881 165 851 m 432 881 q 450 932 432 913 q 500 952 469 952 q 550 932 532 952 q 569 881 569 913 q 550 832 569 851 q 500 813 532 813 q 450 832 469 813 q 432 881 432 851 "},"m":{"x_min":106.953125,"x_max":1032.03125,"ha":1128,"o":"m 513 0 l 513 393 q 509 489 513 448 q 490 558 504 530 q 450 600 476 586 q 383 614 425 614 q 277 575 319 614 q 218 477 234 536 l 218 0 l 106 0 l 106 695 l 184 695 l 205 609 l 211 609 q 297 682 248 654 q 426 711 347 711 q 535 685 493 711 q 601 595 577 659 q 689 680 633 649 q 816 711 745 711 q 915 697 875 711 q 982 651 955 684 q 1020 561 1008 617 q 1032 416 1032 504 l 1032 0 l 920 0 l 920 418 q 916 504 920 468 q 896 566 911 541 q 856 602 882 590 q 788 614 830 614 q 680 575 719 614 q 625 463 641 536 l 625 0 l 513 0 "},"Е":{"x_min":118.0625,"x_max":654.21875,"ha":745,"o":"m 118 972 l 647 972 l 647 869 l 233 869 l 233 551 l 612 551 l 612 448 l 233 448 l 233 103 l 654 103 l 654 0 l 118 0 l 118 972 "},"Ҏ":{"x_min":118.0625,"x_max":725.0625,"ha":776,"o":"m 118 962 q 231 978 170 974 q 352 983 293 983 q 482 970 416 983 q 602 924 548 958 q 691 833 657 891 q 725 684 725 774 q 681 513 725 580 q 568 411 637 447 l 662 274 l 598 229 l 491 382 q 347 364 425 364 q 324 364 340 364 q 291 364 308 364 q 256 366 273 365 q 233 369 240 368 l 233 0 l 118 0 l 118 962 m 404 642 l 502 498 q 575 566 547 522 q 602 684 602 609 q 581 779 602 741 q 524 840 559 817 q 444 873 488 863 q 355 883 400 883 q 286 881 319 883 q 233 874 252 880 l 233 472 q 255 469 240 469 q 287 467 270 468 q 319 467 304 467 q 341 467 334 467 q 387 468 365 467 q 433 475 409 469 l 344 604 l 404 642 "},"Э":{"x_min":62.5,"x_max":723.671875,"ha":801,"o":"m 208 549 l 608 549 q 575 698 601 633 q 506 804 548 762 q 410 866 465 847 q 291 886 355 886 q 175 875 226 886 q 93 845 125 864 l 62 935 q 169 974 105 959 q 305 989 233 989 q 470 961 394 989 q 603 872 547 933 q 691 716 659 812 q 723 486 723 620 q 687 253 723 349 q 589 97 651 158 q 446 10 527 37 q 276 -17 365 -17 q 153 -7 206 -17 q 62 18 100 2 l 93 121 q 176 95 125 104 q 283 86 227 86 q 395 103 338 86 q 497 163 451 120 q 573 276 543 206 q 609 446 604 345 l 208 446 l 208 549 "},"ӧ":{"x_min":68.0625,"x_max":676.4375,"ha":745,"o":"m 68 347 q 146 617 68 523 q 372 711 225 711 q 507 685 450 711 q 602 611 565 659 q 658 496 640 563 q 676 347 676 428 q 597 76 676 170 q 372 -17 519 -17 q 236 8 294 -17 q 141 82 179 34 q 86 197 104 130 q 68 347 68 265 m 183 347 q 193 245 183 294 q 226 160 204 196 q 284 102 248 124 q 372 80 320 80 q 561 347 561 78 q 550 449 561 401 q 518 534 540 498 q 459 592 495 570 q 372 614 423 614 q 183 347 183 615 m 166 881 q 185 932 166 913 q 234 952 203 952 q 283 932 264 952 q 302 881 302 913 q 283 832 302 851 q 234 813 264 813 q 185 832 203 813 q 166 881 166 851 m 433 881 q 451 932 433 913 q 501 952 470 952 q 551 932 533 952 q 570 881 570 913 q 551 832 570 851 q 501 813 533 813 q 451 832 470 813 q 433 881 433 851 "},"Ӡ":{"x_min":76.390625,"x_max":691.71875,"ha":782,"o":"m 319 86 q 421 99 373 86 q 504 139 469 113 q 560 201 540 165 q 580 284 580 238 q 506 427 580 381 q 301 473 431 473 l 179 473 l 179 510 l 437 821 l 498 881 l 412 869 l 79 869 l 79 972 l 655 972 l 655 930 l 377 598 l 329 558 l 329 552 l 376 565 q 504 546 445 565 q 604 492 562 527 q 668 408 645 458 q 691 295 691 358 q 663 162 691 220 q 584 64 634 105 q 466 3 534 24 q 318 -17 398 -17 q 252 -13 287 -17 q 184 -3 218 -10 q 122 12 151 4 q 76 32 94 20 l 105 135 q 145 116 120 126 q 200 101 170 107 q 261 90 230 94 q 319 86 291 86 "},"ю":{"x_min":106.953125,"x_max":930.625,"ha":999,"o":"m 645 -17 q 517 5 570 -17 q 429 71 463 28 q 378 174 395 113 q 356 307 361 234 l 218 307 l 218 0 l 106 0 l 106 695 l 218 695 l 218 404 l 358 404 q 439 631 369 552 q 648 711 509 711 q 778 685 725 711 q 866 611 832 659 q 915 496 900 563 q 930 347 930 428 q 860 76 930 170 q 645 -17 790 -17 m 466 347 q 475 244 466 292 q 504 158 483 195 q 560 100 525 121 q 648 80 595 80 q 776 144 737 80 q 815 347 815 209 q 807 449 815 401 q 780 535 800 498 q 729 593 761 572 q 647 614 697 614 q 509 549 551 614 q 466 347 466 484 "},"Ӟ":{"x_min":61.109375,"x_max":673.671875,"ha":751,"o":"m 193 460 l 193 557 l 215 557 q 245 557 227 557 q 282 558 263 557 q 318 560 301 559 q 347 563 336 561 q 415 582 383 569 q 470 616 447 595 q 508 665 494 637 q 522 726 522 693 q 506 802 522 772 q 464 851 491 833 q 402 878 437 870 q 326 886 366 886 q 198 875 251 886 q 113 850 145 865 l 83 942 q 183 973 111 957 q 345 989 255 989 q 454 977 401 989 q 550 938 508 965 q 618 864 593 911 q 644 750 644 818 q 598 617 644 680 q 461 526 552 554 l 461 520 q 616 447 559 507 q 673 287 673 387 q 642 150 673 208 q 560 55 611 92 q 443 0 509 17 q 309 -17 377 -17 q 159 -6 218 -17 q 61 19 100 3 l 90 122 q 179 96 122 107 q 319 86 237 86 q 404 97 362 86 q 478 133 445 109 q 531 194 511 158 q 551 280 551 230 q 490 409 551 368 q 330 457 429 450 q 299 459 313 458 q 269 460 284 460 l 193 460 m 129 1102 q 150 1149 129 1131 q 204 1168 171 1168 q 256 1149 236 1168 q 276 1102 276 1131 q 256 1057 276 1075 q 204 1039 236 1039 q 150 1057 171 1039 q 129 1102 129 1075 m 396 1102 q 416 1149 396 1131 q 468 1168 436 1168 q 522 1149 501 1168 q 543 1102 543 1131 q 522 1057 543 1075 q 468 1039 501 1039 q 416 1057 436 1039 q 396 1102 396 1075 "},"Ӱ":{"x_min":9.71875,"x_max":766.734375,"ha":768,"o":"m 391 459 l 427 336 l 434 336 l 462 463 l 648 972 l 766 972 l 520 340 q 454 175 483 241 q 397 68 426 109 q 334 10 368 27 q 252 -7 301 -7 q 179 0 206 -7 q 129 23 152 8 l 163 120 q 215 100 191 104 q 258 96 238 96 q 323 135 297 96 q 369 252 350 175 l 9 972 l 143 972 l 391 459 m 201 1102 q 222 1149 201 1131 q 276 1168 243 1168 q 328 1149 308 1168 q 348 1102 348 1131 q 328 1057 348 1075 q 276 1039 308 1039 q 222 1057 243 1039 q 201 1102 201 1075 m 468 1102 q 488 1149 468 1131 q 540 1168 508 1168 q 594 1149 573 1168 q 615 1102 615 1131 q 594 1057 615 1075 q 540 1039 573 1039 q 488 1057 508 1039 q 468 1102 468 1075 "},"ӆ":{"x_min":-6.9375,"x_max":730.609375,"ha":717,"o":"m 480 598 l 279 598 q 270 472 275 539 q 258 337 266 404 q 236 207 250 269 q 200 98 222 145 q 147 22 179 51 q 73 -6 116 -6 q -6 6 23 -6 l 9 99 q 45 94 26 94 q 95 117 73 94 q 134 207 118 141 q 162 390 151 273 q 177 695 173 507 l 591 695 l 591 97 l 730 97 l 730 66 l 604 -176 l 529 -176 l 591 0 l 480 0 l 480 598 "},"K":{"x_min":118.0625,"x_max":798.671875,"ha":847,"o":"m 298 450 l 233 450 l 233 0 l 118 0 l 118 972 l 233 972 l 233 519 l 295 538 l 622 972 l 755 972 l 430 553 l 372 507 l 443 452 l 798 0 l 652 0 l 298 450 "},"7":{"x_min":84.734375,"x_max":665.328125,"ha":757,"o":"m 152 0 l 501 813 l 562 881 l 480 869 l 84 869 l 84 972 l 665 972 l 665 934 l 265 0 l 152 0 "},"п":{"x_min":106.953125,"x_max":636.15625,"ha":743,"o":"m 525 598 l 218 598 l 218 0 l 106 0 l 106 695 l 636 695 l 636 0 l 525 0 l 525 598 "},"Y":{"x_min":11.109375,"x_max":765.34375,"ha":775,"o":"m 331 386 l 11 972 l 145 972 l 373 547 l 397 462 l 398 462 l 423 549 l 641 972 l 765 972 l 447 387 l 447 0 l 331 0 l 331 386 "},"E":{"x_min":118.0625,"x_max":654.21875,"ha":745,"o":"m 118 972 l 647 972 l 647 869 l 233 869 l 233 551 l 612 551 l 612 448 l 233 448 l 233 103 l 654 103 l 654 0 l 118 0 l 118 972 "},"‹":{"x_min":54.171875,"x_max":358.359375,"ha":413,"o":"m 54 359 l 276 679 l 350 619 l 215 417 l 148 360 l 215 310 l 358 114 l 284 53 l 54 359 "},"Є":{"x_min":77.78125,"x_max":755.609375,"ha":810,"o":"m 755 40 q 646 -4 713 8 q 506 -17 579 -17 q 341 12 419 -17 q 204 103 263 42 q 111 260 145 165 q 77 486 77 355 q 115 717 77 622 q 215 872 154 812 q 352 961 276 933 q 506 989 429 989 q 647 980 590 989 q 741 956 704 971 l 713 853 q 630 877 682 868 q 516 886 579 886 q 410 868 462 886 q 314 811 358 851 q 240 708 270 772 q 201 553 211 644 l 626 553 l 626 450 l 200 450 q 232 290 204 358 q 306 177 261 222 q 409 108 351 131 q 533 86 468 86 q 645 98 595 86 q 726 130 695 110 l 755 40 "},"₂":{"x_min":66.671875,"x_max":470.875,"ha":547,"o":"m 443 291 q 428 208 443 248 q 389 129 413 168 q 331 52 365 90 q 261 -24 298 14 l 197 -69 l 197 -71 l 276 -51 l 470 -51 l 470 -139 l 66 -139 l 66 -92 q 146 -21 98 -66 q 238 73 194 22 q 314 179 283 125 q 345 279 345 233 q 318 343 345 322 q 250 365 290 365 q 177 351 212 365 q 115 322 141 338 l 84 401 q 168 440 120 426 q 266 454 216 454 q 398 410 354 454 q 443 291 443 367 "},"ҕ":{"x_min":106.953125,"x_max":666.71875,"ha":743,"o":"m 218 0 l 106 0 l 106 695 l 511 695 l 511 598 l 218 598 l 218 349 q 275 367 233 356 q 391 379 316 379 q 497 363 447 379 q 584 310 547 347 q 644 213 622 273 q 666 62 666 152 q 593 -204 666 -119 q 365 -290 520 -290 q 299 -289 319 -290 q 268 -285 279 -288 l 268 -188 q 307 -192 286 -191 q 369 -193 329 -193 q 511 -129 466 -193 q 555 48 555 -66 q 501 227 555 172 q 361 282 447 282 q 272 270 311 282 q 218 252 233 259 l 218 0 "},"ӵ":{"x_min":68.0625,"x_max":573.65625,"ha":681,"o":"m 179 695 l 179 505 q 183 438 179 468 q 200 387 187 408 q 236 353 212 365 q 298 342 259 342 q 401 355 361 342 q 462 386 441 369 l 462 695 l 573 695 l 573 0 l 462 0 l 462 292 q 396 261 440 278 q 276 245 352 245 q 186 256 225 245 q 120 295 147 267 q 81 368 94 322 q 68 483 68 414 l 68 695 l 179 695 m 118 881 q 137 932 118 913 q 186 952 155 952 q 235 932 216 952 q 254 881 254 913 q 235 832 254 851 q 186 813 216 813 q 137 832 155 813 q 118 881 118 851 m 385 881 q 403 932 385 913 q 453 952 422 952 q 503 932 485 952 q 522 881 522 913 q 503 832 522 851 q 453 813 485 813 q 403 832 422 813 q 385 881 385 851 "},"Ө":{"x_min":77.78125,"x_max":872.296875,"ha":950,"o":"m 77 486 q 180 859 77 729 q 473 989 283 989 q 651 952 576 989 q 775 850 726 916 q 848 692 825 784 q 872 486 872 599 q 768 112 872 242 q 473 -17 665 -17 q 297 19 372 -17 q 174 121 223 55 q 101 279 125 187 q 77 486 77 372 m 750 544 q 663 797 738 709 q 473 886 587 886 q 376 868 423 886 q 291 810 329 851 q 229 705 254 770 q 200 544 205 639 l 750 544 m 200 441 q 286 174 211 262 q 473 86 362 86 q 573 102 525 86 q 659 160 622 119 q 721 269 697 201 q 750 441 745 337 l 200 441 "},"|":{"x_min":118.0625,"x_max":212.515625,"ha":331,"o":"m 118 972 l 212 972 l 212 -181 l 118 -181 l 118 972 "},"џ":{"x_min":106.953125,"x_max":636.15625,"ha":743,"o":"m 106 0 l 106 695 l 218 695 l 218 97 l 525 97 l 525 695 l 636 695 l 636 0 l 433 0 l 412 -249 l 340 -249 l 312 0 l 106 0 "},"љ":{"x_min":-6.9375,"x_max":976.46875,"ha":1018,"o":"m 591 429 q 655 436 625 434 q 713 439 686 439 q 836 423 786 439 q 917 379 886 407 q 962 313 948 351 q 976 232 976 275 q 900 48 976 105 q 665 -8 825 -8 q 480 0 576 -8 l 480 598 l 279 598 q 270 472 275 539 q 258 337 266 404 q 236 207 250 269 q 200 98 222 145 q 147 22 179 51 q 73 -6 116 -6 q 27 -3 47 -6 q -6 6 8 0 l 9 99 q 45 94 26 94 q 95 117 73 94 q 134 207 118 141 q 162 390 151 273 q 177 695 173 507 l 591 695 l 591 429 m 591 97 q 690 89 643 89 q 819 123 777 89 q 861 220 861 157 q 820 311 861 275 q 694 347 780 347 q 643 345 670 347 q 591 337 615 344 l 591 97 "},"җ":{"x_min":1.390625,"x_max":955.625,"ha":963,"o":"m 333 307 l 129 0 l 1 0 l 220 318 l 268 360 l 197 413 l 16 695 l 134 695 l 326 395 l 398 395 l 398 695 l 506 695 l 506 381 l 572 400 l 765 695 l 882 695 l 693 413 l 638 368 l 709 312 l 851 97 l 955 97 l 955 -176 l 880 -176 l 859 0 l 783 0 l 579 313 l 506 313 l 506 0 l 398 0 l 398 326 l 333 307 "},"һ":{"x_min":106.953125,"x_max":663.9375,"ha":760,"o":"m 552 0 l 552 395 q 546 491 552 450 q 523 559 540 532 q 478 600 506 586 q 404 614 450 614 q 286 571 338 614 q 218 462 233 529 l 218 0 l 106 0 l 106 972 l 218 972 l 218 616 l 223 616 q 310 685 259 659 q 436 711 361 711 q 537 697 494 711 q 609 651 580 684 q 650 561 637 617 q 663 419 663 505 l 663 0 l 552 0 "},"й":{"x_min":106.953125,"x_max":651.4375,"ha":758,"o":"m 540 411 l 544 497 l 540 497 l 483 408 l 170 0 l 106 0 l 106 695 l 218 695 l 218 271 l 213 189 l 219 189 l 273 275 l 586 695 l 651 695 l 651 0 l 540 0 l 540 411 m 266 975 q 314 886 280 911 q 393 862 348 862 q 472 888 437 862 q 519 974 507 914 l 602 947 q 531 824 590 867 q 390 781 472 781 q 316 790 352 781 q 250 819 279 800 q 200 869 220 839 q 172 941 179 900 l 266 975 "},"Ӌ":{"x_min":104.171875,"x_max":722.28125,"ha":840,"o":"m 219 972 l 219 650 q 391 460 219 460 q 513 477 456 460 q 607 523 570 494 l 607 972 l 722 972 l 722 0 l 580 0 l 559 -179 l 479 -179 l 479 103 l 607 103 l 607 419 q 508 377 569 398 q 368 357 447 357 q 261 370 309 357 q 177 414 212 383 q 123 498 143 445 q 104 629 104 551 l 104 972 l 219 972 "},"q":{"x_min":68.0625,"x_max":638.9375,"ha":746,"o":"m 638 -278 l 527 -278 l 527 69 l 522 69 q 452 5 494 27 q 340 -17 409 -17 q 134 71 201 -17 q 68 344 68 159 q 154 615 68 523 q 405 707 240 707 q 543 693 479 707 q 638 663 608 679 l 638 -278 m 359 80 q 470 116 430 80 q 527 227 511 152 l 527 583 q 386 610 476 610 q 236 545 290 610 q 183 345 183 480 q 193 237 183 287 q 223 153 202 188 q 277 99 244 118 q 359 80 311 80 "},"b":{"x_min":106.953125,"x_max":682,"ha":750,"o":"m 106 972 l 218 972 l 218 626 l 223 626 q 304 688 255 666 q 412 711 354 711 q 614 624 547 711 q 682 358 682 538 q 593 81 682 175 q 343 -13 504 -13 q 202 3 265 -13 q 106 39 138 20 l 106 972 m 393 614 q 280 575 323 614 q 218 465 237 536 l 218 114 q 281 91 244 99 q 359 84 319 84 q 510 150 454 84 q 566 359 566 217 q 556 460 566 413 q 526 541 547 508 q 472 594 505 575 q 393 614 440 614 "},"ﬂ":{"x_min":30.5625,"x_max":795.890625,"ha":810,"o":"m 522 880 q 462 888 501 885 q 386 892 423 892 q 311 878 338 892 q 270 839 284 865 q 253 777 256 814 q 250 695 250 740 l 393 695 l 393 598 l 250 598 l 250 0 l 138 0 l 138 598 l 30 598 l 30 695 l 138 695 l 138 733 q 195 926 138 864 q 383 989 251 989 q 445 986 411 989 q 516 981 480 984 q 582 973 551 977 q 633 963 613 969 l 633 170 q 650 100 633 121 q 697 80 668 80 q 737 82 716 80 q 784 95 758 85 l 795 7 q 768 -2 784 2 q 734 -10 752 -7 q 698 -14 716 -12 q 666 -17 680 -17 q 563 18 604 -17 q 522 138 522 53 l 522 880 "},"Ҟ":{"x_min":0,"x_max":873.6875,"ha":922,"o":"m 0 883 l 193 883 l 193 972 l 308 972 l 308 883 l 477 883 l 477 791 l 308 791 l 308 519 l 376 538 l 698 972 l 830 972 l 509 553 l 448 507 l 520 452 l 873 0 l 726 0 l 376 450 l 308 450 l 308 0 l 193 0 l 193 788 l 0 788 l 0 883 "},"ӏ":{"x_min":120.84375,"x_max":231.96875,"ha":353,"o":"m 120 972 l 231 972 l 231 0 l 120 0 l 120 972 "},"Ж":{"x_min":-1.390625,"x_max":1120.921875,"ha":1120,"o":"m 497 972 l 608 972 l 608 519 l 668 539 l 950 972 l 1077 972 l 797 550 l 741 505 l 811 448 l 1120 0 l 979 0 l 672 450 l 608 450 l 608 0 l 497 0 l 497 466 l 438 447 l 131 0 l -1 0 l 305 434 l 372 487 l 308 535 l 18 972 l 152 972 l 434 536 l 497 536 l 497 972 "},"ҋ":{"x_min":106.953125,"x_max":790.34375,"ha":779,"o":"m 540 411 l 544 497 l 540 497 l 483 408 l 170 0 l 106 0 l 106 695 l 218 695 l 218 271 l 213 189 l 219 189 l 273 275 l 586 695 l 651 695 l 651 97 l 790 97 l 790 66 l 663 -176 l 588 -176 l 651 0 l 540 0 l 540 411 m 266 975 q 314 886 280 911 q 393 862 348 862 q 472 888 437 862 q 519 974 506 914 l 602 947 q 531 824 590 867 q 390 781 472 781 q 316 790 352 781 q 250 819 279 800 q 200 869 220 839 q 172 941 179 900 l 266 975 "},"Н":{"x_min":118.0625,"x_max":815.34375,"ha":933,"o":"m 700 445 l 233 445 l 233 0 l 118 0 l 118 972 l 233 972 l 233 548 l 700 548 l 700 972 l 815 972 l 815 0 l 700 0 l 700 445 "},"ф":{"x_min":61.109375,"x_max":883.40625,"ha":945,"o":"m 419 -5 q 370 -15 395 -14 q 323 -17 344 -17 q 129 71 197 -17 q 61 347 61 160 q 136 615 61 525 q 352 706 211 706 q 419 700 391 706 l 419 972 l 525 972 l 525 699 q 569 704 550 703 q 607 706 588 706 q 813 626 744 706 q 883 361 883 546 q 864 203 883 273 q 809 84 845 133 q 721 9 773 35 q 601 -17 669 -17 q 564 -14 588 -17 q 525 -7 540 -12 l 525 -278 l 419 -278 l 419 -5 m 586 614 q 556 613 569 614 q 523 607 543 612 l 523 79 q 554 75 537 76 q 593 75 572 75 q 727 148 682 75 q 772 361 772 222 q 731 546 772 479 q 586 614 690 614 m 351 75 q 384 76 368 75 q 420 81 401 77 l 420 608 q 389 612 404 611 q 354 614 375 614 q 220 549 268 614 q 172 347 172 484 q 182 238 172 288 q 215 152 193 188 q 271 95 237 115 q 351 75 305 75 "},"л":{"x_min":-6.9375,"x_max":591.71875,"ha":699,"o":"m 480 598 l 279 598 q 270 472 275 539 q 258 337 266 404 q 236 207 250 269 q 200 98 222 145 q 147 22 179 51 q 73 -6 116 -6 q 27 -3 47 -6 q -6 6 8 0 l 9 99 q 45 94 26 94 q 95 117 73 94 q 134 207 118 141 q 162 390 151 273 q 177 695 173 507 l 591 695 l 591 0 l 480 0 l 480 598 "},"L":{"x_min":118.0625,"x_max":693.109375,"ha":718,"o":"m 693 0 l 118 0 l 118 972 l 233 972 l 233 103 l 693 103 l 693 0 "},"Щ":{"x_min":118.0625,"x_max":1229.265625,"ha":1268,"o":"m 118 0 l 118 972 l 233 972 l 233 103 l 551 103 l 551 972 l 666 972 l 666 103 l 984 103 l 984 972 l 1100 972 l 1100 103 l 1229 103 l 1229 -179 l 1148 -179 l 1127 0 l 118 0 "},"Ҡ":{"x_min":0,"x_max":904.234375,"ha":951,"o":"m 223 869 l 0 869 l 0 972 l 338 972 l 338 519 l 400 539 l 726 972 l 861 972 l 534 554 l 477 508 l 547 452 l 904 0 l 757 0 l 402 450 l 338 450 l 338 0 l 223 0 l 223 869 "},"Ӽ":{"x_min":36.109375,"x_max":804.234375,"ha":858,"o":"m 665 -58 q 643 60 665 9 q 593 155 620 112 l 466 348 l 426 431 l 390 348 l 165 0 l 36 0 l 359 494 l 63 972 l 202 972 l 400 642 l 434 563 l 468 642 l 676 972 l 804 972 l 498 504 l 691 205 q 756 80 736 137 q 776 -34 776 23 q 730 -228 776 -164 q 586 -292 684 -292 q 564 -292 575 -292 q 543 -289 554 -292 l 543 -195 q 606 -183 581 -195 q 643 -154 630 -172 q 661 -110 657 -135 q 665 -58 665 -85 "}," ":{"x_min":0,"x_max":0,"ha":371},"+":{"x_min":55.5625,"x_max":644.5,"ha":701,"o":"m 55 519 l 300 519 l 300 770 l 400 770 l 400 519 l 644 519 l 644 419 l 400 419 l 400 169 l 300 169 l 300 419 l 55 419 l 55 519 "},"‑":{"x_min":81.953125,"x_max":418.09375,"ha":500,"o":"m 81 452 l 418 452 l 418 349 l 81 349 l 81 452 "},"'":{"x_min":125.015625,"x_max":233.359375,"ha":303,"o":"m 125 972 l 233 972 l 190 704 l 125 704 l 125 972 "},"˛":{"x_min":83.34375,"x_max":340.3125,"ha":424,"o":"m 302 14 q 226 -42 254 -8 q 198 -121 198 -76 q 216 -170 198 -148 q 269 -192 234 -192 q 325 -178 295 -192 l 340 -237 q 284 -262 319 -254 q 220 -271 250 -271 q 120 -237 158 -271 q 83 -147 83 -204 q 121 -49 83 -90 q 226 14 159 -9 l 302 14 "},"Р":{"x_min":118.0625,"x_max":725.0625,"ha":776,"o":"m 118 962 q 231 978 170 974 q 352 983 293 983 q 482 970 416 983 q 602 924 548 958 q 691 833 657 891 q 725 684 725 774 q 693 534 725 595 q 608 435 661 473 q 487 380 555 397 q 347 364 419 364 q 324 364 340 364 q 291 364 308 364 q 256 366 273 365 q 233 369 240 368 l 233 0 l 118 0 l 118 962 m 355 883 q 286 881 319 883 q 233 874 252 880 l 233 472 q 255 469 240 469 q 287 467 270 468 q 319 467 304 467 q 341 467 334 467 q 435 476 388 467 q 519 508 481 485 q 579 575 556 532 q 602 684 602 618 q 581 779 602 741 q 524 840 559 817 q 444 873 488 863 q 355 883 400 883 "},"Ҽ":{"x_min":1.390625,"x_max":997.296875,"ha":1075,"o":"m 380 442 q 470 172 391 259 q 701 86 550 86 q 817 104 763 86 q 905 144 870 123 l 936 51 q 828 3 891 23 q 679 -17 765 -17 q 513 9 587 -17 q 384 92 438 35 q 299 234 330 148 q 263 442 268 320 l 212 442 q 48 489 95 442 q 1 612 1 537 q 11 677 1 653 q 40 720 22 701 l 148 720 q 118 674 126 701 q 109 625 109 646 q 113 592 109 608 q 130 564 118 576 q 166 543 143 551 q 229 536 190 536 q 245 536 237 536 q 263 537 254 536 q 370 871 273 754 q 645 989 468 989 q 908 884 819 989 q 997 590 997 780 q 984 442 997 521 l 380 442 m 876 539 q 880 576 879 558 q 882 612 882 594 q 868 718 882 668 q 825 807 854 768 q 752 869 797 846 q 647 892 708 892 q 452 798 518 892 q 379 539 386 705 l 876 539 "},"щ":{"x_min":106.953125,"x_max":1015.359375,"ha":1046,"o":"m 1015 -176 l 940 -176 l 919 0 l 106 0 l 106 695 l 218 695 l 218 97 l 455 97 l 455 695 l 566 695 l 566 97 l 804 97 l 804 695 l 915 695 l 915 97 l 1015 97 l 1015 -176 "},"ӕ":{"x_min":54.171875,"x_max":1037.578125,"ha":1106,"o":"m 293 86 q 362 96 331 86 q 415 122 393 106 q 452 158 437 138 q 473 195 466 177 l 473 311 q 434 313 454 312 q 394 314 413 314 q 310 309 351 314 q 238 291 269 304 q 188 254 206 277 q 169 197 169 231 q 204 117 169 148 q 293 86 238 86 m 509 116 q 468 68 491 91 q 414 28 444 45 q 346 0 384 11 q 262 -11 308 -11 q 179 2 218 -11 q 113 42 141 16 q 70 104 86 68 q 54 186 54 140 q 79 288 54 247 q 149 353 104 329 q 257 388 194 378 q 397 399 320 399 q 435 399 416 399 q 473 396 454 399 q 476 435 475 417 q 477 471 477 454 q 447 579 477 547 q 336 609 416 610 q 285 605 312 609 q 229 595 258 602 q 175 580 201 589 q 130 561 150 571 l 95 644 q 218 690 148 675 q 365 706 288 706 q 554 615 511 706 q 651 688 590 665 q 773 711 712 711 q 868 700 820 711 q 952 660 915 690 q 1013 575 990 630 q 1037 433 1037 521 q 1035 387 1037 411 q 1030 335 1033 362 l 581 335 q 632 147 581 214 q 805 80 683 80 q 900 97 854 80 q 972 136 947 115 l 1013 55 q 909 2 972 21 q 775 -17 845 -17 q 621 17 690 -17 q 519 116 552 52 l 509 116 m 775 614 q 643 570 693 614 q 584 423 593 527 l 929 423 l 929 439 q 886 574 929 534 q 775 614 844 614 "},"Ҹ":{"x_min":104.171875,"x_max":733.390625,"ha":851,"o":"m 376 357 q 263 370 313 357 q 177 414 212 383 q 122 498 141 445 q 104 629 104 551 l 104 972 l 219 972 l 219 650 q 376 460 219 468 l 376 632 l 468 632 l 468 465 q 551 487 512 472 q 618 523 590 503 l 618 972 l 733 972 l 733 0 l 618 0 l 618 419 q 553 390 591 404 q 468 366 515 376 l 468 201 l 376 201 l 376 357 "},"Т":{"x_min":25,"x_max":745.890625,"ha":771,"o":"m 745 869 l 443 869 l 443 0 l 327 0 l 327 869 l 25 869 l 25 972 l 745 972 l 745 869 "},"Ӧ":{"x_min":77.78125,"x_max":872.296875,"ha":950,"o":"m 77 486 q 180 859 77 729 q 473 989 283 989 q 651 952 576 989 q 775 850 726 916 q 848 692 825 784 q 872 486 872 599 q 768 112 872 242 q 473 -17 665 -17 q 297 19 372 -17 q 174 121 223 55 q 101 279 125 187 q 77 486 77 372 m 200 486 q 215 333 200 405 q 265 206 231 261 q 350 118 298 151 q 473 86 402 86 q 676 183 602 86 q 750 486 750 281 q 734 638 750 565 q 684 765 718 711 q 597 853 650 820 q 473 886 545 886 q 272 788 345 886 q 200 486 200 690 m 268 1102 q 289 1149 268 1131 q 343 1168 310 1168 q 395 1149 375 1168 q 415 1102 415 1131 q 395 1057 415 1075 q 343 1039 375 1039 q 289 1057 310 1039 q 268 1102 268 1075 m 535 1102 q 555 1149 535 1131 q 607 1168 575 1168 q 661 1149 640 1168 q 682 1102 682 1131 q 661 1057 682 1075 q 607 1039 640 1039 q 555 1057 575 1039 q 535 1102 535 1075 "},"W":{"x_min":11.109375,"x_max":1138.984375,"ha":1150,"o":"m 308 320 l 330 159 l 331 159 l 355 323 l 555 972 l 611 972 l 812 320 l 836 159 l 837 159 l 862 323 l 1026 972 l 1138 972 l 868 -15 l 804 -15 l 607 636 l 581 783 l 575 783 l 550 634 l 352 -15 l 288 -15 l 11 972 l 133 972 l 308 320 "},"а":{"x_min":54.171875,"x_max":597.265625,"ha":689,"o":"m 95 644 q 218 690 148 675 q 365 706 288 706 q 481 686 437 706 q 547 635 525 667 q 578 566 570 604 q 586 491 586 529 q 581 329 586 408 q 577 179 577 250 q 581 81 577 127 q 597 -3 586 35 l 515 -3 l 486 94 l 479 94 q 447 56 466 75 q 402 23 429 37 q 341 -1 376 8 q 262 -11 306 -11 q 179 2 218 -11 q 113 42 141 16 q 70 104 86 68 q 54 186 54 140 q 79 288 54 247 q 149 353 104 329 q 257 388 194 378 q 397 399 320 399 q 435 399 416 399 q 473 396 454 399 q 477 471 477 437 q 447 578 477 547 q 336 609 416 609 q 285 605 312 609 q 229 595 258 602 q 175 580 201 589 q 130 561 150 571 l 95 644 m 293 86 q 362 96 331 86 q 415 122 393 106 q 452 158 437 138 q 473 195 466 177 l 473 311 q 434 313 454 312 q 394 314 413 314 q 310 309 351 314 q 238 291 269 304 q 188 254 206 277 q 169 197 169 231 q 204 117 169 148 q 293 86 238 86 "},"ә":{"x_min":68.0625,"x_max":636.15625,"ha":704,"o":"m 90 639 q 195 691 131 672 q 329 711 258 711 q 466 685 408 711 q 562 611 525 659 q 618 496 600 563 q 636 347 636 428 q 558 76 636 170 q 341 -17 480 -17 q 247 -3 295 -17 q 159 45 198 10 q 93 139 119 80 q 68 288 68 198 q 70 333 68 310 q 75 383 72 356 l 527 383 q 470 557 520 501 q 297 614 419 614 q 203 597 250 614 q 131 558 156 580 l 90 639 m 344 80 q 472 134 420 80 q 525 295 525 188 l 176 295 l 176 274 q 224 128 176 177 q 344 80 272 80 "},"v":{"x_min":12.5,"x_max":657,"ha":670,"o":"m 306 287 l 345 155 l 347 155 l 381 290 l 537 695 l 657 695 l 361 -15 l 313 -15 l 12 695 l 140 695 l 306 287 "},">":{"x_min":58.34375,"x_max":643.109375,"ha":701,"o":"m 643 478 l 643 437 l 118 117 l 65 202 l 394 403 l 520 455 l 395 500 l 58 700 l 111 785 l 643 478 "},"ө":{"x_min":68.0625,"x_max":676.4375,"ha":745,"o":"m 68 347 q 146 617 68 523 q 372 711 225 711 q 507 685 450 711 q 602 611 565 659 q 658 496 640 563 q 676 347 676 428 q 597 76 676 170 q 372 -17 519 -17 q 236 8 294 -17 q 141 82 179 34 q 86 197 104 130 q 68 347 68 265 m 561 390 q 500 561 550 508 q 372 614 451 614 q 303 602 336 614 q 245 565 270 591 q 202 495 219 538 q 183 390 186 452 l 561 390 m 183 301 q 243 136 190 192 q 372 80 295 80 q 439 91 406 80 q 497 127 472 102 q 540 194 523 152 q 561 301 556 237 l 183 301 "},"Ї":{"x_min":44.453125,"x_max":363.921875,"ha":407,"o":"m 44 1101 q 64 1149 44 1131 q 115 1168 84 1168 q 164 1149 144 1168 q 184 1101 184 1131 q 164 1053 184 1070 q 115 1036 144 1036 q 64 1053 84 1036 q 44 1101 44 1070 m 223 1101 q 243 1149 223 1131 q 293 1168 263 1168 q 343 1149 323 1168 q 363 1101 363 1131 q 343 1053 363 1070 q 293 1036 323 1036 q 243 1053 263 1036 q 223 1101 223 1070 m 145 972 l 261 972 l 261 0 l 145 0 l 145 972 "},"Ҥ":{"x_min":118.0625,"x_max":1220.9375,"ha":1196,"o":"m 1220 869 l 815 869 l 815 0 l 700 0 l 700 445 l 233 445 l 233 0 l 118 0 l 118 972 l 233 972 l 233 548 l 700 548 l 700 972 l 1220 972 l 1220 869 "},"Х":{"x_min":36.109375,"x_max":818.125,"ha":858,"o":"m 359 494 l 63 972 l 202 972 l 400 642 l 434 563 l 468 642 l 676 972 l 804 972 l 498 504 l 818 0 l 683 0 l 463 348 l 426 431 l 390 348 l 165 0 l 36 0 l 359 494 "},"r":{"x_min":106.953125,"x_max":458.375,"ha":472,"o":"m 434 587 q 355 601 393 601 q 261 568 295 601 q 218 485 226 535 l 218 0 l 106 0 l 106 695 l 184 695 l 205 609 l 211 609 q 274 682 237 656 q 368 708 311 708 q 458 694 408 708 l 434 587 "},"ж":{"x_min":1.390625,"x_max":915.34375,"ha":915,"o":"m 333 307 l 129 0 l 1 0 l 220 318 l 268 360 l 197 413 l 16 695 l 134 695 l 326 395 l 398 395 l 398 695 l 506 695 l 506 381 l 572 400 l 765 695 l 882 695 l 693 412 l 638 368 l 709 312 l 915 0 l 783 0 l 579 313 l 506 313 l 506 0 l 398 0 l 398 327 l 333 307 "},"x":{"x_min":38.890625,"x_max":676.4375,"ha":715,"o":"m 288 355 l 55 695 l 191 695 l 323 503 l 362 423 l 402 503 l 537 695 l 662 695 l 427 361 l 676 0 l 544 0 l 397 211 l 355 294 l 312 211 l 162 0 l 38 0 l 288 355 "},"ӝ":{"x_min":1.390625,"x_max":915.34375,"ha":915,"o":"m 333 307 l 129 0 l 1 0 l 220 318 l 268 360 l 197 413 l 16 695 l 134 695 l 326 395 l 398 395 l 398 695 l 506 695 l 506 381 l 572 400 l 765 695 l 882 695 l 693 412 l 638 368 l 709 312 l 915 0 l 783 0 l 579 313 l 506 313 l 506 0 l 398 0 l 398 327 l 333 307 m 254 881 q 273 932 254 913 q 322 952 291 952 q 371 932 352 952 q 390 881 390 913 q 371 832 390 851 q 322 813 352 813 q 273 832 291 813 q 254 881 254 851 m 521 881 q 539 932 521 913 q 589 952 558 952 q 639 932 621 952 q 658 881 658 913 q 639 832 658 851 q 589 813 621 813 q 539 832 558 813 q 521 881 521 851 "},"Ѳ":{"x_min":77.78125,"x_max":872.296875,"ha":950,"o":"m 77 486 q 180 859 77 729 q 473 989 283 989 q 651 952 576 989 q 775 850 726 916 q 848 692 825 784 q 872 486 872 599 q 768 112 872 242 q 473 -17 665 -17 q 297 19 372 -17 q 174 121 223 55 q 101 279 125 187 q 77 486 77 372 m 750 544 q 663 797 738 709 q 473 886 587 886 q 376 868 423 886 q 291 810 329 851 q 229 705 254 770 q 200 544 205 639 l 750 544 m 200 441 q 286 174 211 262 q 473 86 362 86 q 573 102 525 86 q 659 160 622 119 q 721 269 697 201 q 750 441 745 337 l 200 441 "},"с":{"x_min":68.0625,"x_max":580.609375,"ha":626,"o":"m 580 46 q 481 0 538 15 q 362 -17 425 -17 q 226 8 281 -17 q 135 82 170 34 q 84 197 100 130 q 68 347 68 265 q 145 617 68 523 q 369 711 223 711 q 482 700 436 711 q 566 671 529 690 l 534 575 q 463 603 502 593 q 380 614 425 614 q 183 347 183 614 q 193 246 183 294 q 228 161 204 198 q 292 102 252 124 q 390 80 331 80 q 479 95 440 80 q 544 130 519 110 l 580 46 "},"h":{"x_min":106.953125,"x_max":663.9375,"ha":760,"o":"m 552 0 l 552 395 q 546 491 552 450 q 523 559 540 532 q 478 600 506 586 q 404 614 450 614 q 286 571 338 614 q 218 462 233 529 l 218 0 l 106 0 l 106 972 l 218 972 l 218 616 l 223 616 q 310 685 259 659 q 436 711 361 711 q 537 697 494 711 q 609 651 580 684 q 650 561 637 617 q 663 419 663 505 l 663 0 l 552 0 "},"Ҳ":{"x_min":36.109375,"x_max":887.578125,"ha":900,"o":"m 359 494 l 63 972 l 202 972 l 400 642 l 434 563 l 468 642 l 676 972 l 804 972 l 498 504 l 752 103 l 887 103 l 887 -179 l 807 -179 l 786 0 l 683 0 l 463 348 l 426 431 l 390 348 l 165 0 l 36 0 l 359 494 "},".":{"x_min":68.0625,"x_max":229.1875,"ha":297,"o":"m 68 63 q 89 122 68 100 q 147 144 111 144 q 206 122 184 144 q 229 63 229 100 q 206 5 229 27 q 147 -17 184 -17 q 89 5 111 -17 q 68 63 68 27 "},"f":{"x_min":30.5625,"x_max":487.53125,"ha":443,"o":"m 30 695 l 138 695 l 138 733 q 149 844 138 797 q 183 921 159 892 q 244 966 206 951 q 337 981 281 981 q 416 975 381 981 q 487 954 450 969 l 462 862 q 402 879 430 875 q 348 884 373 884 q 292 872 312 884 q 263 840 272 861 q 252 787 254 818 q 250 714 250 756 l 250 695 l 434 695 l 434 598 l 250 598 l 250 0 l 138 0 l 138 598 l 30 598 l 30 695 "},"“":{"x_min":55.5625,"x_max":418.296875,"ha":472,"o":"m 418 861 q 397 810 418 829 q 344 792 376 792 q 282 817 307 792 q 258 890 258 842 q 271 969 258 936 q 303 1024 284 1001 q 342 1061 322 1047 q 378 1081 362 1075 l 412 1032 q 363 991 382 1017 q 344 926 344 965 q 359 928 350 928 q 403 908 387 928 q 418 861 418 889 m 215 861 q 194 810 215 829 q 141 792 173 792 q 79 817 104 792 q 55 890 55 842 q 68 969 55 936 q 100 1024 81 1001 q 139 1061 119 1047 q 175 1081 159 1075 l 209 1032 q 160 991 179 1017 q 141 926 141 965 q 156 928 147 928 q 200 908 184 928 q 215 861 215 889 "},"ӑ":{"x_min":54.171875,"x_max":597.265625,"ha":689,"o":"m 95 644 q 218 690 148 675 q 365 706 288 706 q 481 686 437 706 q 547 635 525 667 q 578 566 570 604 q 586 491 586 529 q 581 329 586 408 q 577 179 577 250 q 581 81 577 127 q 597 -3 586 35 l 515 -3 l 486 94 l 479 94 q 447 56 466 75 q 402 23 429 37 q 341 -1 376 8 q 262 -11 306 -11 q 179 2 218 -11 q 113 42 141 16 q 70 104 86 68 q 54 186 54 140 q 79 288 54 247 q 149 353 104 329 q 257 388 194 378 q 397 399 320 399 q 435 399 416 399 q 473 396 454 399 q 477 471 477 437 q 447 578 477 547 q 336 609 416 609 q 285 605 312 609 q 229 595 258 602 q 175 580 201 589 q 130 561 150 571 l 95 644 m 293 86 q 362 96 331 86 q 415 122 393 106 q 452 158 437 138 q 473 195 466 177 l 473 311 q 434 313 454 312 q 394 314 413 314 q 310 309 351 314 q 238 291 269 304 q 188 254 206 277 q 169 197 169 231 q 204 117 169 148 q 293 86 238 86 m 216 975 q 264 886 230 911 q 343 862 298 862 q 422 888 387 862 q 469 974 457 914 l 552 947 q 481 824 540 867 q 340 781 422 781 q 266 790 302 781 q 200 819 229 800 q 150 869 170 839 q 122 941 129 900 l 216 975 "},"A":{"x_min":11.109375,"x_max":801.453125,"ha":813,"o":"m 580 270 l 222 270 l 125 0 l 11 0 l 379 988 l 431 988 l 801 0 l 680 0 l 580 270 m 259 370 l 545 370 l 437 665 l 402 812 l 401 812 l 366 662 l 259 370 "},"‘":{"x_min":55.5625,"x_max":215.296875,"ha":269,"o":"m 215 861 q 194 810 215 829 q 141 792 173 792 q 79 817 104 792 q 55 890 55 842 q 68 969 55 936 q 100 1024 81 1001 q 139 1061 119 1047 q 175 1081 159 1075 l 209 1032 q 160 991 179 1017 q 141 926 141 965 q 156 928 147 928 q 200 908 184 928 q 215 861 215 889 "},"O":{"x_min":77.78125,"x_max":872.296875,"ha":950,"o":"m 77 486 q 180 859 77 729 q 473 989 283 989 q 651 952 576 989 q 775 850 726 916 q 848 692 825 784 q 872 486 872 599 q 768 112 872 242 q 473 -17 665 -17 q 297 19 372 -17 q 174 121 223 55 q 101 279 125 187 q 77 486 77 372 m 200 486 q 215 333 200 405 q 265 206 231 261 q 350 118 298 151 q 473 86 402 86 q 676 183 602 86 q 750 486 750 281 q 734 638 750 565 q 684 765 718 711 q 597 853 650 820 q 473 886 545 886 q 272 788 345 886 q 200 486 200 690 "},"3":{"x_min":122.234375,"x_max":655.609375,"ha":757,"o":"m 325 80 q 412 93 372 80 q 481 134 452 107 q 527 199 511 161 q 544 281 544 236 q 486 425 544 378 q 327 473 429 473 l 225 473 l 225 513 l 425 821 l 488 882 l 398 869 l 123 869 l 123 972 l 619 972 l 619 931 l 398 599 l 350 559 l 350 556 l 397 566 q 500 545 452 564 q 581 491 547 527 q 636 407 616 456 q 655 295 655 357 q 629 162 655 220 q 557 64 602 103 q 451 3 512 24 q 322 -17 390 -17 q 209 -7 259 -17 q 122 17 159 2 l 151 116 q 227 90 183 100 q 325 80 270 80 "},"ҟ":{"x_min":-2.78125,"x_max":654.21875,"ha":668,"o":"m -2 851 l 109 851 l 109 972 l 220 972 l 220 851 l 441 851 l 441 768 l 220 768 l 220 380 l 277 399 l 493 695 l 622 695 l 409 414 l 352 368 l 422 313 l 654 0 l 516 0 l 284 312 l 220 312 l 220 0 l 109 0 l 109 768 l -2 768 l -2 851 "},"9":{"x_min":72.234375,"x_max":673.671875,"ha":757,"o":"m 72 677 q 91 801 72 744 q 148 900 111 858 q 242 965 186 941 q 373 989 298 989 q 594 897 515 989 q 673 638 673 805 q 638 364 673 481 q 540 166 602 247 q 392 40 477 85 q 206 -17 306 -4 l 181 72 q 327 119 262 84 q 438 206 391 153 q 513 326 484 259 q 554 473 543 394 q 471 411 516 428 q 352 394 426 394 q 245 412 295 394 q 155 467 194 431 q 94 556 116 503 q 72 677 72 609 m 187 688 q 239 540 187 589 q 376 491 291 491 q 493 513 444 491 q 562 571 541 535 q 565 603 565 589 q 565 633 565 617 q 553 729 565 683 q 518 813 541 776 q 456 871 494 850 q 366 892 418 892 q 234 838 281 892 q 187 688 187 784 "},"l":{"x_min":119.453125,"x_max":393.09375,"ha":406,"o":"m 230 170 q 247 100 230 121 q 294 80 263 80 q 333 82 312 80 q 380 95 354 85 l 393 7 q 331 -10 370 -3 q 262 -17 291 -17 q 159 18 200 -17 q 119 138 119 53 l 119 972 l 230 972 l 230 170 "},"4":{"x_min":27.78125,"x_max":727.84375,"ha":757,"o":"m 727 299 l 563 299 l 563 0 l 455 0 l 455 299 l 27 299 l 27 344 l 488 988 l 563 988 l 563 396 l 727 396 l 727 299 m 455 698 l 469 812 l 465 812 l 416 718 l 220 452 l 154 384 l 251 396 l 455 396 l 455 698 "},"Ъ":{"x_min":-1.390625,"x_max":827.84375,"ha":875,"o":"m 220 869 l -1 869 l -1 972 l 336 972 l 336 593 q 359 597 343 595 q 396 600 376 599 q 437 603 416 602 q 475 605 458 605 q 603 591 540 605 q 716 545 666 578 q 797 455 766 512 q 827 313 827 399 q 798 169 827 230 q 718 68 769 108 q 597 8 666 27 q 448 -11 529 -11 q 401 -10 429 -11 q 342 -7 373 -9 q 279 -1 311 -5 q 220 9 247 2 l 220 869 m 463 89 q 557 102 513 89 q 634 142 601 115 q 686 210 666 169 q 705 305 705 251 q 684 402 705 363 q 629 464 663 441 q 550 495 594 486 q 458 505 505 505 q 427 503 445 505 q 391 500 409 502 q 358 496 373 499 q 336 492 343 493 l 336 97 q 391 91 355 93 q 463 89 427 89 "}}}
